<?xml version="1.0" encoding="utf-8"?>
<!-- Generator: Adobe Illustrator 19.1.1, SVG Export Plug-In . SVG Version: 6.00 Build 0)  -->
<svg version="1.1" id="Calque_1" xmlns="http://www.w3.org/2000/svg" xmlns:xlink="http://www.w3.org/1999/xlink" x="0px" y="0px"
	 viewBox="0 0 84.8 231.7" style="enable-background:new 0 0 84.8 231.7;" xml:space="preserve">
<style type="text/css">
	.st0{stroke:#FFFFFF;stroke-miterlimit:10;}
</style>
<g>
	<path class="st0" d="M76,222.7c-17.6,0-30.3-3.2-38.3-9.7c-8-6.4-12-17.9-12-34.4v-29c0-14.8-6.1-22.2-18.4-22.2v-22.2
		c12.2,0,18.4-7.7,18.4-23.1V55.1c0-16.6,4-28.3,11.8-35S58.3,10,76,10v22.6c-12.9,0-19.3,7-19.3,21v25.7c0,19.3-6.2,31.5-18.6,36.6
		v0.5c12.4,5,18.6,17.4,18.6,37.1v24.8c0,7.9,1.5,13.5,4.5,16.8c3,3.3,8,5,14.8,5V222.7z"/>
</g>
</svg>
