<?xml version="1.0" encoding="utf-8"?>
<!-- Generator: Adobe Illustrator 19.1.1, SVG Export Plug-In . SVG Version: 6.00 Build 0)  -->
<svg version="1.1" id="Calque_1" xmlns="http://www.w3.org/2000/svg" xmlns:xlink="http://www.w3.org/1999/xlink" x="0px" y="0px"
	 viewBox="-378 240.3 202.7 80.7" style="enable-background:new -378 240.3 202.7 80.7;" xml:space="preserve">
<style type="text/css">
	.st0{fill:#2C317D;}
</style>
<path class="st0" d="M-345.3,255.7l15.6,42.5h-8.7c-1.8,0-3.4-1.2-3.9-2.9l-1.3-4.2h-16.2l-1.3,4.2c-0.5,1.7-2.1,2.9-3.9,2.9h-8.8
	l15.8-42.5c0.4-1,1.3-1.7,2.4-1.7h7.9C-346.6,254-345.6,254.7-345.3,255.7z M-351.8,264.5c-0.6,2.3-1.2,4.6-1.8,6.8
	c-0.9,3.3-2.6,8.5-3.6,11.8h11.2L-351.8,264.5z"/>
<path class="st0" d="M-200.9,255.7l15.6,42.5h-8.7c-1.8,0-3.4-1.2-3.9-2.9l-1.3-4.2h-16.3l-1.3,4.2c-0.5,1.7-2.1,2.9-3.9,2.9h-8.7
	l15.8-42.5c0.4-1,1.3-1.7,2.4-1.7h7.9C-202.2,254-201.3,254.7-200.9,255.7z M-207.4,264.5c-0.6,2.3-1.2,4.6-1.8,6.8
	c-0.9,3.3-2.6,8.5-3.6,11.8h11.2L-207.4,264.5z"/>
<g>
	<path class="st0" d="M-292.1,254.1v5.9c0,1.6-1.3,2.8-2.8,2.8H-314v9.1h19.7v8.4h-18.3c-0.8,0-1.4,0.6-1.4,1.4v7.7h22.6v5.9
		c0,1.6-1.3,2.8-2.8,2.8h-29.6v-42.6c0-0.8,0.6-1.4,1.4-1.4H-292.1z"/>
	<path class="st0" d="M-264,264v31.3c0,1.6-1.3,2.8-2.8,2.8h-7v-35.5h-12.5v-8.5h34.8v8.5h-11.1C-263.3,262.6-264,263.2-264,264z"/>
	<path class="st0" d="M-244.3,254.1h9.8v41.2c0,1.6-1.3,2.8-2.8,2.8h-7V254.1z"/>
</g>
<path class="st0" d="M-329.7,297.9l-4.6-12.5c0-0.1-0.1-0.2-0.1-0.3l-4.6-12.3c-0.1,0.9-0.1,1.8-0.1,2.7
	C-339.1,284.3-335.5,292.2-329.7,297.9z"/>
<path class="st0" d="M-280.8,265.8c1.1,3,1.7,6.3,1.7,9.6c0,15.7-12.8,28.5-28.5,28.5c-4.2,0-8.3-0.9-11.9-2.6h-4.4v1.1
	c4.7,2.9,10.3,4.5,16.2,4.5c17.4,0,31.5-14.1,31.5-31.5c0-3.4-0.5-6.6-1.5-9.6C-277.7,265.8-280.8,265.8-280.8,265.8z"/>
<g>
	<path class="st0" d="M-288,250.9c-5.4-4.3-12.2-6.9-19.6-6.9c-14.3,0-26.4,9.6-30.2,22.6l2,5.3c1.8-14,13.8-24.9,28.2-24.9
		c5.2,0,10.1,1.4,14.3,3.9C-293.3,250.9-288,250.9-288,250.9z"/>
</g>
<g>
	<path class="st0" d="M-274.4,317.6v-1l1.2-1.2c3-2.8,4.3-4.4,4.4-6.1c0-1.2-0.6-2.3-2.3-2.3c-1.1,0-1.9,0.5-2.5,1l-0.5-1.1
		c0.8-0.7,2-1.2,3.3-1.2c2.5,0,3.6,1.7,3.6,3.4c0,2.2-1.6,3.9-4,6.3l-0.9,0.9l0,0h5.3v1.3L-274.4,317.6L-274.4,317.6z"/>
	<path class="st0" d="M-263.9,308.9l1.2,1.9c0.3,0.5,0.6,0.9,0.9,1.4h0.1c0.3-0.5,0.6-1,0.9-1.4l1.2-1.9h1.7l-3,4.2l3.1,4.5h-1.8
		l-1.3-2c-0.3-0.5-0.6-1-0.9-1.5l0,0c-0.3,0.5-0.6,1-0.9,1.5l-1.3,2h-1.7l3.1-4.4l-3-4.3C-265.6,308.9-263.9,308.9-263.9,308.9z"/>
	<path class="st0" d="M-256.2,305.6c0.8-0.1,1.7-0.2,3-0.2c1.5,0,2.7,0.4,3.4,1c0.7,0.6,1.1,1.5,1.1,2.5c0,1.1-0.3,2-0.9,2.6
		c-0.8,0.9-2.2,1.3-3.7,1.3c-0.5,0-0.9,0-1.3-0.1v4.9h-1.6C-256.2,317.6-256.2,305.6-256.2,305.6z M-254.7,311.5
		c0.3,0.1,0.8,0.1,1.3,0.1c1.9,0,3-0.9,3-2.6c0-1.6-1.1-2.4-2.9-2.4c-0.7,0-1.2,0.1-1.5,0.1L-254.7,311.5L-254.7,311.5z"/>
	<path class="st0" d="M-247,311.6c0-1,0-1.9-0.1-2.7h1.4l0.1,1.7h0.1c0.4-1.2,1.4-1.9,2.4-1.9c0.2,0,0.3,0,0.4,0.1v1.5
		c-0.2,0-0.3-0.1-0.5-0.1c-1.1,0-1.9,0.8-2.1,2c0,0.2-0.1,0.5-0.1,0.7v4.6h-1.6V311.6z"/>
	<path class="st0" d="M-233.4,313.2c0,3.2-2.2,4.6-4.3,4.6c-2.4,0-4.2-1.7-4.2-4.5c0-2.9,1.9-4.6,4.3-4.6
		C-235.1,308.7-233.4,310.5-233.4,313.2z M-240.3,313.3c0,1.9,1.1,3.3,2.6,3.3s2.6-1.4,2.6-3.4c0-1.5-0.7-3.3-2.6-3.3
		C-239.5,309.9-240.3,311.6-240.3,313.3z"/>
	<path class="st0" d="M-229.5,306.4v2.5h2.3v1.2h-2.3v4.7c0,1.1,0.3,1.7,1.2,1.7c0.4,0,0.7-0.1,0.9-0.1l0.1,1.2
		c-0.3,0.1-0.8,0.2-1.4,0.2c-0.7,0-1.3-0.2-1.7-0.7c-0.5-0.5-0.6-1.2-0.6-2.3V310h-1.4v-1.2h1.4v-2.1L-229.5,306.4z"/>
	<path class="st0" d="M-224.7,313.5c0,2.1,1.4,3,3,3c1.1,0,1.8-0.2,2.4-0.5l0.3,1.1c-0.6,0.3-1.5,0.5-2.9,0.5
		c-2.7,0-4.3-1.8-4.3-4.4c0-2.6,1.5-4.7,4.1-4.7c2.8,0,3.6,2.5,3.6,4.1c0,0.3,0,0.6-0.1,0.7h-6.1V313.5z M-220,312.4
		c0-1-0.4-2.6-2.2-2.6c-1.6,0-2.3,1.5-2.4,2.6H-220z"/>
	<path class="st0" d="M-210.3,317.3c-0.4,0.2-1.3,0.5-2.5,0.5c-2.6,0-4.3-1.8-4.3-4.4c0-2.7,1.8-4.6,4.7-4.6c0.9,0,1.8,0.2,2.2,0.5
		l-0.4,1.2c-0.4-0.2-1-0.4-1.8-0.4c-2,0-3.1,1.5-3.1,3.3c0,2,1.3,3.3,3,3.3c0.9,0,1.5-0.2,1.9-0.4L-210.3,317.3z"/>
	<path class="st0" d="M-206.3,306.4v2.5h2.3v1.2h-2.3v4.7c0,1.1,0.3,1.7,1.2,1.7c0.4,0,0.7-0.1,0.9-0.1l0.1,1.2
		c-0.3,0.1-0.8,0.2-1.4,0.2c-0.7,0-1.3-0.2-1.7-0.7c-0.5-0.5-0.6-1.2-0.6-2.3V310h-1.4v-1.2h1.4v-2.1L-206.3,306.4z"/>
	<path class="st0" d="M-200.5,306.4c0,0.5-0.4,1-1,1s-1-0.4-1-1s0.4-1,1-1C-200.9,305.5-200.5,305.9-200.5,306.4z M-202.3,317.6
		v-8.7h1.6v8.7H-202.3z"/>
	<path class="st0" d="M-190.2,313.2c0,3.2-2.2,4.6-4.3,4.6c-2.4,0-4.2-1.7-4.2-4.5c0-2.9,1.9-4.6,4.3-4.6
		C-191.9,308.7-190.2,310.5-190.2,313.2z M-197.1,313.3c0,1.9,1.1,3.3,2.6,3.3s2.6-1.4,2.6-3.4c0-1.5-0.7-3.3-2.6-3.3
		C-196.3,309.9-197.1,311.6-197.1,313.3z"/>
	<path class="st0" d="M-188.2,311.2c0-0.9,0-1.6-0.1-2.4h1.4l0.1,1.4l0,0c0.4-0.8,1.4-1.6,2.9-1.6c1.2,0,3.1,0.7,3.1,3.7v5.2h-1.6
		v-5c0-1.4-0.5-2.6-2-2.6c-1,0-1.9,0.7-2.1,1.6c-0.1,0.2-0.1,0.5-0.1,0.7v5.2h-1.6L-188.2,311.2L-188.2,311.2z"/>
</g>
</svg>
