<?xml version="1.0" encoding="utf-8"?>
<!-- Generator: Adobe Illustrator 19.1.1, SVG Export Plug-In . SVG Version: 6.00 Build 0)  -->
<svg version="1.1" id="Layer_1" xmlns="http://www.w3.org/2000/svg" xmlns:xlink="http://www.w3.org/1999/xlink" x="0px" y="0px"
	 viewBox="-331 133.8 295.2 295.2" style="enable-background:new -331 133.8 295.2 295.2;" xml:space="preserve">
<style type="text/css">
	.st0{fill:#333366;}
</style>
<g>
	<g>
		<g>
			<path class="st0" d="M-86.6,373.1l-6.9-6.6c-0.3,0.4-0.7,0.7-1.1,1.1L-134.3,238c5-6.4,8-14.5,8-23.3c0-21-17.1-38.1-38.1-38.1
				v-17.5c1.3,0.2,2.5,0.3,3.8,0.6l1.7-9.4c-2-0.4-3.9-0.6-5.9-0.9c-1.6-8.9-9.4-15.7-18.7-15.7s-17.1,6.8-18.7,15.7
				c-2,0.3-3.9,0.5-5.9,0.9l1.7,9.4c1.3-0.2,2.5-0.4,3.8-0.6v17.5c-21,0-38.1,17.1-38.1,38.1c0,8.8,3,16.8,8,23.3l-39.6,129.6
				c-0.4-0.4-0.7-0.7-1.1-1.1l-6.9,6.6c1.6,1.6,3.2,3.2,4.9,4.8l-7.9,25.9l-0.2,25.2l27.9-20.9l3.8-12.3c1,0.6,2,1.3,3,1.9l4.7-8.3
				c-1.6-0.9-3.2-2-4.8-3l17.5-57.4h95.9l17.5,57.4c-1.6,1-3.2,2-4.8,3l4.7,8.3c1-0.6,2-1.2,3-1.9l3.8,12.3l27.9,20.9v-24.5
				l-8.1-26.6C-89.9,376.3-88.2,374.8-86.6,373.1z M-164.3,186.1c15.8,0,28.6,12.8,28.6,28.6c0,9.2-4.4,17.3-11.1,22.6
				c-2.8-9.4-9.1-17.3-17.5-22.2c0-0.1,0-0.3,0-0.4c0-10.3-4.1-19.6-10.7-26.5C-171.8,186.9-168.1,186.1-164.3,186.1z M-165.9,225.5
				c5.2,4,8.9,9.8,10.4,16.4c-2.8,0.9-5.7,1.4-8.8,1.4c-3.8,0-7.4-0.8-10.7-2.1C-170.9,236.8-167.7,231.5-165.9,225.5z M-183.4,236
				c-4.4-3.9-7.5-9.1-8.8-15.1c2.8-0.9,5.7-1.4,8.8-1.4s6,0.5,8.8,1.4C-175.9,226.8-179,232-183.4,236z M-183.4,210
				c-3.2,0-6.3,0.4-9.3,1.2c0.9-7,4.3-13.2,9.3-17.7c5,4.5,8.4,10.7,9.3,17.7C-177.1,210.4-180.2,210-183.4,210z M-191.7,241.2
				c-3.3,1.4-6.9,2.1-10.7,2.1c-3.1,0-6-0.5-8.8-1.4c1.5-6.6,5.2-12.4,10.4-16.4C-199.1,231.5-195.9,236.8-191.7,241.2z
				 M-202.4,252.8c6.9,0,13.4-1.9,19-5.2c5.6,3.3,12.1,5.2,19,5.2c3.2,0,6.3-0.4,9.3-1.2c-1.8,14.1-13.8,25-28.3,25
				s-26.6-10.9-28.3-25C-208.7,252.4-205.6,252.8-202.4,252.8z M-192.9,152.8c0-5.3,4.3-9.5,9.5-9.5s9.5,4.3,9.5,9.5v25.1
				c-3.4,0.9-6.6,2.2-9.5,3.9c-2.9-1.7-6.1-3-9.5-3.9V152.8z M-202.4,186.1c3.8,0,7.4,0.8,10.7,2.1c-6.6,6.9-10.7,16.2-10.7,26.5
				c0,0.1,0,0.3,0,0.4c-8.4,4.8-14.7,12.7-17.5,22.2c-6.7-5.2-11.1-13.4-11.1-22.6C-231,199-218.2,186.1-202.4,186.1z M-263.7,402.3
				l-10.2,7.6v-4.1l49-160.4c1.1,0.8,2.2,1.5,3.4,2.2c0,0.1,0,0.3,0,0.4c0,3.8,0.6,7.4,1.6,10.9L-263.7,402.3z M-228.4,319.5
				l14.8-48.4c7,9.1,17.9,15,30.2,15c12.3,0,23.3-5.9,30.2-15l14.8,48.4H-228.4z M-92.9,410L-92.9,410l-10.2-7.6L-146.9,259
				c1-3.5,1.6-7.1,1.6-10.9c0-0.1,0-0.3,0-0.4c1.2-0.7,2.3-1.4,3.4-2.2l49,160.4L-92.9,410L-92.9,410z"/>
			<path class="st0" d="M-122.7,162.6c-5.6-2.9-11.5-5.4-17.5-7.4l-3.1,9c5.6,1.9,11,4.2,16.3,6.9L-122.7,162.6z"/>
			<path class="st0" d="M-68.1,214.3c-3.2-5.5-6.8-10.7-10.7-15.7l-7.5,5.9c3.7,4.6,7,9.5,10,14.6L-68.1,214.3z"/>
			<path class="st0" d="M-91.7,184.6c-4.6-4.4-9.6-8.4-14.7-12.1l-5.5,7.8c4.8,3.4,9.4,7.2,13.7,11.2L-91.7,184.6z"/>
			<path class="st0" d="M-63.1,251.8l9.2-2.3c-1.5-6.2-3.5-12.3-5.9-18.1l-8.8,3.6C-66.3,240.4-64.5,246.1-63.1,251.8z"/>
			<path class="st0" d="M-50.7,268.3l-9.5,0.9c0.4,4,0.6,8.1,0.6,12.1c0,1.9,0,3.7-0.1,5.5l9.5,0.4c0.1-2,0.1-4,0.1-6
				C-50,277-50.3,272.6-50.7,268.3z"/>
			<path class="st0" d="M-66.2,321.6l9,3.1c2.1-6,3.7-12.2,4.9-18.4l-9.4-1.8C-62.8,310.3-64.3,316-66.2,321.6z"/>
			<path class="st0" d="M-82.3,352.9l7.8,5.5c3.7-5.2,7-10.6,9.9-16.3l-8.5-4.4C-75.8,343-78.9,348.1-82.3,352.9z"/>
			<path class="st0" d="M-156.5,402.3l2.1,9.3c6.3-1.4,12.6-3.3,18.7-5.6l-3.4-8.9C-144.8,399.2-150.6,400.9-156.5,402.3z"/>
			<path class="st0" d="M-183.4,405.2c-3-0.1-6-0.1-9.1-0.3l-0.7,9.5c3.2,0.2,6.4,0.4,9.6,0.4c3.4,0.1,6.6-0.1,9.9-0.3l-0.7-9.5
				C-177.3,405.1-180.4,405.2-183.4,405.2z"/>
			<path class="st0" d="M-231.1,405.9c6.1,2.3,12.3,4.2,18.7,5.6l2.1-9.3c-5.9-1.3-11.7-3.1-17.3-5.2L-231.1,405.9z"/>
			<path class="st0" d="M-223.3,164.2l-3.1-9c-6,2-11.9,4.5-17.5,7.4l4.3,8.5C-234.4,168.4-228.9,166.1-223.3,164.2z"/>
			<path class="st0" d="M-280.4,204.4l-7.5-5.9c-3.9,5-7.6,10.3-10.7,15.7l8.2,4.8C-287.4,214-284,209.1-280.4,204.4z"/>
			<path class="st0" d="M-302.1,342c2.9,5.6,6.2,11.1,9.9,16.3l7.8-5.5c-3.4-4.8-6.5-9.9-9.2-15.1L-302.1,342z"/>
			<path class="st0" d="M-305.1,304.3l-9.4,1.8c1.2,6.2,2.8,12.4,4.8,18.4l9-3.1C-302.5,315.9-304,310.1-305.1,304.3z"/>
			<path class="st0" d="M-307.2,281.4c0-4.1,0.2-8.2,0.6-12.3l-9.5-0.9c-0.4,4.4-0.6,8.8-0.6,13.2c0,1.9,0,3.9,0.1,5.8l9.5-0.4
				C-307.2,285-307.2,283.2-307.2,281.4z"/>
			<path class="st0" d="M-254.7,180.2l-5.5-7.8c-5.2,3.6-10.1,7.7-14.7,12l6.5,6.9C-264.1,187.4-259.5,183.6-254.7,180.2z"/>
			<path class="st0" d="M-298.2,234.9l-8.8-3.6c-2.4,5.9-4.4,12-5.9,18.1l9.2,2.3C-302.2,246-300.4,240.3-298.2,234.9z"/>
		</g>
	</g>
</g>
</svg>
