<?xml version="1.0" encoding="utf-8"?>
<!-- Generator: Adobe Illustrator 19.1.1, SVG Export Plug-In . SVG Version: 6.00 Build 0)  -->
<svg version="1.1" id="Calque_1" xmlns="http://www.w3.org/2000/svg" xmlns:xlink="http://www.w3.org/1999/xlink" x="0px" y="0px"
	 viewBox="-181 -140.9 595.3 841.9" style="enable-background:new -181 -140.9 595.3 841.9;" xml:space="preserve">
<path d="M359,244c-1,2.9-3.5,6.1-6.2,7.4c-30.9,14.7-62,29-93,43.5c-17.7,8.3-35.1,17.1-52.8,25.5c-23.1,10.9-46.3,21.6-69.4,32.4
	c-10,4.7-20,9.3-29.9,14.1c-0.4,0.2-0.9,0.4-1.3,0.6c-3.7,1.5-7.4,1.3-10.8-1.1c-3.9-2.8-4.8-7.1-3.9-11.5
	c4-20.1,8.4-40.1,12.5-60.2c1.5-7.5,2.8-15.1,4.4-23.4l0,0c-8.3,0-16.4,0-24.5,0.1c-32.9,0.2-65.8,0.4-98.7,0.5
	c-3.5,0-6.9,0.1-10.3,0.1c-3.4,0-6.8-0.2-10.2-0.4c-0.7,0-1.3-0.1-2-0.2h-82.6c-10.3,0-18.8-8.4-18.8-18.8v-17.5
	c0-10.3,8.4-18.8,18.8-18.8H-19c33.5-0.2,67-0.4,100.4-0.6c6.5,0,12.9-0.1,19.3-0.2c0.9,0,1.8,0,2.7,0c0.5,0,0.9,0,1.3,0
	c2.7-0.2,2.9-1.4,2.2-4.6c-5.4-24.5-10.5-49-15.8-73.5c-0.4-1.7-0.6-3.5-1-5.2c-1-4.3-0.5-8.1,3.2-11.1c3.6-3,7.4-3.1,11.4-1.6
	c0.4,0.1,0.8,0.3,1.2,0.5c14.3,6.4,28.6,12.8,42.9,19.2c29.4,13.3,58.7,26.7,88.1,40c37.6,17.1,75.3,34.1,112.9,51.1
	C358.5,234.3,361.2,237.7,359,244z"/>
</svg>
