<?xml version="1.0" encoding="utf-8"?>
<!-- Generator: Adobe Illustrator 19.1.1, SVG Export Plug-In . SVG Version: 6.00 Build 0)  -->
<svg version="1.1" id="Calque_1" xmlns="http://www.w3.org/2000/svg" xmlns:xlink="http://www.w3.org/1999/xlink" x="0px" y="0px"
	 viewBox="353 155 356 310" style="enable-background:new 353 155 356 310;" xml:space="preserve">
<style type="text/css">
	.st0{fill:none;stroke:#000000;stroke-width:3;stroke-miterlimit:10;}
	.st1{fill:none;stroke:#000000;stroke-width:3.0574;stroke-miterlimit:10;}
	.st2{fill:none;stroke:#000000;stroke-width:4;stroke-miterlimit:10;}
</style>
<rect x="389" y="184.1" class="st0" width="280.6" height="132.3"/>
<g>
	<circle cx="637.5" cy="216.2" r="5.5"/>
	<rect x="475.4" y="204.7" class="st1" width="173.5" height="98.7"/>
	<rect x="485.2" y="233.4" width="51.6" height="6.5"/>
	<rect x="485.2" y="247.6" width="95.3" height="6.5"/>
	<rect x="485.2" y="267" width="95.3" height="6.5"/>
	<rect x="485.2" y="281.3" width="51.6" height="6.5"/>
</g>
<g>
	<line class="st0" x1="455.5" y1="184" x2="455.5" y2="316"/>
	<rect x="398.4" y="205.3" width="36.6" height="6.5"/>
	<rect x="398.4" y="234.7" width="36.6" height="6.5"/>
	<rect x="398.4" y="264.1" width="36.6" height="6.5"/>
	<rect x="398.4" y="293.5" width="36.6" height="6.5"/>
</g>
<rect x="373.2" y="168.3" class="st2" width="318.9" height="185.2"/>
<g>
	<g>
		<path class="st0" d="M506,391c0,0,40,67.6-10.7,65.3"/>
		<path class="st0" d="M561.3,391c0,0-40,67.6,10.7,65.3"/>
	</g>
	<path d="M594.1,454.5H472.9c-0.8,0-1.5,0.7-1.5,1.5v1c0,0.8,0.7,1.5,1.5,1.5h121.2c0.8,0,1.5-0.7,1.5-1.5v-1
		C595.6,455.2,594.9,454.5,594.1,454.5z"/>
</g>
<path class="st2" d="M682.2,391.1h-299c-5.5,0-10-4.5-10-10v-27.5h318.9v27.5C692.2,386.6,687.7,391.1,682.2,391.1z"/>
<path class="st0" d="M541.8,372.3c0,5.5-2.8,8.3-8.3,8.3s-8.3-2.8-8.3-8.3s2.8-8.3,8.3-8.3S541.8,366.8,541.8,372.3z"/>
</svg>
