<?xml version="1.0" encoding="utf-8"?>
<!-- Generator: Adobe Illustrator 19.1.1, SVG Export Plug-In . SVG Version: 6.00 Build 0)  -->
<svg version="1.1" id="Calque_1" xmlns="http://www.w3.org/2000/svg" xmlns:xlink="http://www.w3.org/1999/xlink" x="0px" y="0px"
	 viewBox="0 0 960 560" style="enable-background:new 0 0 960 560;" xml:space="preserve">
<style type="text/css">
	.st0{fill:none;stroke:#000000;stroke-width:6.3137;stroke-miterlimit:10;}
	.st1{stroke:#FFFFFF;stroke-width:3.9349;}
	.st2{fill:none;stroke:#000000;stroke-miterlimit:10;}
</style>
<path d="M486.5,177.6H336.3c-3.6,0-6.5-2.9-6.5-6.5v-12.4c0-3.6,2.9-6.5,6.5-6.5h150.2c3.6,0,6.5,2.9,6.5,6.5v12.4
	C493,174.8,490.1,177.6,486.5,177.6z"/>
<path d="M486.5,268.6H336.3c-3.6,0-6.5-2.9-6.5-6.5v-12.4c0-3.6,2.9-6.5,6.5-6.5h150.2c3.6,0,6.5,2.9,6.5,6.5v12.4
	C493,265.7,490.1,268.6,486.5,268.6z"/>
<path d="M486.5,367.3H336.3c-3.6,0-6.5-2.9-6.5-6.5v-12.4c0-3.6,2.9-6.5,6.5-6.5h150.2c3.6,0,6.5,2.9,6.5,6.5v12.4
	C493,364.4,490.1,367.3,486.5,367.3z"/>
<g>
	<path class="st0" d="M281.2,194.3h-42c-6.6,0-12-5.4-12-12v-42c0-6.6,5.4-12,12-12h42c6.6,0,12,5.4,12,12v42
		C293.2,188.9,287.8,194.3,281.2,194.3z"/>
	<g>
		<path class="st1" d="M266.1,177.8L237.3,149c-0.4-0.4-0.4-1,0-1.4l8.3-8.3c0.4-0.4,1-0.4,1.4,0l19.8,19.8l37.3-37.3
			c0.4-0.4,1-0.4,1.4,0l8.3,8.3c0.4,0.4,0.4,1,0,1.4l-46.3,46.3C267.1,178.2,266.5,178.2,266.1,177.8z"/>
	</g>
</g>
<g>
	<path class="st0" d="M281.2,288.9h-42c-6.6,0-12-5.4-12-12v-42c0-6.6,5.4-12,12-12h42c6.6,0,12,5.4,12,12v42
		C293.2,283.5,287.8,288.9,281.2,288.9z"/>
	<g>
		<path class="st1" d="M266.1,272.5l-28.8-28.8c-0.4-0.4-0.4-1,0-1.4l8.3-8.3c0.4-0.4,1-0.4,1.4,0l19.8,19.8l37.3-37.3
			c0.4-0.4,1-0.4,1.4,0l8.3,8.3c0.4,0.4,0.4,1,0,1.4l-46.3,46.3C267.1,272.9,266.5,272.9,266.1,272.5z"/>
	</g>
</g>
<g>
	<path class="st0" d="M281.2,387.6h-42c-6.6,0-12-5.4-12-12v-42c0-6.6,5.4-12,12-12h42c6.6,0,12,5.4,12,12v42
		C293.2,382.2,287.8,387.6,281.2,387.6z"/>
	<g>
		<path class="st1" d="M266.1,371.2l-28.8-28.8c-0.4-0.4-0.4-1,0-1.4l8.3-8.3c0.4-0.4,1-0.4,1.4,0l19.8,19.8l37.3-37.3
			c0.4-0.4,1-0.4,1.4,0l8.3,8.3c0.4,0.4,0.4,1,0,1.4l-46.3,46.3C267.1,371.6,266.5,371.6,266.1,371.2z"/>
	</g>
</g>
<path class="st2" d="M521.7,425.7H198.3c-6.6,0-12-5.4-12-12V98.3c0-6.6,5.4-12,12-12h323.3c6.6,0,12,5.4,12,12v315.3
	C533.7,420.3,528.3,425.7,521.7,425.7z"/>
</svg>
