<?xml version="1.0" encoding="utf-8"?>
<!-- Generator: Adobe Illustrator 19.1.1, SVG Export Plug-In . SVG Version: 6.00 Build 0)  -->
<svg version="1.1" id="Calque_1" xmlns="http://www.w3.org/2000/svg" xmlns:xlink="http://www.w3.org/1999/xlink" x="0px" y="0px"
	 viewBox="-329 91 300 380" style="enable-background:new -329 91 300 380;" xml:space="preserve">
<style type="text/css">
	.st0{fill:#FFFFFF;stroke:#000000;stroke-miterlimit:10;}
	.st1{fill:none;stroke:#FFFFFF;stroke-miterlimit:10;}
	.st2{fill:#FFFFFF;stroke:#000000;stroke-width:3.3156;stroke-miterlimit:10;}
	.st3{fill:none;stroke:#000000;stroke-width:3.3156;stroke-miterlimit:10;}
</style>
<polygon class="st0" points="-532,33.2 -530.7,33.2 -530.7,33.2 "/>
<line class="st1" x1="-368.5" y1="170" x2="-368.5" y2="170"/>
<path class="st2" d="M-64.1,451h-220.6c-6.3,0-11.3-5-11.3-11.3V125.2c0-6.2,5-11.3,11.3-11.3h220.6c6.2,0,11.3,5.1,11.3,11.3v314.5
	C-52.9,446-57.9,451-64.1,451z"/>
<path class="st3" d="M-86.2,210.1h-176.5c-0.1,0-0.2-0.1-0.2-0.2v-58.5c0-0.1,0.1-0.2,0.2-0.2h176.5c0.1,0,0.2,0.1,0.2,0.2v58.5
	C-86,210-86.1,210.1-86.2,210.1z"/>
<g>
	<path d="M-227.1,278h-30.4c-0.1,0-0.2-0.1-0.2-0.2V247c0-0.1,0.1-0.2,0.2-0.2h30.4c0.1,0,0.2,0.1,0.2,0.2v30.9
		C-226.9,278-227,278-227.1,278z"/>
	<path d="M-181.9,278h-30.4c-0.1,0-0.2-0.1-0.2-0.2V247c0-0.1,0.1-0.2,0.2-0.2h30.4c0.1,0,0.2,0.1,0.2,0.2v30.9
		C-181.7,278-181.8,278-181.9,278z"/>
	<path d="M-136.6,278H-167c-0.1,0-0.2-0.1-0.2-0.2V247c0-0.1,0.1-0.2,0.2-0.2h30.4c0.1,0,0.2,0.1,0.2,0.2v30.9
		C-136.4,278-136.5,278-136.6,278z"/>
	<path d="M-91.4,278h-30.4c-0.1,0-0.2-0.1-0.2-0.2V247c0-0.1,0.1-0.2,0.2-0.2h30.4c0.1,0,0.2,0.1,0.2,0.2v30.9
		C-91.2,278-91.3,278-91.4,278z"/>
</g>
<path d="M-227.1,430.4h-30.4c-0.1,0-0.2-0.1-0.2-0.2v-30.9c0-0.1,0.1-0.2,0.2-0.2h30.4c0.1,0,0.2,0.1,0.2,0.2v30.9
	C-226.9,430.3-227,430.4-227.1,430.4z"/>
<path d="M-181.9,430.4h-30.4c-0.1,0-0.2-0.1-0.2-0.2v-30.9c0-0.1,0.1-0.2,0.2-0.2h30.4c0.1,0,0.2,0.1,0.2,0.2v30.9
	C-181.7,430.3-181.8,430.4-181.9,430.4z"/>
<path d="M-91.2,399.7v30.1c0,0.3-0.3,0.6-0.6,0.6h-74.9c-0.3,0-0.6-0.3-0.6-0.6v-30.1c0-0.3,0.3-0.6,0.6-0.6h74.9
	C-91.4,399.2-91.2,399.4-91.2,399.7z"/>
<g>
	<path d="M-227.1,379.6h-30.4c-0.1,0-0.2-0.1-0.2-0.2v-30.9c0-0.1,0.1-0.2,0.2-0.2h30.4c0.1,0,0.2,0.1,0.2,0.2v30.9
		C-226.9,379.5-227,379.6-227.1,379.6z"/>
	<path d="M-181.9,379.6h-30.4c-0.1,0-0.2-0.1-0.2-0.2v-30.9c0-0.1,0.1-0.2,0.2-0.2h30.4c0.1,0,0.2,0.1,0.2,0.2v30.9
		C-181.7,379.5-181.8,379.6-181.9,379.6z"/>
	<path d="M-136.6,379.6H-167c-0.1,0-0.2-0.1-0.2-0.2v-30.9c0-0.1,0.1-0.2,0.2-0.2h30.4c0.1,0,0.2,0.1,0.2,0.2v30.9
		C-136.4,379.5-136.5,379.6-136.6,379.6z"/>
	<path d="M-91.4,379.6h-30.4c-0.1,0-0.2-0.1-0.2-0.2v-30.9c0-0.1,0.1-0.2,0.2-0.2h30.4c0.1,0,0.2,0.1,0.2,0.2v30.9
		C-91.2,379.5-91.3,379.6-91.4,379.6z"/>
</g>
<g>
	<path d="M-227.1,328.8h-30.4c-0.1,0-0.2-0.1-0.2-0.2v-30.9c0-0.1,0.1-0.2,0.2-0.2h30.4c0.1,0,0.2,0.1,0.2,0.2v30.9
		C-226.9,328.7-227,328.8-227.1,328.8z"/>
	<path d="M-181.9,328.8h-30.4c-0.1,0-0.2-0.1-0.2-0.2v-30.9c0-0.1,0.1-0.2,0.2-0.2h30.4c0.1,0,0.2,0.1,0.2,0.2v30.9
		C-181.7,328.7-181.8,328.8-181.9,328.8z"/>
	<path d="M-136.6,328.8H-167c-0.1,0-0.2-0.1-0.2-0.2v-30.9c0-0.1,0.1-0.2,0.2-0.2h30.4c0.1,0,0.2,0.1,0.2,0.2v30.9
		C-136.4,328.7-136.5,328.8-136.6,328.8z"/>
	<path d="M-91.4,328.8h-30.4c-0.1,0-0.2-0.1-0.2-0.2v-30.9c0-0.1,0.1-0.2,0.2-0.2h30.4c0.1,0,0.2,0.1,0.2,0.2v30.9
		C-91.2,328.7-91.3,328.8-91.4,328.8z"/>
</g>
<path d="M-99.4,188.2c-0.1-0.1-0.2-0.2-0.4-0.2h-3.1c-0.3,0-0.5,0.2-0.5,0.4c-0.3,1.8-0.8,3.2-1.4,4.3c-1.2,2-2.8,3-5,3
	c-2.4,0-4.2-0.9-5.4-2.8c-0.7-1-1.1-2.2-1.4-3.6h9.4c0.2,0,0.4-0.1,0.5-0.4l0.8-2.7c0-0.1,0-0.3-0.1-0.4s-0.3-0.2-0.4-0.2H-117
	c0-0.1,0-0.3,0-0.4c0-0.5,0-1.1,0-1.6h9.8c0.2,0,0.4-0.1,0.5-0.4l0.8-2.7c0-0.1,0-0.3-0.1-0.4s-0.3-0.2-0.4-0.2h-10.1
	c0.3-1.3,0.8-2.5,1.5-3.4c1.3-1.8,3.1-2.7,5.2-2.7c1.8,0,3.1,0.5,4.1,1.5s1.6,2.4,2,4.1c0,0.3,0.3,0.4,0.5,0.4h3.1
	c0.1,0,0.3-0.1,0.4-0.2c0.1-0.1,0.1-0.3,0.1-0.4c-0.2-2.5-1.2-4.8-2.9-6.7c-0.9-1-2-1.8-3.3-2.3c-5-1.9-10.9,0.4-13.5,5.1
	c-0.8,1.4-1.3,2.9-1.7,4.6h-3.6c-0.2,0-0.4,0.1-0.5,0.4l-0.8,2.7c0,0.1,0,0.3,0.1,0.4s0.3,0.2,0.4,0.2h4c0,0.3,0,0.6,0,0.9
	c0,0.4,0,0.7,0,1.1h-3.2c-0.2,0-0.4,0.1-0.5,0.4l-0.8,2.7c0,0.2,0,0.3,0.1,0.4s0.3,0.2,0.4,0.2h4.4c0.5,3.2,1.7,5.8,3.5,7.6
	c2,2.1,4.4,3.1,7.3,3.1c3.3,0,6-1.3,8-3.8c1.6-2.1,2.6-4.7,2.9-7.7C-99.2,188.5-99.3,188.3-99.4,188.2z"/>
</svg>
