<?xml version="1.0" encoding="utf-8"?>
<!-- Generator: Adobe Illustrator 19.1.1, SVG Export Plug-In . SVG Version: 6.00 Build 0)  -->
<svg version="1.1" id="Calque_1" xmlns="http://www.w3.org/2000/svg" xmlns:xlink="http://www.w3.org/1999/xlink" x="0px" y="0px"
	 viewBox="-421 196.6 115.5 168.4" style="enable-background:new -421 196.6 115.5 168.4;" xml:space="preserve">
<style type="text/css">
	.st0{fill:none;stroke:#000000;stroke-width:2.0651;stroke-miterlimit:10;}
</style>
<g>
	<path d="M-316.7,209.1h-33l4.9-6.6c0.8-1.1,0.5-3-0.5-3.8c-1.1-0.8-3-0.6-3.8,0.6l-7.4,9.9H-370l-4.7-9.3c-0.5-1.4-2.2-1.9-3.6-1.1
		c-1.4,0.6-1.9,2.2-1.1,3.6l3.6,7.1h-34.4c-4.7,0-8.2,3.6-8.2,8.2v137.5c0,4.7,3.6,8.2,8.2,8.2h93.5c4.7,0,8.2-3.6,8.2-8.2V217.7
		C-308.5,212.7-312,209.1-316.7,209.1z M-314,354.9c0,1.7-1.1,2.7-2.7,2.7h-93.5c-1.7,0-2.7-1.1-2.7-2.8l-0.1-137.4
		c0-1.7,1.1-2.7,2.7-2.7h36.8l2.7,5.5c-2.2,1.9-3.8,4.9-3.8,8.2c0,6.1,4.9,11,11,11c6,0,11-4.9,11-11c0-6.1-4.9-11-11-11
		c-0.8,0-1.7,0-2.2,0.3l-1.2-3.1h50.6c1.7,0,2.7,1.1,2.7,2.7v137.5h-0.3V354.9z M-368.1,225.3l2.2,4.1c0.5,1.1,1.4,1.7,2.5,1.7
		c0.3,0,0.8,0,1.1-0.3c1.4-0.6,1.9-2.2,1.1-3.6l-2.2-4.1c2.7,0.3,5.2,2.5,5.2,5.5s-2.5,5.5-5.5,5.5s-5.5-2.5-5.5-5.5
		C-369,227.3-368.7,226.2-368.1,225.3z"/>
	<path d="M-336,310.9h-55c-1.7,0-2.7,1.1-2.7,2.7c0,1.7,1.1,2.7,2.7,2.7h55c1.7,0,2.7-1.1,2.7-2.7S-334.3,310.9-336,310.9z"/>
	<path d="M-336,324.6h-55c-1.7,0-2.7,1.1-2.7,2.7c0,1.6,1.1,2.7,2.7,2.7h55c1.7,0,2.7-1.1,2.7-2.7
		C-333.3,325.7-334.3,324.6-336,324.6z"/>
	<path d="M-336,338.4h-55c-1.7,0-2.7,1.1-2.7,2.7c0,1.7,1.1,2.8,2.7,2.8h55c1.7,0,2.7-1.1,2.7-2.8
		C-333.2,339.5-334.3,338.4-336,338.4z"/>
	<g>
		<rect x="-390.1" y="244.9" class="st0" width="53.3" height="55"/>
	</g>
	<g>
		<path d="M-373.2,282h-10.2v-19.3h9.8v2h-7.5v6.4h7v2h-7v6.8h8v2.1H-373.2z"/>
		<path d="M-370.4,281.2v-2.7c0.3,0.3,0.7,0.5,1.1,0.7c0.4,0.2,0.9,0.4,1.3,0.5c0.4,0.1,0.9,0.3,1.4,0.3s0.9,0.1,1.3,0.1
			c1.4,0,2.4-0.3,3.1-0.8c0.7-0.5,1-1.3,1-2.2c0-0.5-0.1-1-0.3-1.4c-0.2-0.4-0.5-0.7-0.9-1.1c-0.4-0.3-0.9-0.6-1.4-0.9
			c-0.6-0.3-1.1-0.6-1.8-0.9c-0.7-0.3-1.3-0.7-1.9-1c-0.6-0.4-1.1-0.7-1.5-1.2c-0.4-0.4-0.8-0.9-1-1.4c-0.2-0.5-0.4-1.2-0.4-1.9
			c0-0.9,0.2-1.6,0.6-2.3s0.9-1.2,1.5-1.6s1.3-0.7,2.1-0.9s1.6-0.3,2.5-0.3c1.9,0,3.3,0.2,4.2,0.7v2.5c-1.1-0.8-2.6-1.2-4.4-1.2
			c-0.5,0-1,0.1-1.5,0.2s-0.9,0.3-1.3,0.5s-0.7,0.5-0.9,0.9c-0.2,0.4-0.4,1-0.4,1.5s0.1,0.9,0.3,1.3c0.2,0.4,0.5,0.7,0.8,1
			c0.4,0.3,0.8,0.6,1.3,0.9c0.5,0.3,1.1,0.6,1.8,0.9c0.7,0.3,1.3,0.7,2,1.1c0.6,0.4,1.2,0.8,1.6,1.3s0.8,1,1.1,1.5s0.4,1.2,0.4,1.9
			c0,1-0.2,1.8-0.6,2.4c-0.4,0.7-0.9,1.2-1.5,1.6c-0.6,0.4-1.4,0.7-2.2,0.9c-0.8,0.2-1.7,0.3-2.6,0.3c-0.3,0-0.7,0-1.1-0.1
			c-0.4,0-0.9-0.1-1.4-0.2c-0.5-0.1-0.9-0.2-1.3-0.4S-370.1,281.4-370.4,281.2z"/>
		<path d="M-355.7,281.2v-2.6c0.3,0.3,0.7,0.5,1.1,0.7c0.4,0.2,0.9,0.4,1.3,0.5c0.5,0.1,0.9,0.3,1.4,0.3s0.9,0.1,1.3,0.1
			c1.4,0,2.4-0.3,3.1-0.8c0.7-0.5,1-1.3,1-2.2c0-0.5-0.1-1-0.3-1.4c-0.2-0.4-0.5-0.7-0.9-1.1c-0.4-0.3-0.9-0.6-1.4-0.9
			c-0.6-0.3-1.1-0.6-1.8-0.9c-0.7-0.3-1.3-0.7-1.9-1c-0.6-0.4-1.1-0.7-1.5-1.2c-0.4-0.4-0.8-0.9-1-1.4c-0.2-0.5-0.4-1.2-0.4-1.9
			c0-0.9,0.2-1.6,0.6-2.3c0.4-0.7,0.9-1.2,1.5-1.6s1.3-0.7,2.1-0.9c0.8-0.2,1.6-0.3,2.5-0.3c1.9,0,3.3,0.2,4.2,0.7v2.5
			c-1.1-0.8-2.6-1.2-4.4-1.2c-0.5,0-1,0.1-1.5,0.2c-0.5,0.1-0.9,0.3-1.3,0.5c-0.4,0.2-0.7,0.5-0.9,0.9c-0.2,0.4-0.4,0.8-0.4,1.3
			s0.1,0.9,0.3,1.3c0.2,0.4,0.5,0.7,0.8,1s0.8,0.6,1.3,0.9c0.5,0.3,1.1,0.6,1.8,0.9c0.7,0.3,1.3,0.7,2,1.1c0.6,0.4,1.2,0.8,1.6,1.3
			c0.4,0.5,0.8,1,1.1,1.5c0.3,0.6,0.4,1.2,0.4,1.9c0,1-0.2,1.8-0.6,2.4c-0.4,0.7-0.9,1.2-1.5,1.6s-1.4,0.7-2.2,0.9
			c-0.8,0.2-1.7,0.3-2.6,0.3c-0.3,0-0.7,0-1.1-0.1s-0.9-0.1-1.4-0.2c-0.5-0.1-0.9-0.2-1.3-0.4C-355.1,281.4-355.5,281.4-355.7,281.2
			z"/>
	</g>
</g>
</svg>
