<?xml version="1.0" encoding="utf-8"?>
<!-- Generator: Adobe Illustrator 19.1.1, SVG Export Plug-In . SVG Version: 6.00 Build 0)  -->
<svg version="1.1" id="Calque_1" xmlns="http://www.w3.org/2000/svg" xmlns:xlink="http://www.w3.org/1999/xlink" x="0px" y="0px"
	 viewBox="11.5 160.1 210.5 241" style="enable-background:new 11.5 160.1 210.5 241;" xml:space="preserve">
<style type="text/css">
	.st0{fill:#FFFFFF;}
</style>
<g>
	<path class="st0" d="M183.8,305.4c0,28.1,0,55.7,0,83.2c-53.6,0-106.6,0-159.6,0c0-72,0-143.6,0-215.3c40,0,79.7,0,119.7,0
		c0,2,0,3.6,0,5.3c0,10.8,0.1,21.7,0,32.5c-0.1,4.3,1.6,6.1,5.9,5.9c5.8-0.2,11.7,0,17.5,0c5.4,0,10.9,0,16.8,0c0,5.9,0,11.2,0,16.5
		c2.8,0,5,0,7.8,0c0-5.9-0.2-11.6,0.1-17.2c0.2-3.4-0.8-5.9-3.1-8.5c-12.1-13.1-24.1-26.3-36-39.6c-2.2-2.5-4.5-3.3-7.8-3.3
		c-41.5,0.1-83,0.1-124.5,0.1c-1.5,0-2.9,0.1-4.5,0.2c0,77.4,0,154.4,0,231.4c58.7,0,117.1,0,175.3,0c0-30.6,0-60.9,0-91.2
		C189,305.4,186.8,305.4,183.8,305.4z M97.1,362.9c5.1-1.9,9.3-3.7,13.6-4.8c5.5-1.4,11.1-2,16.6-3.4c2.4-0.6,5-1.9,6.8-3.7
		c27.1-27,54.2-54.1,81.2-81.2c6.1-6.1,6.3-13.3,0.5-19.9c-2.7-3-5.5-5.8-8.5-8.5c-6.7-6.3-14.1-6.1-20.6,0.3
		c-26.7,26.7-53.5,53.4-80,80.3c-2.3,2.3-3.6,5.8-4.7,8.9c-3.1,9.2-1.5,20-8.8,27.7C94.8,360.4,96.3,362.1,97.1,362.9z M32.1,244.6
		c48.3,0,95.9,0,143.5,0c0-2.7,0-4.9,0-7.3c-48,0-95.7,0-143.5,0C32.1,239.9,32.1,242.1,32.1,244.6z M151.8,261.3
		c-40.2,0-79.9,0-119.5,0c0,2.7,0,5.1,0,7.3c40.1,0,79.7,0,119.5,0C151.8,266,151.8,263.9,151.8,261.3z M135.8,189.3
		c-34.8,0-69.1,0-103.5,0c0,2.7,0,5.1,0,7.4c34.7,0,69.1,0,103.5,0C135.8,194.1,135.8,191.9,135.8,189.3z M135.8,213.3
		c-34.9,0-69.2,0-103.5,0c0,2.7,0,5.1,0,7.3c34.7,0,69.1,0,103.5,0C135.8,218,135.8,215.9,135.8,213.3z M32.1,292.6
		c32.2,0,63.9,0,95.5,0c0-2.6,0-4.9,0-7.4c-32,0-63.6,0-95.5,0C32.1,287.8,32.1,290.1,32.1,292.6z M32.1,316.6c24.3,0,47.9,0,71.5,0
		c0-2.7,0-4.9,0-7.3c-24,0-47.7,0-71.5,0C32.1,311.9,32.1,314.1,32.1,316.6z M91.7,333.2c-19.9,0-39.6,0-59.4,0c0,2.6,0,5,0,7.4
		c20,0,39.7,0,59.4,0C91.7,338,91.7,335.8,91.7,333.2z M91.8,357.3c-20.2,0-39.9,0-59.5,0c0,2.7,0,5.1,0,7.3c20.1,0,39.8,0,59.5,0
		C91.8,362,91.8,359.9,91.8,357.3z"/>
	<path d="M183.8,305.4c3,0,5.1,0,7.7,0c0,30.4,0,60.6,0,91.2c-58.2,0-116.6,0-175.3,0c0-77,0-154.1,0-231.4c1.6-0.1,3-0.2,4.5-0.2
		c41.5,0,83,0,124.5-0.1c3.3,0,5.5,0.9,7.8,3.3c11.9,13.3,23.9,26.5,36,39.6c2.3,2.5,3.3,5,3.1,8.5c-0.3,5.6-0.1,11.2-0.1,17.2
		c-2.8,0-5,0-7.8,0c0-5.3,0-10.5,0-16.5c-6,0-11.4,0-16.8,0c-5.8,0-11.7-0.2-17.5,0c-4.3,0.1-6-1.7-5.9-5.9c0.1-10.8,0-21.7,0-32.5
		c0-1.6,0-3.3,0-5.3c-40,0-79.8,0-119.7,0c0,71.7,0,143.3,0,215.3c53,0,106.1,0,159.6,0C183.8,361,183.8,333.5,183.8,305.4z
		 M178.4,208.8c-9-9.9-17.3-19-26.2-28.7c0,10.2,0,19.4,0,28.7C160.8,208.8,169.1,208.8,178.4,208.8z"/>
	<path d="M97.1,362.9c-0.8-0.8-2.3-2.5-3.9-4.2c7.3-7.8,5.7-18.5,8.8-27.7c1.1-3.2,2.4-6.6,4.7-8.9c26.6-26.9,53.3-53.6,80-80.3
		c6.5-6.5,13.9-6.6,20.6-0.3c2.9,2.7,5.8,5.5,8.5,8.5c5.9,6.5,5.6,13.7-0.5,19.9c-27,27.1-54.1,54.2-81.2,81.2
		c-1.8,1.7-4.3,3-6.8,3.7c-5.5,1.4-11.1,2-16.6,3.4C106.3,359.2,102.2,361.1,97.1,362.9z M136.3,335.9
		c20.9-20.8,41.8-41.7,62.7-62.5c-1.3-1.4-2.8-3.1-5-5.7c-19.9,19.9-39.6,39.6-58.8,58.9c-2-1.5-3.9-2.9-6.3-4.7
		c20.2-20.2,39.8-39.8,58.8-58.7c-1.6-2.3-3.1-4.3-4.5-6.3c0.2,0.5,0.5,1.1,0.7,1.6c-20.9,20.8-41.9,41.6-62.5,62.1
		c0.6,0.1,2,0.4,3.8,0.8c0,3.7,0,7,0,10.7c3.8,0,7.2,0,10.6,0C135.9,333.7,136.1,335.1,136.3,335.9z M205.6,267.7
		c8.7-7.7,8.7-7.8,0.9-15.7c-0.7-0.7-1.4-1.4-2.1-2.1c-7.5-7.5-7.8-7.5-15,0.6c-0.2,0.2-0.2,0.6-0.3,1
		C194.5,256.8,200,262.1,205.6,267.7z M116.9,329.7c-0.5-0.5-0.9-1-1.4-1.6c-1.8,1.2-4.8,2.1-5.3,3.7c-1.8,5.9-2.7,12.1-4,19
		c6.1-1.2,11.6-2.6,17.1-3.3c4.7-0.6,5.8-2.9,4.2-7.5c-3.4,0-6.8,0-10.5,0C116.9,336.2,116.9,332.9,116.9,329.7z"/>
	<path d="M32.1,244.6c0-2.5,0-4.7,0-7.3c47.9,0,95.5,0,143.5,0c0,2.4,0,4.7,0,7.3C128,244.6,80.3,244.6,32.1,244.6z"/>
	<path d="M151.8,261.3c0,2.6,0,4.7,0,7.3c-39.7,0-79.4,0-119.5,0c0-2.2,0-4.6,0-7.3C71.9,261.3,111.6,261.3,151.8,261.3z"/>
	<path d="M135.8,189.3c0,2.7,0,4.8,0,7.4c-34.5,0-68.8,0-103.5,0c0-2.3,0-4.7,0-7.4C66.6,189.3,101,189.3,135.8,189.3z"/>
	<path d="M135.8,213.3c0,2.6,0,4.7,0,7.3c-34.4,0-68.7,0-103.5,0c0-2.2,0-4.6,0-7.3C66.6,213.3,100.9,213.3,135.8,213.3z"/>
	<path d="M32.1,292.6c0-2.5,0-4.8,0-7.4c31.9,0,63.6,0,95.5,0c0,2.5,0,4.7,0,7.4C96,292.6,64.3,292.6,32.1,292.6z"/>
	<path d="M32.1,316.6c0-2.5,0-4.8,0-7.3c23.9,0,47.6,0,71.5,0c0,2.4,0,4.7,0,7.3C80,316.6,56.3,316.6,32.1,316.6z"/>
	<path d="M91.7,333.2c0,2.5,0,4.8,0,7.4c-19.7,0-39.4,0-59.4,0c0-2.4,0-4.8,0-7.4C52,333.2,71.7,333.2,91.7,333.2z"/>
	<path d="M91.8,357.3c0,2.6,0,4.7,0,7.3c-19.8,0-39.5,0-59.5,0c0-2.2,0-4.6,0-7.3C51.9,357.3,71.6,357.3,91.8,357.3z"/>
	<path class="st0" d="M178.4,208.8c-9.4,0-17.6,0-26.2,0c0-9.3,0-18.5,0-28.7C161.1,189.8,169.4,198.9,178.4,208.8z"/>
	<path class="st0" d="M136.3,335.9c-0.1-0.8-0.3-2.2-0.5-3.8c-3.4,0-6.7,0-10.6,0c0-3.6,0-7,0-10.7c-1.8-0.4-3.2-0.6-3.8-0.8
		c20.7-20.5,41.6-41.3,62.5-62.1c-0.2-0.5-0.5-1.1-0.7-1.6c1.4,2,2.9,4,4.5,6.3c-18.9,18.9-38.5,38.5-58.8,58.7
		c2.4,1.8,4.2,3.1,6.3,4.7c19.2-19.2,38.9-38.9,58.8-58.9c2.2,2.5,3.8,4.2,5,5.7C178.1,294.2,157.1,315.1,136.3,335.9z"/>
	<path class="st0" d="M205.6,267.7c-5.7-5.6-11.1-10.9-16.5-16.2c0.1-0.4,0.1-0.8,0.3-1c7.2-8.1,7.4-8.1,15-0.6
		c0.7,0.7,1.4,1.4,2.1,2.1C214.4,259.9,214.4,260.1,205.6,267.7z"/>
	<path class="st0" d="M116.9,329.7c0,3.3,0,6.5,0,10.3c3.8,0,7.2,0,10.5,0c1.6,4.6,0.6,6.8-4.2,7.5c-5.5,0.7-10.9,2.1-17.1,3.3
		c1.4-6.8,2.3-13,4-19c0.5-1.6,3.5-2.5,5.3-3.7C115.9,328.6,116.4,329.1,116.9,329.7z"/>
</g>
</svg>
