<?xml version="1.0" encoding="utf-8"?>
<!-- Generator: Adobe Illustrator 19.1.1, SVG Export Plug-In . SVG Version: 6.00 Build 0)  -->
<svg version="1.1" id="Calque_1" xmlns="http://www.w3.org/2000/svg" xmlns:xlink="http://www.w3.org/1999/xlink" x="0px" y="0px"
	 viewBox="0 0 115.5 168.4" style="enable-background:new 0 0 115.5 168.4;" xml:space="preserve">
<style type="text/css">
	.st0{fill:none;stroke:#000000;stroke-width:2.0651;stroke-miterlimit:10;}
</style>
<path d="M104.5,12.5l-33,0l4.9-6.6c0.8-1.1,0.5-3-0.5-3.8c-1.1-0.8-3-0.6-3.8,0.6l-7.4,9.9l-13.5,0l-4.7-9.3
	c-0.5-1.4-2.2-1.9-3.6-1.1c-1.4,0.6-1.9,2.2-1.1,3.6l3.6,7.1l-34.4,0c-4.7,0-8.2,3.6-8.2,8.2l0,137.5c0,4.7,3.6,8.2,8.2,8.2l93.5,0
	c4.7,0,8.2-3.6,8.2-8.2l0-137.5C112.7,16.1,109.2,12.5,104.5,12.5z M107.2,158.3c0,1.7-1.1,2.7-2.7,2.7L11,161
	c-1.7,0-2.7-1.1-2.7-2.8l0-137.5c0-1.7,1.1-2.7,2.7-2.7l36.8,0l2.7,5.5c-2.2,1.9-3.8,4.9-3.8,8.2c0,6.1,4.9,11,11,11
	c6,0,11-4.9,11-11s-4.9-11-11-11c-0.8,0-1.7,0-2.2,0.3l-1.4-3l50.6,0c1.7,0,2.7,1.1,2.7,2.7l0,137.5H107.2z M53.1,28.7l2.2,4.1
	c0.5,1.1,1.4,1.7,2.5,1.7c0.3,0,0.8,0,1.1-0.3c1.4-0.6,1.9-2.2,1.1-3.6l-2.2-4.1C60.5,26.8,63,29,63,32c0,3-2.5,5.5-5.5,5.5
	c-3,0-5.5-2.5-5.5-5.5C52.2,30.7,52.5,29.6,53.1,28.7z"/>
<path d="M85.2,114.3l-55,0c-1.7,0-2.7,1.1-2.7,2.7s1.1,2.7,2.7,2.7l55,0c1.7,0,2.7-1.1,2.7-2.7C88,115.4,86.9,114.3,85.2,114.3z"/>
<path d="M85.2,128l-55,0c-1.7,0-2.7,1.1-2.7,2.7s1.1,2.7,2.7,2.7l55,0c1.7,0,2.7-1.1,2.7-2.7S86.9,128,85.2,128z"/>
<path d="M85.2,141.8l-55,0c-1.7,0-2.7,1.1-2.7,2.7s1.1,2.8,2.7,2.8l55,0c1.7,0,2.7-1.1,2.7-2.7S86.9,141.8,85.2,141.8z"/>
<g>
	<rect x="31.1" y="48.3" class="st0" width="53.3" height="55"/>
</g>
<g>
	<path d="M39.4,83.5h-1.8l0-15.5h1.8L39.4,83.5z"/>
	<path d="M56,83.5h-2.2l-8-12.4c-0.2-0.3-0.4-0.6-0.5-1h-0.1c0.1,0.3,0.1,1,0.1,2.1l0,11.2h-1.8l0-15.5h2.4l7.8,12.2
		c0.3,0.5,0.5,0.9,0.6,1h0c-0.1-0.4-0.1-1.2-0.1-2.3l0-10.9l1.8,0L56,83.5z"/>
	<path d="M69.2,69.6l-4.5,0l0,13.9l-1.8,0l0-13.9l-4.5,0v-1.6l10.8,0V69.6z"/>
	<path d="M79.9,83.5l-8.2,0l0-15.5l7.9,0v1.6l-6.1,0l0,5.2h5.6v1.6l-5.6,0l0,5.4l6.4,0L79.9,83.5z M78.3,63l-2.8,3.6l-1.4,0l2.4-3.6
		L78.3,63z"/>
</g>
</svg>
