<?xml version="1.0" encoding="utf-8"?>
<!-- Generator: Adobe Illustrator 19.1.1, SVG Export Plug-In . SVG Version: 6.00 Build 0)  -->
<svg version="1.1" id="Calque_1" xmlns="http://www.w3.org/2000/svg" xmlns:xlink="http://www.w3.org/1999/xlink" x="0px" y="0px"
	 viewBox="-421 196.6 115.5 168.4" style="enable-background:new -421 196.6 115.5 168.4;" xml:space="preserve">
<style type="text/css">
	.st0{fill:none;stroke:#000000;stroke-width:2.0651;stroke-miterlimit:10;}
</style>
<g>
	<path d="M-316.4,209.5h-33l4.9-6.6c0.8-1.1,0.5-3-0.5-3.8s-3-0.6-3.8,0.6l-7.4,9.9h-13.5l-4.7-9.3c-0.6-1.5-2.3-2-3.6-1.2
		c-1.4,0.5-2,2.2-1.1,3.6l3.6,7.1h-34.4c-4.7,0-8.2,3.6-8.2,8.2v137.5c0,4.7,3.6,8.2,8.2,8.2h93.5c4.7,0,8.2-3.6,8.2-8.2V218
		C-308.2,213.1-311.8,209.5-316.4,209.5z M-313.7,355.3c0,1.7-1.1,2.7-2.7,2.7h-93.5c-1.7,0-2.7-1.1-2.7-2.8V217.7
		c0-1.7,1.1-2.7,2.7-2.7h36.8l2.7,5.5c-2.2,1.9-3.8,4.9-3.8,8.2c0,6.1,4.9,11,11,11c6,0,11-4.9,11-11s-4.9-11-11-11
		c-0.8,0-1.7,0-2.2,0.3l-1.4-3h50.6c1.7,0,2.7,1.1,2.7,2.7v137.5L-313.7,355.3L-313.7,355.3z M-367.9,225.8l2.2,4.1
		c0.5,1.1,1.4,1.7,2.5,1.7c0.3,0,0.8,0,1.1-0.3c1.4-0.6,1.9-2.2,1.1-3.6l-2.2-4.1c2.7,0.3,5.2,2.5,5.2,5.5s-2.4,5.5-5.5,5.5
		c-3,0-5.5-2.5-5.5-5.5C-368.7,227.7-368.4,226.6-367.9,225.8z"/>
	<path d="M-335.7,311.3h-55c-1.7,0-2.7,1.1-2.7,2.7s1.1,2.7,2.7,2.7h55c1.7,0,2.7-1.1,2.7-2.7S-334,311.3-335.7,311.3z"/>
	<path d="M-335.7,325h-55c-1.7,0-2.7,1.1-2.7,2.7c0,1.6,1.1,2.7,2.7,2.7h55c1.7,0,2.7-1.1,2.7-2.7C-333,326.1-334,325-335.7,325z"/>
	<path d="M-335.7,338.8h-55c-1.7,0-2.7,1.1-2.7,2.7c0,1.7,1.1,2.7,2.7,2.8h55c1.7,0,2.7-1.1,2.7-2.7
		C-332.9,339.9-334,338.8-335.7,338.8z"/>
	<g>
		<rect x="-389.9" y="245.3" class="st0" width="53.3" height="55"/>
	</g>
	<g>
		<path d="M-381.4,281.5h-2v-17.4h2V281.5z"/>
		<path d="M-362.8,281.5h-2.5l-9-13.9c-0.2-0.3-0.4-0.7-0.6-1.1h-0.1c0.1,0.4,0.1,1.2,0.1,2.4v12.5h-2V264h2.6l8.7,13.6
			c0.4,0.6,0.6,1,0.7,1.2l0,0c-0.1-0.5-0.1-1.4-0.1-2.6V264h2L-362.8,281.5z"/>
		<path d="M-356.3,281.5h-2v-17.4h2V281.5z"/>
		<path d="M-341.4,266h-5v15.5h-2V266h-5v-1.8h12V266z"/>
	</g>
</g>
</svg>
