<?xml version="1.0" encoding="utf-8"?>
<!-- Generator: Adobe Illustrator 19.1.1, SVG Export Plug-In . SVG Version: 6.00 Build 0)  -->
<svg version="1.1" id="Calque_1" xmlns="http://www.w3.org/2000/svg" xmlns:xlink="http://www.w3.org/1999/xlink" x="0px" y="0px"
	 viewBox="0 0 234.7 164.7" style="enable-background:new 0 0 234.7 164.7;" xml:space="preserve">
<style type="text/css">
	.st0{fill:none;stroke:#000000;stroke-width:5.4154;stroke-miterlimit:10;}
	.st1{fill:none;stroke:#000000;stroke-width:2.4344;stroke-miterlimit:10;}
	.st2{fill:none;stroke:#000000;stroke-width:1.4432;stroke-miterlimit:10;}
</style>
<rect x="10.7" y="8.8" class="st0" width="216.6" height="147.6"/>
<rect x="140.8" y="56.8" class="st1" width="72.8" height="78.5"/>
<rect x="151.7" y="73" width="37.4" height="3.6"/>
<rect x="151.7" y="89.9" width="53.2" height="3.6"/>
<rect x="151.7" y="102.3" width="52.7" height="3.6"/>
<rect x="151.7" y="120.1" width="37.4" height="3.6"/>
<rect x="29.3" y="108.1" width="10.8" height="27.2"/>
<rect x="50.6" y="94.5" width="10.8" height="40.8"/>
<rect x="73" y="99.6" width="10.8" height="35.7"/>
<rect x="96.5" y="71.4" width="10.8" height="63.9"/>
<circle cx="56" cy="84.7" r="2.7"/>
<circle cx="34.7" cy="102" r="2.7"/>
<circle cx="78.4" cy="92.3" r="2.7"/>
<circle cx="101.8" cy="55.5" r="2.7"/>
<line class="st2" x1="34.7" y1="102" x2="56" y2="84.7"/>
<line class="st2" x1="101.8" y1="55.5" x2="78.4" y2="92.7"/>
<line class="st2" x1="56" y1="84.7" x2="78.4" y2="92.3"/>
<g>
	<path d="M212.9,31.6v-3l-3.5-0.6c-0.2-0.8-0.5-1.6-1-2.3l2.1-2.9l-2.1-2.1l-2.9,2.1c-0.7-0.4-1.5-0.8-2.4-1l-0.6-3.5l-3,0l-0.6,3.5
		c-0.8,0.2-1.6,0.5-2.4,1l-2.9-2.1l-2.1,2.1l2,2.9c-0.4,0.7-0.8,1.5-1,2.4l-3.5,0.6v3l3.5,0.6c0.2,0.8,0.5,1.6,1,2.4l-2.1,2.9
		l2.1,2.1l2.9-2c0.7,0.4,1.5,0.8,2.4,1l0.6,3.5h3l0.6-3.5c0.8-0.2,1.6-0.5,2.4-1l2.9,2.1l2.1-2.1l-2.1-2.9c0.4-0.7,0.8-1.5,1-2.3
		L212.9,31.6z M201,34.2c-2.3,0-4.1-1.9-4.1-4.1c0-2.3,1.9-4.1,4.1-4.1c2.3,0,4.1,1.9,4.1,4.1C205.2,32.4,203.3,34.2,201,34.2z"/>
</g>
<rect x="29.2" y="26.5" width="76.7" height="7.2"/>
</svg>
