<?xml version="1.0" encoding="utf-8"?>
<!-- Generator: Adobe Illustrator 19.1.1, SVG Export Plug-In . SVG Version: 6.00 Build 0)  -->
<svg version="1.1" id="Calque_1" xmlns="http://www.w3.org/2000/svg" xmlns:xlink="http://www.w3.org/1999/xlink" x="0px" y="0px"
	 viewBox="0 0 245 246" style="enable-background:new 0 0 245 246;" xml:space="preserve">
<style type="text/css">
	.st0{fill:none;}
</style>
<g>
	<path d="M49.7,57c0.7-10.8,4.7-15.9,12-16c7.5-0.1,11.6,4.9,12.5,15.7c2.4,0,4.8,0,7.2,0C83.2,45.3,87,40.8,94.4,41
		c7.1,0.2,10.7,4.8,12,15.7c10.4,0,20.8,0,31.2,0c1.2-11,5.1-15.8,12.5-15.7c7.5,0.1,11.5,5.2,12.1,15.6c2.4,0,4.8,0,5.9,0
		c2.4-4.7,4-9.3,6.9-13c1.4-1.8,5.1-2.5,7.7-2.5c7.1,0,10.7,5.2,11.5,15.8c4.7,0,9.5-0.1,14.3,0c6.5,0.1,9.4,3,9.4,9.5
		c0,41,0,82-0.1,123c0,2-1.1,4.5-2.6,6c-8.8,9.1-17.8,18.1-26.9,26.9c-1.5,1.4-4,2.5-6,2.5C133.6,225,84.8,225,36,225
		c-7.2,0-10-2.9-10-10c0-49.2,0-98.3,0-147.5C26,59.6,28.6,57,36.5,57C40.8,57,45.1,57,49.7,57z M209.8,97.3
		c-58.8,0-117.2,0-175.4,0c0,40.1,0,79.8,0,119.4c48,0,95.5,0,143.6,0c0-7.5,0-14.8,0-22.1c0-6.8,2.9-9.6,9.8-9.7c7.3,0,14.5,0,22,0
		C209.8,155.5,209.8,126.6,209.8,97.3z M194.4,65.2c-1.2,13.2-2.4,15.6-8.4,15.6c-4.2,0-9.9,0.5-12.3-1.8c-3.1-3.2-3.6-8.9-5.2-13.8
		c-1.4,0-3.7,0-5.9,0c-2,14.4-2.7,15.8-9.8,15.7c-3.9-0.1-9.3,0.3-11.2-2c-2.9-3.3-3.3-8.8-4.9-13.6c-9.6,0-20,0-30.3,0
		c-0.8,12.6-2.1,15.3-7.9,15.5c-4.2,0.1-8.9,0.2-12.6-1.5c-6-2.7-2.7-9.5-4.1-14.1c-2.7,0-4.9,0-7.2,0c-1.6,13.7-2.5,15.6-8.9,15.6
		c-4.1,0-9.6,0.5-11.8-1.8c-3.1-3.3-3.6-8.9-5.3-13.7c-4.2,0-9.2,0-14.1,0c0,8,0,15.6,0,23.2c58.7,0,117.1,0,175.4,0
		c0-8,0-15.6,0-23.4C204.6,65.2,199.6,65.2,194.4,65.2z M186.2,211.8c6.3-6.2,12.5-12.4,18.7-18.5c-5.9,0-12.2,0-18.7,0
		C186.2,199.9,186.2,206.1,186.2,211.8z M66,72.8c0-6.8,0.2-13.1-0.2-19.3c-0.1-1.6-2.3-3-3.6-4.5c-1.4,1.3-3.9,2.6-4,4
		C57.8,59.6,58,66.1,58,72.8C60.9,72.8,63.1,72.8,66,72.8z M98,72.8c0-6.7,0.2-13-0.2-19.3c-0.1-1.5-2.4-2.9-3.7-4.4
		c-1.4,1.4-3.8,2.7-3.9,4.1C89.8,59.6,90,66.1,90,72.8C92.8,72.8,95.1,72.8,98,72.8z M154,72.8c0-6.9,0.3-13.2-0.2-19.5
		c-0.1-1.5-2.5-2.9-3.8-4.3c-1.3,1.4-3.7,2.8-3.8,4.3c-0.4,6.4-0.2,12.9-0.2,19.5C148.9,72.8,151.1,72.8,154,72.8z M186,72.8
		c0-6.8,0.2-13.1-0.2-19.3c-0.1-1.6-2.3-3-3.6-4.5c-1.4,1.3-3.9,2.6-4,4c-0.4,6.5-0.2,13.1-0.2,19.8C180.9,72.8,183.1,72.8,186,72.8
		z"/>
	<path class="st0" d="M186,72.8c0-6.8,0.2-13.1-0.2-19.3c-0.1-1.6-2.3-3-3.6-4.5c-1.4,1.3-3.9,2.6-4,4c-0.4,6.5-0.2,13.1-0.2,19.8
		H186z"/>
	<path d="M146,161c0,8.9,0,17,0,25.2c0,5.9-0.8,6.8-6.5,6.8c-25,0-50-0.1-74.9,0.1c-4.6,0-6.6-1.5-6.6-6.4c0.1-19.8,0.1-39.6,0-59.5
		c0-4.4,1.5-6.3,6.1-6.3c38.6,0.1,77.3,0.1,115.9,0c4.2,0,6.1,1.5,6.1,5.8c-0.1,9.5-0.1,19,0,28.5c0.1,4.4-2,5.9-6.1,5.8
		C168.8,160.9,157.7,161,146,161z M97.8,129.4c-10.8,0-21.1,0-31.4,0c0,8.1,0,15.8,0,23.4c10.7,0,20.9,0,31.4,0
		C97.8,144.9,97.8,137.3,97.8,129.4z M137.9,129.3c-10.8,0-21.2,0-31.6,0c0,8,0,15.7,0,23.3c10.7,0,21.1,0,31.6,0
		C137.9,144.7,137.9,137.3,137.9,129.3z M177.8,129.3c-10.7,0-21.1,0-31.4,0c0,8,0,15.8,0,23.4c10.6,0,20.9,0,31.4,0
		C177.8,144.9,177.8,137.3,177.8,129.3z M66.4,161.2c0,8.2,0,15.9,0,23.6c10.6,0,20.9,0,31.3,0c0-8,0-15.7,0-23.6
		C87.2,161.2,76.9,161.2,66.4,161.2z M137.8,161.3c-10.7,0-21.1,0-31.4,0c0,8.1,0,15.8,0,23.4c10.6,0,20.9,0,31.4,0
		C137.8,176.9,137.8,169.3,137.8,161.3z"/>
</g>
</svg>
