<?xml version="1.0" encoding="utf-8"?>
<!-- Generator: Adobe Illustrator 19.1.1, SVG Export Plug-In . SVG Version: 6.00 Build 0)  -->
<svg version="1.1" id="Calque_1" xmlns="http://www.w3.org/2000/svg" xmlns:xlink="http://www.w3.org/1999/xlink" x="0px" y="0px"
	 viewBox="0 0 202.3 192" style="enable-background:new 0 0 202.3 192;" xml:space="preserve">
<style type="text/css">
	.st0{fill:#FFFFFF;}
</style>
<g>
	<path class="st0" d="M30.3,19c-4.7,0-9,0-13.3,0C9.1,19,6.5,21.6,6.5,29.5c0,49.2,0,98.3,0,147.5c0,7.1,2.8,10,10,10
		c48.8,0,97.7,0,146.5-0.1c2,0,4.5-1.1,6-2.5c9.1-8.8,18.1-17.8,26.9-26.9c1.4-1.5,2.5-4,2.6-6c0.2-41,0.1-82,0.1-123
		c0-6.5-2.9-9.4-9.4-9.5c-4.8-0.1-9.6,0-14.3,0C174,8.4,170.3,3.2,163.3,3.2c-2.6,0-6.3,0.7-7.7,2.5c-2.9,3.7-4.5,8.3-6.9,13
		c-1.2,0-3.6,0-5.9,0C142.1,8.2,138.1,3.1,130.6,3c-7.4-0.1-11.3,4.8-12.5,15.7c-10.4,0-20.8,0-31.2,0C85.6,7.8,82,3.3,74.9,3
		C67.5,2.8,63.7,7.3,62,18.7c-2.4,0-4.8,0-7.2,0C53.9,7.9,49.8,2.9,42.3,3C34.9,3.1,31,8.2,30.3,19z"/>
	<path d="M30.3,19C31,8.2,34.9,3.1,42.3,3c7.5-0.1,11.6,4.9,12.5,15.7c2.4,0,4.8,0,7.2,0C63.7,7.3,67.5,2.8,74.9,3
		C82,3.3,85.6,7.8,87,18.7c10.4,0,20.8,0,31.2,0c1.2-11,5.1-15.8,12.5-15.7c7.5,0.1,11.5,5.2,12.1,15.6c2.4,0,4.8,0,5.9,0
		c2.4-4.7,4-9.3,6.9-13c1.4-1.8,5.1-2.5,7.7-2.5c7.1,0,10.7,5.2,11.5,15.8c4.7,0,9.5-0.1,14.3,0c6.5,0.1,9.4,3,9.4,9.5
		c0,41,0,82-0.1,123c0,2-1.1,4.5-2.6,6c-8.8,9.1-17.8,18.1-26.9,26.9c-1.5,1.4-4,2.5-6,2.5C114.1,187,65.3,187,16.5,187
		c-7.2,0-10-2.9-10-10c0-49.2,0-98.3,0-147.5C6.5,21.6,9.1,19,17,19C21.3,19,25.6,19,30.3,19z M190.3,59.3c-58.8,0-117.2,0-175.4,0
		c0,40.1,0,79.8,0,119.4c48,0,95.5,0,143.6,0c0-7.5,0-14.8,0-22.1c0-6.8,2.9-9.6,9.8-9.7c7.3,0,14.5,0,22,0
		C190.3,117.5,190.3,88.6,190.3,59.3z M174.9,27.2c-1.2,13.2-2.4,15.6-8.4,15.6c-4.2,0-9.9,0.5-12.3-1.8c-3.1-3.2-3.6-8.9-5.2-13.8
		c-1.4,0-3.7,0-5.9,0c-2,14.4-2.7,15.8-9.8,15.7c-3.9-0.1-9.3,0.3-11.2-2c-2.9-3.3-3.3-8.8-4.9-13.6c-9.6,0-20,0-30.3,0
		c-0.8,12.6-2.1,15.3-7.9,15.5c-4.2,0.1-8.9,0.2-12.6-1.5c-6-2.7-2.7-9.5-4.1-14.1c-2.7,0-4.9,0-7.2,0C53.4,41,52.5,42.9,46,42.9
		c-4.1,0-9.6,0.5-11.8-1.8c-3.1-3.3-3.6-8.9-5.3-13.7c-4.2,0-9.2,0-14.1,0c0,8,0,15.6,0,23.2c58.7,0,117.1,0,175.4,0
		c0-8,0-15.6,0-23.4C185.1,27.2,180.1,27.2,174.9,27.2z M166.7,173.8c6.3-6.2,12.5-12.4,18.7-18.5c-5.9,0-12.2,0-18.7,0
		C166.7,161.9,166.7,168.1,166.7,173.8z M46.5,34.8c0-6.8,0.2-13.1-0.2-19.3c-0.1-1.6-2.3-3-3.6-4.5c-1.4,1.3-3.9,2.6-4,4
		c-0.4,6.5-0.2,13.1-0.2,19.8C41.4,34.8,43.6,34.8,46.5,34.8z M78.5,34.8c0-6.7,0.2-13-0.2-19.3c-0.1-1.5-2.4-2.9-3.7-4.4
		c-1.4,1.4-3.8,2.7-3.9,4.1c-0.4,6.4-0.2,12.9-0.2,19.6C73.3,34.8,75.6,34.8,78.5,34.8z M134.5,34.8c0-6.9,0.3-13.2-0.2-19.5
		c-0.1-1.5-2.5-2.9-3.8-4.3c-1.3,1.4-3.7,2.8-3.8,4.3c-0.4,6.4-0.2,12.9-0.2,19.5C129.4,34.8,131.6,34.8,134.5,34.8z M166.5,34.8
		c0-6.8,0.2-13.1-0.2-19.3c-0.1-1.6-2.3-3-3.6-4.5c-1.4,1.3-3.9,2.6-4,4c-0.4,6.5-0.2,13.1-0.2,19.8
		C161.4,34.8,163.6,34.8,166.5,34.8z"/>
	<path class="st0" d="M190.3,59.3c0,29.3,0,58.2,0,87.7c-7.5,0-14.7,0-22,0c-6.9,0-9.7,2.8-9.8,9.7c0,7.3,0,14.6,0,22.1
		c-48.1,0-95.7,0-143.6,0c0-39.7,0-79.4,0-119.4C73.1,59.3,131.5,59.3,190.3,59.3z M126.5,123c11.7,0,22.8-0.1,33.9,0
		c4.1,0,6.2-1.4,6.1-5.8c-0.1-9.5-0.1-19,0-28.5c0.1-4.3-1.9-5.8-6.1-5.8c-38.6,0.1-77.3,0.1-115.9,0c-4.6,0-6.1,1.9-6.1,6.3
		c0.1,19.8,0.1,39.6,0,59.5c0,4.8,2,6.4,6.6,6.4c25-0.1,50,0,74.9-0.1c5.7,0,6.5-0.9,6.5-6.8C126.5,140.1,126.5,131.9,126.5,123z"/>
	<path class="st0" d="M174.9,27.2c5.3,0,10.2,0,15.4,0c0,7.8,0,15.4,0,23.4c-58.4,0-116.7,0-175.4,0c0-7.6,0-15.2,0-23.2
		c4.9,0,10,0,14.1,0c1.7,4.8,2.2,10.5,5.3,13.7c2.2,2.3,7.7,1.8,11.8,1.8c6.4,0,7.3-1.9,8.9-15.6c2.2,0,4.5,0,7.2,0
		c1.4,4.6-1.9,11.4,4.1,14.1c3.7,1.7,8.4,1.6,12.6,1.5c5.8-0.2,7.1-2.9,7.9-15.5c10.4,0,20.8,0,30.3,0c1.6,4.8,2,10.3,4.9,13.6
		c2,2.2,7.4,1.9,11.2,2c7.1,0.2,7.8-1.2,9.8-15.7c2.2,0,4.5,0,5.9,0c1.7,4.9,2.1,10.7,5.2,13.8c2.3,2.4,8.1,1.9,12.3,1.8
		C172.5,42.8,173.6,40.5,174.9,27.2z"/>
	<path class="st0" d="M166.7,173.8c0-5.7,0-11.9,0-18.5c6.5,0,12.8,0,18.7,0C179.3,161.4,173,167.6,166.7,173.8z"/>
	<path class="st0" d="M46.5,34.8c-2.9,0-5.1,0-8,0c0-6.7-0.2-13.3,0.2-19.8c0.1-1.4,2.6-2.6,4-4c1.2,1.5,3.5,2.9,3.6,4.5
		C46.7,21.8,46.5,28.1,46.5,34.8z"/>
	<path class="st0" d="M78.5,34.8c-2.9,0-5.2,0-7.9,0c0-6.7-0.2-13.1,0.2-19.6c0.1-1.5,2.6-2.8,3.9-4.1c1.3,1.5,3.6,2.9,3.7,4.4
		C78.7,21.8,78.5,28.1,78.5,34.8z"/>
	<path class="st0" d="M134.5,34.8c-2.9,0-5.1,0-8,0c0-6.6-0.2-13.1,0.2-19.5c0.1-1.5,2.5-2.9,3.8-4.3c1.3,1.4,3.7,2.8,3.8,4.3
		C134.7,21.6,134.5,28,134.5,34.8z"/>
	<path class="st0" d="M166.5,34.8c-2.8,0-5.1,0-8,0c0-6.7-0.2-13.3,0.2-19.8c0.1-1.4,2.6-2.7,4-4c1.3,1.5,3.5,2.9,3.6,4.5
		C166.7,21.8,166.5,28,166.5,34.8z"/>
	<path d="M126.5,123c0,8.9,0,17,0,25.2c0,5.9-0.8,6.8-6.5,6.8c-25,0-50-0.1-74.9,0.1c-4.6,0-6.6-1.5-6.6-6.4
		c0.1-19.8,0.1-39.6,0-59.5c0-4.4,1.5-6.3,6.1-6.3c38.6,0.1,77.3,0.1,115.9,0c4.2,0,6.1,1.5,6.1,5.8c-0.1,9.5-0.1,19,0,28.5
		c0.1,4.4-2,5.9-6.1,5.8C149.3,122.9,138.2,123,126.5,123z M78.3,91.4c-10.8,0-21.1,0-31.4,0c0,8.1,0,15.8,0,23.4
		c10.7,0,20.9,0,31.4,0C78.3,106.9,78.3,99.3,78.3,91.4z M118.4,91.3c-10.8,0-21.2,0-31.6,0c0,8,0,15.7,0,23.3c10.7,0,21.1,0,31.6,0
		C118.4,106.7,118.4,99.3,118.4,91.3z M158.3,91.3c-10.7,0-21.1,0-31.4,0c0,8,0,15.8,0,23.4c10.6,0,20.9,0,31.4,0
		C158.3,106.9,158.3,99.3,158.3,91.3z M46.9,123.2c0,8.2,0,15.9,0,23.6c10.6,0,20.9,0,31.3,0c0-8,0-15.7,0-23.6
		C67.7,123.2,57.4,123.2,46.9,123.2z M118.3,123.3c-10.7,0-21.1,0-31.4,0c0,8.1,0,15.8,0,23.4c10.6,0,20.9,0,31.4,0
		C118.3,138.9,118.3,131.3,118.3,123.3z"/>
	<path class="st0" d="M78.3,91.4c0,7.9,0,15.5,0,23.4c-10.5,0-20.7,0-31.4,0c0-7.6,0-15.3,0-23.4C57.1,91.4,67.5,91.4,78.3,91.4z"/>
	<path class="st0" d="M118.4,91.3c0,8,0,15.4,0,23.3c-10.5,0-20.8,0-31.6,0c0-7.6,0-15.3,0-23.3C97.2,91.3,107.6,91.3,118.4,91.3z"
		/>
	<path class="st0" d="M158.3,91.3c0,8,0,15.6,0,23.4c-10.5,0-20.7,0-31.4,0c0-7.7,0-15.4,0-23.4C137.2,91.3,147.6,91.3,158.3,91.3z"
		/>
	<path class="st0" d="M46.9,123.2c10.5,0,20.8,0,31.3,0c0,7.9,0,15.6,0,23.6c-10.5,0-20.7,0-31.3,0
		C46.9,139.1,46.9,131.4,46.9,123.2z"/>
	<path class="st0" d="M118.3,123.3c0,8,0,15.6,0,23.4c-10.5,0-20.7,0-31.4,0c0-7.7,0-15.4,0-23.4
		C97.2,123.3,107.5,123.3,118.3,123.3z"/>
</g>
</svg>
