<?xml version="1.0" encoding="utf-8"?>
<!-- Generator: Adobe Illustrator 19.1.1, SVG Export Plug-In . SVG Version: 6.00 Build 0)  -->
<svg version="1.1" id="Capa_1" xmlns="http://www.w3.org/2000/svg" xmlns:xlink="http://www.w3.org/1999/xlink" x="0px" y="0px"
	 viewBox="-223 25 512 512" style="enable-background:new -223 25 512 512;" xml:space="preserve">
<style type="text/css">
	.st0{fill:#333366;}
</style>
<g>
	<g>
		<path class="st0" d="M275.8,110.6l-72.4-72.4c-8.5-8.5-19.8-13.2-31.8-13.2c-8.9,0-248.8,0-259.6,0h-90c-24.8,0-45,20.2-45,45v422
			c0,24.8,20.2,45,45,45c22.2,0,404.6,0,422,0c24.8,0,45-20.2,45-45V142.4C289,130.4,284.3,119.1,275.8,110.6z M-73,55H79v75
			c0,8.3,6.7,15,15,15s15-6.7,15-15V55h30v105c0,8.3-6.7,15-15,15H-58c-8.3,0-15-6.7-15-15V55z M169,507h-272V357h272V507z M169,327
			h-272v-15c0-8.3,6.7-15,15-15h242c8.3,0,15,6.7,15,15V327z M259,492c0,8.3-6.7,15-15,15h-45V312c0-24.8-20.2-45-45-45H-88
			c-24.8,0-45,20.2-45,45v195h-45c-8.3,0-15-6.7-15-15V70c0-8.3,6.7-15,15-15h75v105c0,24.8,20.2,45,45,45h182c24.8,0,45-20.2,45-45
			V55h2.6c4,0,7.8,1.6,10.6,4.4l72.4,72.4c2.8,2.8,4.4,6.6,4.4,10.6V492z"/>
	</g>
</g>
</svg>
