<?xml version="1.0" encoding="utf-8"?>
<!-- Generator: Adobe Illustrator 19.1.1, SVG Export Plug-In . SVG Version: 6.00 Build 0)  -->
<svg version="1.1" id="Layer_1" xmlns="http://www.w3.org/2000/svg" xmlns:xlink="http://www.w3.org/1999/xlink" x="0px" y="0px"
	 viewBox="-75 246 117 80" style="enable-background:new -75 246 117 80;" xml:space="preserve">
<style type="text/css">
	.st0{fill:#333366;}
</style>
<g>
	<g>
		<g>
			<path d="M-1132.5,1631c-8,0-14.5,6.5-14.5,14.5s6.5,14.5,14.5,14.5s14.5-6.5,14.5-14.5S-1124.5,1631-1132.5,1631z"/>
			<path d="M-1420.5,1631c-8,0-14.5,6.5-14.5,14.5s6.5,14.5,14.5,14.5s14.5-6.5,14.5-14.5S-1412.5,1631-1420.5,1631z"/>
			<path d="M-1071.7,1536.3l-55.2-24.5l-40.4-87.5c-5.1-11.1-16.4-18.3-28.6-18.3h-296.6c-13,0-23.5,10.5-23.5,23.5v200
				c0,13,10.5,23.5,23.5,23.5h25.1c3.6,22.6,23.3,40,46.9,40s43.3-17.4,46.9-40h194.2c3.6,22.6,23.3,40,46.9,40
				c23.6,0,43.3-17.4,46.9-40h9.1c13,0,23.5-10.5,23.5-23.5v-64.4C-1053,1552.7-1060.3,1541.4-1071.7,1536.3z M-1166.8,1461l22.6,49
				h-68.8v-49H-1166.8z M-1420.5,1678c-17.9,0-32.5-14.6-32.5-32.5s14.6-32.5,32.5-32.5s32.5,14.6,32.5,32.5
				S-1402.6,1678-1420.5,1678z M-1132.5,1678c-17.9,0-32.5-14.6-32.5-32.5s14.6-32.5,32.5-32.5s32.5,14.6,32.5,32.5
				S-1114.6,1678-1132.5,1678z M-1068,1606h-8.5c-4.1,0-7.5,3.4-7.5,7.5s3.4,7.5,7.5,7.5h8.5v8.5c0,4.7-3.8,8.5-8.5,8.5h-9.1
				c-3.6-22.6-23.3-40-46.9-40s-43.3,17.4-46.9,40h-194.2c-3.6-22.6-23.3-40-46.9-40s-43.3,17.4-46.9,40h-25.1
				c-4.7,0-8.5-3.8-8.5-8.5v-8.5h24.5c4.1,0,7.5-3.4,7.5-7.5s-3.4-7.5-7.5-7.5h-24.5v-176.5c0-4.7,3.8-8.5,8.5-8.5h296.6
				c6.4,0,12.3,3.8,15,9.6l7.1,15.4h-70.7c-8.5,0-15.5,7-15.5,15.5v32c0,17.4,14.1,31.5,31.5,31.5h94.4l46.6,20.7l-1.2,0.7
				c-7,4.2-11.3,11.9-11.3,20.1v15c0,4.1,3.4,7.5,7.5,7.5h24.5V1606L-1068,1606z M-1228,1461v49h-0.5c-9.1,0-16.5-7.4-16.5-16.5v-32
				c0-0.3,0.2-0.5,0.5-0.5H-1228z M-1068,1574h-17v-7.5c0-3,1.6-5.7,4.1-7.3l8.6-5.2c2.7,3,4.3,6.9,4.3,11.1V1574L-1068,1574z"/>
			<path d="M-1188.5,1606h-176c-4.1,0-7.5,3.4-7.5,7.5s3.4,7.5,7.5,7.5h176c4.1,0,7.5-3.4,7.5-7.5S-1184.4,1606-1188.5,1606z"/>
		</g>
	</g>
</g>
<rect x="-1470.3" y="1432" width="42.5" height="44"/>
<rect x="-1470.3" y="1487" width="42.5" height="44"/>
<rect x="-1413.3" y="1487" width="42.5" height="44"/>
<rect x="-1413.3" y="1432" width="42.5" height="44"/>
<rect x="-1470.3" y="1542" width="99.5" height="40"/>
<rect x="-1355.5" y="1432" width="40" height="150"/>
<g>
	<g>
		<g>
			<path class="st0" d="M16.5,306.7c-1.7,0-3.1,1.4-3.1,3.1s1.4,3.1,3.1,3.1s3.1-1.4,3.1-3.1S18.2,306.7,16.5,306.7z"/>
			<path class="st0" d="M-46,306.7c-1.7,0-3.1,1.4-3.1,3.1s1.4,3.1,3.1,3.1s3.1-1.4,3.1-3.1S-44.3,306.7-46,306.7z"/>
			<path class="st0" d="M29.7,286.1l-12-5.3l-8.8-19c-1.1-2.4-3.5-4-6.2-4h-64.4c-2.8,0-5.1,2.3-5.1,5.1v43.4c0,2.8,2.3,5.1,5.1,5.1
				h5.4c0.8,4.9,5,8.7,10.2,8.7s9.4-3.8,10.2-8.7H6.3c0.8,4.9,5,8.7,10.2,8.7s9.4-3.8,10.2-8.7h2c2.8,0,5.1-2.3,5.1-5.1v-14
				C33.7,289.7,32.1,287.2,29.7,286.1z M9,269.8l4.9,10.6H-1v-10.6H9z M-46,316.9c-3.9,0-7.1-3.2-7.1-7.1c0-3.9,3.2-7.1,7.1-7.1
				s7.1,3.2,7.1,7.1C-39,313.7-42.2,316.9-46,316.9z M16.5,316.9c-3.9,0-7.1-3.2-7.1-7.1s3.2-7.1,7.1-7.1s7.1,3.2,7.1,7.1
				C23.5,313.7,20.3,316.9,16.5,316.9z M30.5,301.3h-1.8c-0.9,0-1.6,0.7-1.6,1.6c0,0.9,0.7,1.6,1.6,1.6h1.8v1.8c0,1-0.8,1.8-1.8,1.8
				h-2c-0.8-4.9-5-8.7-10.2-8.7s-9.4,3.8-10.2,8.7h-42.1c-0.8-4.9-5-8.7-10.2-8.7s-9.4,3.8-10.2,8.7h-5.4c-1,0-1.8-0.8-1.8-1.8v-1.8
				h5.3c0.9,0,1.6-0.7,1.6-1.6c0-0.9-0.7-1.6-1.6-1.6h-5.3V263c0-1,0.8-1.8,1.8-1.8H2.7c1.4,0,2.7,0.8,3.3,2.1l1.5,3.3H-7.8
				c-1.9,0-3.4,1.5-3.4,3.4v6.9c0,3.8,3.1,6.8,6.8,6.8h20.5l10.1,4.5l-0.3,0.2c-1.5,0.9-2.5,2.6-2.5,4.4v3.3c0,0.9,0.7,1.6,1.6,1.6
				h5.3V301.3z M-4.3,269.8v10.6h-0.1c-2,0-3.6-1.6-3.6-3.6v-6.9c0-0.1,0-0.1,0.1-0.1H-4.3z M30.5,294.3h-3.7v-1.6
				c0-0.6,0.3-1.2,0.9-1.6l1.9-1.1c0.6,0.6,0.9,1.5,0.9,2.4V294.3z"/>
			<path class="st0" d="M4.3,301.3h-38.2c-0.9,0-1.6,0.7-1.6,1.6c0,0.9,0.7,1.6,1.6,1.6H4.3c0.9,0,1.6-0.7,1.6-1.6
				C5.9,302,5.2,301.3,4.3,301.3z"/>
		</g>
	</g>
</g>
<rect x="-56.8" y="263.5" class="st0" width="9.2" height="9.5"/>
<rect x="-56.8" y="275.4" class="st0" width="9.2" height="9.5"/>
<rect x="-44.5" y="275.4" class="st0" width="9.2" height="9.5"/>
<rect x="-44.5" y="263.5" class="st0" width="9.2" height="9.5"/>
<rect x="-56.8" y="287.4" class="st0" width="21.6" height="8.7"/>
<rect x="-31.9" y="263.5" class="st0" width="8.7" height="32.6"/>
</svg>
