<?xml version="1.0" encoding="utf-8"?>
<!-- Generator: Adobe Illustrator 19.1.1, SVG Export Plug-In . SVG Version: 6.00 Build 0)  -->
<svg version="1.1" id="Calque_1" xmlns="http://www.w3.org/2000/svg" xmlns:xlink="http://www.w3.org/1999/xlink" x="0px" y="0px"
	 viewBox="0 0 153.6 89.6" style="enable-background:new 0 0 153.6 89.6;" xml:space="preserve">
<style type="text/css">
	.st0{fill:#FFFFFF;}
	.st1{fill:#1473E6;stroke:#1473E6;}
</style>
<g>
	<path class="st0" d="M88.5,87.5h-24c-20.4,0-37-16.6-37-37v-10c0-20.4,16.6-37,37-37h24c20.4,0,37,16.6,37,37v10
		C125.5,70.9,108.9,87.5,88.5,87.5z"/>
	<path class="st1" d="M90.2,14.1l-7.6,0c-8.6,0-14.1,5.7-14.1,14.5v6.7h-7.7c-0.7,0-1.2,0.5-1.2,1.2v9.7c0,0.7,0.5,1.2,1.2,1.2h7.7
		v24.4c0,0.7,0.5,1.2,1.2,1.2h10c0.7,0,1.2-0.5,1.2-1.2V47.3h9c0.7,0,1.2-0.5,1.2-1.2l0-9.7c0-0.3-0.1-0.6-0.4-0.8
		c-0.2-0.2-0.5-0.4-0.8-0.4h-9v-5.7c0-2.7,0.6-4.1,4.2-4.1l5.1,0c0.7,0,1.2-0.5,1.2-1.2v-9C91.4,14.6,90.8,14.1,90.2,14.1z"/>
</g>
</svg>
