<?xml version="1.0" encoding="utf-8"?>
<!-- Generator: Adobe Illustrator 19.1.1, SVG Export Plug-In . SVG Version: 6.00 Build 0)  -->
<svg version="1.1" id="Calque_1" xmlns="http://www.w3.org/2000/svg" xmlns:xlink="http://www.w3.org/1999/xlink" x="0px" y="0px"
	 viewBox="292 68 308 422" style="enable-background:new 292 68 308 422;" xml:space="preserve">
<style type="text/css">
	.st0{fill:#FFFFFF;stroke:#000000;stroke-miterlimit:10;}
	.st1{fill:none;stroke:#FFFFFF;stroke-width:2;stroke-miterlimit:10;}
	.st2{fill:#FFFFFF;}
	.st3{opacity:0.3;clip-path:url(#SVGID_2_);fill:none;stroke:#333366;stroke-miterlimit:10;enable-background:new    ;}
	.st4{opacity:0.3;clip-path:url(#SVGID_4_);fill:none;stroke:#333366;stroke-miterlimit:10;enable-background:new    ;}
	.st5{opacity:0.3;clip-path:url(#SVGID_6_);fill:none;stroke:#333366;stroke-miterlimit:10;enable-background:new    ;}
	.st6{opacity:0.3;clip-path:url(#SVGID_8_);fill:none;stroke:#333366;stroke-miterlimit:10;enable-background:new    ;}
	.st7{opacity:0.3;clip-path:url(#SVGID_10_);fill:none;stroke:#333366;stroke-miterlimit:10;enable-background:new    ;}
	.st8{opacity:0.3;clip-path:url(#SVGID_12_);fill:none;stroke:#333366;stroke-miterlimit:10;enable-background:new    ;}
	.st9{opacity:0.3;clip-path:url(#SVGID_14_);fill:none;stroke:#333366;stroke-miterlimit:10;enable-background:new    ;}
	.st10{opacity:0.3;clip-path:url(#SVGID_16_);fill:none;stroke:#333366;stroke-miterlimit:10;enable-background:new    ;}
	.st11{fill:none;stroke:#000000;stroke-miterlimit:10;}
	.st12{fill:#FFFFFF;stroke:#000000;stroke-width:0.9777;stroke-miterlimit:10;}
</style>
<polygon class="st0" points="92,31.2 93.3,31.2 93.3,31.2 "/>
<line class="st1" x1="144" y1="107" x2="144" y2="106"/>
<g>
	<path id="XMLID_1_" class="st2" d="M574.5,477.5H309.1V83.3h265.5c5.5,0,10,4.5,10,10v374.2C584.5,473,580.1,477.5,574.5,477.5z"/>
</g>
<g>
	<defs>
		<path id="SVGID_1_" d="M574.5,477.5H309.1V83.3h265.5c5.5,0,10,4.5,10,10v374.2C584.5,473,580.1,477.5,574.5,477.5z"/>
	</defs>
	<clipPath id="SVGID_2_">
		<use xlink:href="#SVGID_1_"  style="overflow:visible;"/>
	</clipPath>
	<line class="st3" x1="364.5" y1="83" x2="364.5" y2="478"/>
</g>
<g>
	<defs>
		<path id="SVGID_3_" d="M574.5,477.5H309.1V83.3h265.5c5.5,0,10,4.5,10,10v374.2C584.5,473,580.1,477.5,574.5,477.5z"/>
	</defs>
	<clipPath id="SVGID_4_">
		<use xlink:href="#SVGID_3_"  style="overflow:visible;"/>
	</clipPath>
	<line class="st4" x1="392.5" y1="83" x2="392.5" y2="478"/>
</g>
<g>
	<defs>
		<path id="SVGID_5_" d="M574.5,477.5H309.1V83.3h265.5c5.5,0,10,4.5,10,10v374.2C584.5,473,580.1,477.5,574.5,477.5z"/>
	</defs>
	<clipPath id="SVGID_6_">
		<use xlink:href="#SVGID_5_"  style="overflow:visible;"/>
	</clipPath>
	<line class="st5" x1="419.5" y1="83" x2="419.5" y2="478"/>
</g>
<g>
	<defs>
		<path id="SVGID_7_" d="M574.5,477.5H309.1V83.3h265.5c5.5,0,10,4.5,10,10v374.2C584.5,473,580.1,477.5,574.5,477.5z"/>
	</defs>
	<clipPath id="SVGID_8_">
		<use xlink:href="#SVGID_7_"  style="overflow:visible;"/>
	</clipPath>
	<line class="st6" x1="447.5" y1="83" x2="447.5" y2="478"/>
</g>
<g>
	<defs>
		<path id="SVGID_9_" d="M574.5,477.5H309.1V83.3h265.5c5.5,0,10,4.5,10,10v374.2C584.5,473,580.1,477.5,574.5,477.5z"/>
	</defs>
	<clipPath id="SVGID_10_">
		<use xlink:href="#SVGID_9_"  style="overflow:visible;"/>
	</clipPath>
	<line class="st7" x1="474.5" y1="83" x2="474.5" y2="478"/>
</g>
<g>
	<defs>
		<path id="SVGID_11_" d="M574.5,477.5H309.1V83.3h265.5c5.5,0,10,4.5,10,10v374.2C584.5,473,580.1,477.5,574.5,477.5z"/>
	</defs>
	<clipPath id="SVGID_12_">
		<use xlink:href="#SVGID_11_"  style="overflow:visible;"/>
	</clipPath>
	<line class="st8" x1="502.5" y1="83" x2="502.5" y2="478"/>
</g>
<g>
	<defs>
		<path id="SVGID_13_" d="M574.5,477.5H309.1V83.3h265.5c5.5,0,10,4.5,10,10v374.2C584.5,473,580.1,477.5,574.5,477.5z"/>
	</defs>
	<clipPath id="SVGID_14_">
		<use xlink:href="#SVGID_13_"  style="overflow:visible;"/>
	</clipPath>
	<line class="st9" x1="529.5" y1="83" x2="529.5" y2="478"/>
</g>
<g>
	<defs>
		<path id="SVGID_15_" d="M574.5,477.5H309.1V83.3h265.5c5.5,0,10,4.5,10,10v374.2C584.5,473,580.1,477.5,574.5,477.5z"/>
	</defs>
	<clipPath id="SVGID_16_">
		<use xlink:href="#SVGID_15_"  style="overflow:visible;"/>
	</clipPath>
	<line class="st10" x1="557.5" y1="83" x2="557.5" y2="478"/>
</g>
<g>
	<path id="XMLID_2_" class="st11" d="M574.5,477.5H309.1V83.3h265.5c5.5,0,10,4.5,10,10v374.2C584.5,473,580.1,477.5,574.5,477.5z"
		/>
</g>
<rect x="309.1" y="83.3" width="28.9" height="394.2"/>
<rect x="458.7" y="158.6" class="st12" width="125.8" height="62.6"/>
<g>
	<path d="M482.2,180.6H474v7.3h7.6v2.2H474v9.3h-2.5v-21h10.7V180.6z"/>
	<path d="M495.5,199.4h-2.4V197H493c-1,1.8-2.6,2.7-4.6,2.7c-1.5,0-2.7-0.4-3.5-1.2s-1.3-1.8-1.3-3.1c0-2.8,1.7-4.4,5-4.9l4.5-0.6
		c0-2.5-1-3.8-3.1-3.8c-1.8,0-3.4,0.6-4.9,1.8v-2.5c1.5-0.9,3.2-1.4,5.1-1.4c3.5,0,5.3,1.9,5.3,5.6V199.4z M493.1,191.8l-3.6,0.5
		c-1.1,0.2-2,0.4-2.5,0.8s-0.8,1.1-0.8,2.1c0,0.7,0.3,1.3,0.8,1.8s1.2,0.7,2.1,0.7c1.2,0,2.2-0.4,3-1.3s1.2-1.9,1.2-3.2v-1.4H493.1z
		"/>
	<path d="M510.3,198.7c-1.2,0.7-2.5,1-4.1,1c-2.1,0-3.9-0.7-5.2-2.1s-2-3.2-2-5.4c0-2.5,0.7-4.5,2.1-6s3.3-2.2,5.7-2.2
		c1.3,0,2.5,0.2,3.5,0.7v2.5c-1.1-0.8-2.3-1.2-3.6-1.2c-1.5,0-2.8,0.5-3.8,1.6s-1.5,2.5-1.5,4.3s0.5,3.1,1.4,4.2s2.2,1.5,3.7,1.5
		c1.3,0,2.5-0.4,3.7-1.3L510.3,198.7L510.3,198.7z"/>
	<path d="M520.9,199.2c-0.6,0.3-1.3,0.5-2.2,0.5c-2.6,0-3.9-1.5-3.9-4.4v-8.9h-2.6v-2.1h2.6v-3.7l2.4-0.8v4.4h3.8v2.1h-3.8v8.5
		c0,1,0.2,1.7,0.5,2.2s0.9,0.6,1.7,0.6c0.6,0,1.1-0.2,1.6-0.5L520.9,199.2L520.9,199.2z"/>
	<path d="M536.2,199.4h-2.4V197h-0.1c-1,1.8-2.5,2.7-4.6,2.7c-3.6,0-5.4-2.1-5.4-6.4v-9h2.4v8.6c0,3.2,1.2,4.7,3.6,4.7
		c1.2,0,2.1-0.4,2.9-1.3s1.1-2,1.1-3.4v-8.6h2.4L536.2,199.4L536.2,199.4z"/>
	<path d="M548.9,186.8c-0.4-0.3-1-0.5-1.8-0.5c-1,0-1.9,0.5-2.6,1.5s-1,2.3-1,4v7.6h-2.4v-15h2.4v3.1h0.1c0.3-1.1,0.9-1.9,1.6-2.5
		s1.5-0.9,2.4-0.9c0.6,0,1.1,0.1,1.4,0.2v2.5H548.9z"/>
	<path d="M563.5,192.5h-10.6c0,1.7,0.5,3,1.3,3.9s2,1.4,3.5,1.4c1.7,0,3.2-0.6,4.7-1.7v2.3c-1.3,1-3.1,1.4-5.2,1.4
		c-2.1,0-3.8-0.7-5-2s-1.8-3.3-1.8-5.7c0-2.3,0.7-4.2,2-5.7s3-2.2,4.9-2.2s3.5,0.6,4.6,1.9s1.6,3,1.6,5.3V192.5z M561.1,190.4
		c0-1.4-0.3-2.5-1-3.2s-1.6-1.2-2.7-1.2c-1.1,0-2.1,0.4-2.9,1.2s-1.3,1.9-1.5,3.2H561.1z"/>
	<path d="M566.3,198.8v-2.6c1.3,1,2.7,1.5,4.3,1.5c2.1,0,3.2-0.7,3.2-2.1c0-0.4-0.1-0.7-0.3-1s-0.4-0.5-0.7-0.7s-0.7-0.4-1.1-0.6
		s-0.9-0.3-1.3-0.5c-0.7-0.3-1.2-0.5-1.8-0.8s-0.9-0.6-1.3-0.9s-0.6-0.7-0.8-1.1s-0.3-0.9-0.3-1.5c0-0.7,0.2-1.3,0.5-1.9
		s0.8-1,1.3-1.4s1.2-0.6,1.8-0.8s1.4-0.3,2.1-0.3c1.3,0,2.5,0.2,3.5,0.7v2.4c-1.1-0.7-2.4-1.1-3.8-1.1c-0.4,0-0.9,0.1-1.2,0.2
		s-0.7,0.2-0.9,0.4s-0.5,0.4-0.6,0.7s-0.2,0.5-0.2,0.9s0.1,0.7,0.2,1s0.3,0.5,0.6,0.7s0.6,0.4,1,0.6s0.8,0.3,1.3,0.5
		c0.7,0.3,1.3,0.5,1.8,0.8s1,0.6,1.3,0.9s0.7,0.7,0.9,1.2s0.3,1,0.3,1.6c0,0.7-0.2,1.4-0.5,1.9s-0.8,1-1.3,1.4s-1.2,0.6-1.9,0.8
		s-1.5,0.3-2.2,0.3C568.7,199.7,567.4,199.4,566.3,198.8z"/>
</g>
<rect x="458.3" y="221.2" width="126.7" height="3"/>
</svg>
