<?xml version="1.0" encoding="utf-8"?>
<!-- Generator: Adobe Illustrator 19.1.1, SVG Export Plug-In . SVG Version: 6.00 Build 0)  -->
<svg version="1.1" id="Calque_1" xmlns="http://www.w3.org/2000/svg" xmlns:xlink="http://www.w3.org/1999/xlink" x="0px" y="0px"
	 viewBox="0 0 165 179.4" style="enable-background:new 0 0 165 179.4;" xml:space="preserve">
<style type="text/css">
	.st0{fill:none;stroke:#000000;stroke-width:0.8178;stroke-miterlimit:10;}
	.st1{fill:none;stroke:#000000;stroke-miterlimit:10;}
	.st2{stroke:#000000;stroke-width:0.1448;stroke-miterlimit:10;}
	.st3{clip-path:url(#XMLID_3_);fill:none;stroke:#000000;stroke-miterlimit:10;}
	.st4{clip-path:url(#XMLID_3_);stroke:#000000;stroke-miterlimit:10;}
	.st5{opacity:0.25;clip-path:url(#XMLID_3_);stroke:#000000;stroke-width:0.9517;stroke-miterlimit:10;}
	.st6{fill:none;stroke:#000000;stroke-width:0.2551;stroke-linecap:round;stroke-miterlimit:10;}
</style>
<rect x="25.7" y="79" class="st0" width="28.1" height="29.5"/>
<rect x="28.4" y="84.9" class="st1" width="5.7" height="4.4"/>
<rect x="37" y="84.9" class="st1" width="5.7" height="4.4"/>
<rect x="45.6" y="84.9" class="st1" width="5.7" height="4.4"/>
<rect x="28.4" y="93.1" class="st1" width="5.7" height="4.4"/>
<rect x="37" y="93.1" class="st1" width="5.7" height="4.4"/>
<rect x="45.6" y="93.1" class="st1" width="5.7" height="4.4"/>
<rect x="36.9" y="100.9" class="st1" width="5.8" height="7.4"/>
<path class="st2" d="M56.5,78.9H23.2c-0.4,0-0.8-0.4-0.8-0.8l0,0c0-0.4,0.4-0.8,0.8-0.8h33.4c0.4,0,0.8,0.4,0.8,0.8l0,0
	C57.3,78.6,57,78.9,56.5,78.9z"/>
<g>
	<g>
		<g>
			<path d="M80.2,155.8c0.9-0.8,1.5-2.1,1.5-3.4c0-2.5-2.1-4.6-4.6-4.6s-4.6,2.1-4.6,4.6c0,1.4,0.6,2.6,1.5,3.4
				c-2.7,0.5-4.8,2.9-4.8,5.8v2.6c0,0.4,0.3,0.7,0.7,0.7h14.5c0.4,0,0.7-0.3,0.7-0.7v-2.6C85,158.8,83,156.4,80.2,155.8z
				 M73.8,152.4c0-1.8,1.5-3.3,3.3-3.3s3.3,1.5,3.3,3.3s-1.5,3.3-3.3,3.3S73.8,154.2,73.8,152.4z M83.7,163.6H70.5v-2
				c0-2.5,2.1-4.6,4.6-4.6h4c2.5,0,4.6,2.1,4.6,4.6V163.6z"/>
		</g>
	</g>
	<g>
		<g>
			<path d="M98.6,155.8c0.9-0.8,1.5-2.1,1.5-3.4c0-2.5-2.1-4.6-4.6-4.6s-4.6,2.1-4.6,4.6c0,1.4,0.6,2.6,1.5,3.4
				c-2.7,0.5-4.8,2.9-4.8,5.8v2.6c0,0.4,0.3,0.7,0.7,0.7h14.5c0.4,0,0.7-0.3,0.7-0.7v-2.6C103.4,158.8,101.3,156.4,98.6,155.8z
				 M92.1,152.4c0-1.8,1.5-3.3,3.3-3.3c1.8,0,3.3,1.5,3.3,3.3s-1.5,3.3-3.3,3.3C93.6,155.7,92.1,154.2,92.1,152.4z M102.1,163.6
				H88.8v-2c0-2.5,2.1-4.6,4.6-4.6h4c2.5,0,4.6,2.1,4.6,4.6V163.6z"/>
		</g>
	</g>
</g>
<g>
	<g>
		<path d="M119.7,32.5l-2.3,2.6c0.8,0.7,1.6,1.5,2.4,2.3l2.5-2.4C121.4,34.1,120.6,33.3,119.7,32.5z"/>
	</g>
</g>
<g>
	<g>
		<path d="M124.7,37.7l-2.7,2.2c0.7,0.9,1.4,1.8,2,2.7l2.9-2C126.1,39.7,125.4,38.7,124.7,37.7z"/>
	</g>
</g>
<g>
	<g>
		<path d="M134.7,64.5l-3.5,0.1c0,0.6,0,1.1,0,1.7c0,0.6,0,1.1,0,1.7l3.5,0.1c0-0.6,0-1.2,0-1.8C134.8,65.7,134.7,65.1,134.7,64.5z"
			/>
	</g>
</g>
<g>
	<g>
		<path d="M128.8,43.7l-3,1.7c0.6,1,1.1,2,1.6,3l3.2-1.5C129.9,45.9,129.4,44.8,128.8,43.7z"/>
	</g>
</g>
<g>
	<g>
		<path d="M131.9,50.3l-3.3,1.2c0.4,1,0.7,2.1,1.1,3.2l3.4-1C132.7,52.6,132.3,51.5,131.9,50.3z"/>
	</g>
</g>
<g>
	<g>
		<path d="M133.9,57.3l-3.4,0.7c0.2,1.1,0.4,2.2,0.5,3.3l3.5-0.4C134.3,59.7,134.1,58.5,133.9,57.3z"/>
	</g>
</g>
<g>
	<g>
		<path d="M113.9,28.1L112,31c0.9,0.6,1.9,1.3,2.7,1.9l2.1-2.8C115.9,29.4,114.9,28.7,113.9,28.1z"/>
	</g>
</g>
<g>
	<g>
		<path d="M107.5,24.6l-1.4,3.2c1,0.4,2,0.9,3,1.5l1.7-3.1C109.7,25.6,108.6,25.1,107.5,24.6z"/>
	</g>
</g>
<g>
	<g>
		<path d="M49.4,35l2.5,2.4c0.8-0.8,1.6-1.6,2.4-2.3L52,32.5C51.1,33.3,50.2,34.1,49.4,35z"/>
	</g>
</g>
<g>
	<g>
		<path d="M44.8,40.7l2.9,2c0.6-0.9,1.3-1.8,2-2.7L47,37.7C46.2,38.7,45.5,39.7,44.8,40.7z"/>
	</g>
</g>
<g>
	<g>
		<path d="M36.9,66.3c0,0.6,0,1.2,0,1.8l3.5-0.1c0-0.6,0-1.1,0-1.7c0-0.6,0-1.1,0-1.7l-3.5-0.1C36.9,65.1,36.9,65.7,36.9,66.3z"/>
	</g>
</g>
<g>
	<g>
		<path d="M41.2,47l3.2,1.5c0.5-1,1-2,1.6-3l-3-1.7C42.3,44.8,41.7,45.9,41.2,47z"/>
	</g>
</g>
<g>
	<g>
		<path d="M38.6,53.8l3.4,1c0.3-1.1,0.7-2.1,1.1-3.2l-3.3-1.2C39.4,51.5,39,52.6,38.6,53.8z"/>
	</g>
</g>
<g>
	<g>
		<path d="M37.2,60.9l3.5,0.4c0.1-1.1,0.3-2.2,0.5-3.3l-3.4-0.7C37.6,58.5,37.4,59.7,37.2,60.9z"/>
	</g>
</g>
<g>
	<g>
		<path d="M54.8,30.2l2.1,2.8c0.9-0.7,1.8-1.3,2.7-1.9l-1.9-2.9C56.8,28.7,55.8,29.4,54.8,30.2z"/>
	</g>
</g>
<g>
	<g>
		<path d="M60.9,26.2l1.7,3.1c1-0.5,2-1,3-1.5l-1.4-3.2C63.1,25.1,62,25.6,60.9,26.2z"/>
	</g>
</g>
<g>
	<g>
		<path d="M52.6,153.2l2.3-2.6c-0.8-0.7-1.6-1.5-2.4-2.3l-2.5,2.4C50.8,151.5,51.7,152.4,52.6,153.2z"/>
	</g>
</g>
<g>
	<g>
		<path d="M47.6,147.9l2.7-2.2c-0.7-0.9-1.4-1.8-2-2.7l-2.9,2C46.1,146,46.9,147,47.6,147.9z"/>
	</g>
</g>
<g>
	<g>
		<path d="M37.6,121.1l3.5-0.1c0-0.6,0-1.1,0-1.7c0-0.6,0-1.1,0-1.7l-3.5-0.1c0,0.6,0,1.2,0,1.8C37.5,119.9,37.5,120.5,37.6,121.1z"
			/>
	</g>
</g>
<g>
	<g>
		<path d="M43.5,141.9l3-1.7c-0.6-1-1.1-2-1.6-3l-3.2,1.5C42.3,139.8,42.9,140.9,43.5,141.9z"/>
	</g>
</g>
<g>
	<g>
		<path d="M40.4,135.4l3.3-1.2c-0.4-1-0.7-2.1-1.1-3.2l-3.4,1C39.6,133.1,40,134.2,40.4,135.4z"/>
	</g>
</g>
<g>
	<g>
		<path d="M38.4,128.4l3.4-0.7c-0.2-1.1-0.4-2.2-0.5-3.3l-3.5,0.4C38,126,38.2,127.2,38.4,128.4z"/>
	</g>
</g>
<g>
	<g>
		<path d="M58.4,157.6l1.9-2.9c-0.9-0.6-1.9-1.3-2.7-1.9l-2.1,2.8C56.4,156.3,57.4,157,58.4,157.6z"/>
	</g>
</g>
<g>
	<g>
		<path d="M64.8,161.1l1.4-3.2c-1-0.4-2-0.9-3-1.5l-1.7,3.1C62.6,160,63.7,160.6,64.8,161.1z"/>
	</g>
</g>
<g>
	<g>
		<path d="M122.3,150.7l-2.5-2.4c-0.8,0.8-1.6,1.6-2.4,2.3l2.3,2.6C120.6,152.4,121.4,151.5,122.3,150.7z"/>
	</g>
</g>
<g>
	<g>
		<path d="M126.8,145l-2.9-2c-0.6,0.9-1.3,1.8-2,2.7l2.7,2.2C125.4,147,126.1,146,126.8,145z"/>
	</g>
</g>
<g>
	<g>
		<path d="M134.8,119.3c0-0.6,0-1.2,0-1.8l-3.5,0.1c0,0.6,0,1.1,0,1.7c0,0.6,0,1.1,0,1.7l3.5,0.1
			C134.7,120.5,134.8,119.9,134.8,119.3z"/>
	</g>
</g>
<g>
	<g>
		<path d="M130.4,138.7l-3.2-1.5c-0.5,1-1,2-1.6,3l3,1.7C129.4,140.9,129.9,139.8,130.4,138.7z"/>
	</g>
</g>
<g>
	<g>
		<path d="M133,131.9l-3.4-1c-0.3,1.1-0.7,2.1-1.1,3.2l3.3,1.2C132.3,134.2,132.7,133.1,133,131.9z"/>
	</g>
</g>
<g>
	<g>
		<path d="M134.4,124.8l-3.5-0.4c-0.1,1.1-0.3,2.2-0.5,3.3l3.4,0.7C134.1,127.2,134.3,126,134.4,124.8z"/>
	</g>
</g>
<g>
	<g>
		<path d="M116.9,155.5l-2.1-2.8c-0.9,0.7-1.8,1.3-2.7,1.9l1.9,2.9C114.9,157,115.9,156.3,116.9,155.5z"/>
	</g>
</g>
<g>
	<g>
		<path d="M110.7,159.5l-1.7-3.1c-1,0.5-2,1-3,1.5l1.4,3.2C108.6,160.6,109.7,160,110.7,159.5z"/>
	</g>
</g>
<g>
	<g>
		<path d="M133,80.8c-4.5,0-7.8,3.4-8.3,7c-0.3,2.4,0.5,4.8,2.1,6.6c1.4,1.5,2.2,3.6,2.2,5.7l0,3.3c0,1.3,1.1,2.4,2.5,2.4h3.2
			c1.4,0,2.5-1.1,2.5-2.4l0-3.3c0-2.2,0.7-4.2,2.1-5.6c1.5-1.5,2.3-3.5,2.3-5.6C141.5,84.4,137.6,80.8,133,80.8L133,80.8z
			 M135.9,103.4c0,0.6-0.5,1.2-1.2,1.2h-3.2c-0.7,0-1.2-0.5-1.2-1.2v-1.5h5.5L135.9,103.4L135.9,103.4z M138.3,93.6
			c-1.6,1.7-2.5,4-2.5,6.4v0.6h-5.5v-0.6c0-2.4-1-4.7-2.6-6.5c-1.4-1.5-2-3.5-1.8-5.6c0.5-3.1,3.3-5.9,7.1-5.9c4,0,7.2,3.1,7.2,6.9
			C140.2,90.7,139.5,92.4,138.3,93.6z"/>
		<rect x="132.4" y="75.8" width="1.3" height="3.1"/>
		<polygon points="140.9,81.7 141.8,82.6 144.1,80.5 143.1,79.6 		"/>
		<rect x="144.8" y="89.6" width="3.2" height="1.3"/>
		<rect x="118" y="89.6" width="3.2" height="1.3"/>
		<polygon points="122.8,79.6 121.9,80.5 124.2,82.6 125.1,81.7 		"/>
	</g>
</g>
<g>
	<g>
		<defs>
			<circle id="XMLID_1_" cx="86.4" cy="26.9" r="17.2"/>
		</defs>
		<clipPath id="XMLID_3_">
			<use xlink:href="#XMLID_1_"  style="overflow:visible;"/>
		</clipPath>
		<path class="st3" d="M85.9,4.6v22.3l18.9,12.3c0,0,6.3-9,2.8-18.6S98.8,8.1,96.1,6.9C93.4,5.8,89.9,4.6,85.9,4.6z"/>
		<path class="st4" d="M85.9,4.6v22.3l-6.4,21.4c0,0-9.9-3.2-13.6-11.9c-3.8-8.7-1.5-16.4,0.8-20.6S76.9,4.3,85.9,4.6z"/>
		<path class="st5" d="M85.9,26.9l-6.4,21.4c0,0,8.1,2.3,13.2,0c5.1-2.3,8.4-3.8,12-9.1C98.3,34.9,85.9,26.9,85.9,26.9z"/>
		<use xlink:href="#XMLID_1_"  style="overflow:visible;fill:none;stroke:#000000;stroke-width:0.9517;stroke-miterlimit:10;"/>
	</g>
	<line class="st6" x1="85.8" y1="26.8" x2="100.6" y2="36.5"/>
</g>
</svg>
