<?xml version="1.0" encoding="utf-8"?>
<!-- Generator: Adobe Illustrator 19.1.1, SVG Export Plug-In . SVG Version: 6.00 Build 0)  -->
<svg version="1.1" id="Capa_1" xmlns="http://www.w3.org/2000/svg" xmlns:xlink="http://www.w3.org/1999/xlink" x="0px" y="0px"
	 viewBox="-432 244.2 93.4 77" style="enable-background:new -432 244.2 93.4 77;" xml:space="preserve">
<style type="text/css">
	.st0{fill:none;stroke:#000000;stroke-width:3.3049;stroke-miterlimit:10;}
</style>
<g>
	<g>
		<path class="st0" d="M-348.1,267.1h-34.4c-1.4,0-2.5-0.2-3.2-0.4c4.2-8,5.3-13.8,3.2-17.4c-1.8-3.2-5.4-3.2-5.5-3.2
			c-5.8,0-8.4,6.8-8.7,7.8c-4.5,9.8-9.7,12.9-13.5,13.7c0-2.6-2.2-4.8-4.8-4.8h-9.9c-2.7,0-4.8,2.2-4.8,4.8v45
			c0,2.7,2.2,4.8,4.8,4.8h9.9c2.5,0,4.5-1.9,4.8-4.4c1.2,0.3,2,0.8,3,1.4c1.3,0.7,2.8,1.6,5.5,2.6c7.3,2.7,20,1.6,20.5,1.5l0.2,0
			c6.6-1.2,7.5-5.6,8.2-8.6c0.2-1.1,0.5-2.1,0.9-2.7c2.8-2.9,4.2-6,4.5-8.6c0.2-2.3,0.1-3.4,0.5-5.2c0.5-1.7,1.7-6.7-1-10.8
			c7.1,0,19.6,0,21.1,0c2.7,0,5.1-3.2,5.1-3.2c1-1.3,1.5-2.9,1.5-4.6C-340.2,270.7-343.8,267.1-348.1,267.1z M-415.6,312.2h-8.9
			v-43.9h8.9L-415.6,312.2L-415.6,312.2z"/>
		<circle class="st0" cx="-420" cy="273.8" r="3.1"/>
	</g>
</g>
</svg>
