<?xml version="1.0" ?><!DOCTYPE svg  PUBLIC '-//W3C//DTD SVG 1.1//EN'  'http://www.w3.org/Graphics/SVG/1.1/DTD/svg11.dtd'><svg enable-background="new 0 0 24 24" height="24px" id="Layer_1" version="1.1" viewBox="0 0 24 24" width="24px" xml:space="preserve" xmlns="http://www.w3.org/2000/svg" xmlns:xlink="http://www.w3.org/1999/xlink"><path d="M22.275,14.66c-0.075-0.082-0.182-0.131-0.297-0.131h-2.445c-0.194,0-0.361,0.141-0.393,0.334  c-0.237,1.391-0.605,2.524-1.093,3.377c-0.9,1.57-2.17,2.332-3.88,2.332c-1.88,0-3.251-0.723-4.191-2.209  c-0.505-0.797-0.883-1.734-1.124-2.789h7.354c0.178,0,0.333-0.117,0.383-0.288l0.63-2.13c0.035-0.121,0.012-0.254-0.064-0.353  c-0.077-0.103-0.194-0.159-0.321-0.159h-8.31c0-0.117-0.001-0.234-0.001-0.352c0-0.422,0.008-0.832,0.024-1.219h7.66  c0.178,0,0.333-0.117,0.383-0.288l0.629-2.13c0.035-0.121,0.012-0.254-0.063-0.353c-0.077-0.103-0.194-0.159-0.321-0.159H8.97  c0.26-1.055,0.649-1.936,1.156-2.623c1.048-1.432,2.391-2.131,4.101-2.131c1.388,0,2.434,0.371,3.195,1.129  c0.771,0.77,1.287,1.838,1.542,3.168C19,7.877,19.165,8.012,19.355,8.012h2.447c0.111,0,0.218-0.046,0.293-0.125  c0.076-0.084,0.115-0.191,0.105-0.305c-0.148-1.945-0.905-3.711-2.251-5.244C18.58,0.785,16.646,0,14.196,0  c-2.875,0-5.162,1.199-6.793,3.561c-0.9,1.3-1.539,2.838-1.902,4.584H2.648c-0.178,0-0.335,0.116-0.383,0.281l-0.63,2.133  C1.6,10.678,1.624,10.813,1.7,10.91c0.074,0.102,0.193,0.164,0.32,0.164h3.15c-0.009,0.234-0.012,0.469-0.012,0.705  c0,0.294,0.002,0.582,0.013,0.865H2.648c-0.178,0-0.335,0.116-0.383,0.282l-0.63,2.132C1.6,15.18,1.624,15.313,1.7,15.41  c0.074,0.104,0.193,0.164,0.32,0.164h3.437c0.425,2.516,1.334,4.524,2.707,5.977C9.696,23.175,11.614,24,13.868,24  c2.609,0,4.712-1.007,6.252-2.989c1.272-1.627,2.031-3.657,2.257-6.045C22.388,14.855,22.353,14.745,22.275,14.66z"/></svg>