<?xml version="1.0" encoding="utf-8"?>
<!-- Generator: Adobe Illustrator 19.1.1, SVG Export Plug-In . SVG Version: 6.00 Build 0)  -->
<svg version="1.1" id="Capa_1" xmlns="http://www.w3.org/2000/svg" xmlns:xlink="http://www.w3.org/1999/xlink" x="0px" y="0px"
	 viewBox="-466 268 26 26" style="enable-background:new -466 268 26 26;" xml:space="preserve">
<style type="text/css">
	.st0{fill:#030104;}
</style>
<g>
	<g>
		<path class="st0" d="M-443.1,279.2v-2.5l-3-0.5c-0.2-0.7-0.5-1.4-0.8-2l1.7-2.5l-1.8-1.8l-2.4,1.7c-0.6-0.4-1.3-0.6-2-0.8
			l-0.5-2.9h-2.5l-0.5,2.9c-0.7,0.2-1.4,0.4-2,0.8l-2.4-1.7l-1.8,1.8l1.7,2.4c-0.4,0.6-0.6,1.3-0.8,2l-2.9,0.5v2.5l2.9,0.5
			c0.2,0.7,0.5,1.4,0.8,2l-1.7,2.4l1.8,1.8l2.4-1.7c0.6,0.4,1.3,0.6,2,0.8l0.5,2.9h2.5l0.5-2.9c0.7-0.2,1.4-0.5,2-0.8l2.5,1.7
			l1.8-1.8l-1.7-2.4c0.4-0.6,0.6-1.3,0.8-2L-443.1,279.2z M-453,281.4c-1.9,0-3.5-1.5-3.5-3.5c0-1.9,1.6-3.5,3.5-3.5
			s3.5,1.6,3.5,3.5C-449.5,279.9-451.1,281.4-453,281.4z"/>
	</g>
	<path class="st0" d="M-443,286v3.6c0,0.5-0.4,0.9-0.9,0.9h-18.1c-0.5,0-0.9-0.4-0.9-0.9V286h-1.8v3.6c0,1.5,1.2,2.7,2.7,2.7h18.1
		c1.5,0,2.7-1.2,2.7-2.7V286H-443z"/>
</g>
</svg>
