<?xml version="1.0" encoding="utf-8"?>
<!-- Generator: Adobe Illustrator 19.1.1, SVG Export Plug-In . SVG Version: 6.00 Build 0)  -->
<svg version="1.1" id="Capa_1" xmlns="http://www.w3.org/2000/svg" xmlns:xlink="http://www.w3.org/1999/xlink" x="0px" y="0px"
	 viewBox="-267 390.9 60 60" style="enable-background:new -267 390.9 60 60;" xml:space="preserve">
<style type="text/css">
	.st0{fill:none;stroke:#000000;stroke-miterlimit:10;}
</style>
<path d="M-220,394.9h-12l1.8-2.4c0.3-0.4,0.2-1.1-0.2-1.4c-0.4-0.3-1.1-0.2-1.4,0.2l-2.7,3.6h-4.9l-1.7-3.4
	c-0.2-0.5-0.8-0.7-1.3-0.4c-0.5,0.2-0.7,0.8-0.4,1.3l1.3,2.6H-254c-1.7,0-3,1.3-3,3v50c0,1.7,1.3,3,3,3h34c1.7,0,3-1.3,3-3v-50
	C-217,396.2-218.3,394.9-220,394.9z M-219,447.9c0,0.6-0.4,1-1,1h-34c-0.6,0-1-0.4-1-1v-50c0-0.6,0.4-1,1-1h13.4l1,2
	c-0.8,0.7-1.4,1.8-1.4,3c0,2.2,1.8,4,4,4s4-1.8,4-4c0-2.2-1.8-4-4-4c-0.3,0-0.6,0-0.8,0.1l-0.5-1.1h18.4c0.6,0,1,0.4,1,1V447.9z
	 M-238.7,400.8l0.8,1.5c0.2,0.4,0.5,0.6,0.9,0.6c0.1,0,0.3,0,0.4-0.1c0.5-0.2,0.7-0.8,0.4-1.3l-0.8-1.5c1,0.1,1.9,0.9,1.9,2
	c0,1.1-0.9,2-2,2s-2-0.9-2-2C-239,401.5-238.9,401.1-238.7,400.8z"/>
<path d="M-227,431.9h-20c-0.6,0-1,0.4-1,1c0,0.6,0.4,1,1,1h20c0.6,0,1-0.4,1-1C-226,432.3-226.4,431.9-227,431.9z"/>
<path d="M-227,436.9h-20c-0.6,0-1,0.4-1,1c0,0.6,0.4,1,1,1h20c0.6,0,1-0.4,1-1C-226,437.3-226.4,436.9-227,436.9z"/>
<path d="M-227,441.9h-20c-0.6,0-1,0.4-1,1c0,0.6,0.4,1,1,1h20c0.6,0,1-0.4,1-1C-226,442.3-226.4,441.9-227,441.9z"/>
<g>
	<rect x="-246.7" y="407.9" class="st0" width="19.4" height="20"/>
</g>
<g>
	<path d="M-242.1,419.4c0,0.8-0.2,1.4-0.5,1.8c-0.3,0.4-0.8,0.6-1.3,0.6c-0.3,0-0.5,0-0.6-0.1V421c0.2,0.1,0.4,0.2,0.6,0.2
		c0.7,0,1-0.6,1-1.7v-4.2h0.8V419.4z"/>
	<path d="M-237.8,421.9c-0.9,0-1.7-0.3-2.2-0.9c-0.6-0.6-0.8-1.4-0.8-2.4c0-1,0.3-1.9,0.8-2.5c0.6-0.6,1.3-0.9,2.3-0.9
		c0.9,0,1.6,0.3,2.2,0.9s0.8,1.4,0.8,2.4c0,1.1-0.3,1.9-0.8,2.5C-236.2,421.6-236.9,421.9-237.8,421.9z M-237.8,415.9
		c-0.7,0-1.2,0.2-1.7,0.7c-0.4,0.5-0.6,1.1-0.6,1.9c0,0.8,0.2,1.4,0.6,1.9c0.4,0.5,1,0.7,1.6,0.7c0.7,0,1.3-0.2,1.7-0.7
		c0.4-0.5,0.6-1.1,0.6-1.9c0-0.9-0.2-1.5-0.6-2S-237.1,415.9-237.8,415.9z"/>
	<path d="M-233.5,421.8v-6.5h1.8c0.6,0,1,0.1,1.3,0.4s0.5,0.6,0.5,1.1c0,0.4-0.1,0.7-0.3,1s-0.5,0.5-0.8,0.6v0
		c0.4,0.1,0.8,0.2,1,0.5c0.3,0.3,0.4,0.6,0.4,1.1c0,0.6-0.2,1-0.6,1.3s-0.9,0.5-1.5,0.5H-233.5z M-232.7,416v2.1h0.8
		c0.4,0,0.7-0.1,1-0.3c0.2-0.2,0.4-0.5,0.4-0.8c0-0.6-0.4-0.9-1.2-0.9H-232.7z M-232.7,418.7v2.3h1c0.4,0,0.8-0.1,1-0.3
		c0.2-0.2,0.4-0.5,0.4-0.9c0-0.8-0.5-1.1-1.6-1.1H-232.7z"/>
</g>
</svg>
