<?xml version="1.0" encoding="iso-8859-1"?>
<!-- Generator: Adobe Illustrator 19.0.0, SVG Export Plug-In . SVG Version: 6.00 Build 0)  -->
<svg version="1.1" id="Capa_1" xmlns="http://www.w3.org/2000/svg" xmlns:xlink="http://www.w3.org/1999/xlink" x="0px" y="0px"
	 viewBox="0 0 512 512" style="enable-background:new 0 0 512 512;" xml:space="preserve">
<g>
	<g>
		<path d="M497,331c8.284,0,15-6.716,15-15v-60c0-40.455-23.22-75.635-57.149-93.163C470.844,149.072,481,128.706,481,106
			c0-41.355-33.645-75-75-75c-41.355,0-75,33.645-75,75c0,22.778,10.22,43.202,26.3,56.969c-7.54,3.949-14.612,8.823-21.046,14.545
			c-8.985-6.664-18.825-12.236-29.32-16.528C321.722,147.278,331,127.706,331,106c0-41.355-33.645-75-75-75
			c-41.355,0-75,33.645-75,75c0,21.706,9.278,41.278,24.066,54.986c-10.495,4.292-20.334,9.863-29.32,16.528
			c-6.434-5.722-13.506-10.596-21.046-14.545C170.78,149.202,181,128.778,181,106c0-41.355-33.645-75-75-75s-75,33.645-75,75
			c0,22.706,10.156,43.072,26.149,56.837C23.22,180.365,0,215.544,0,256v60c0,8.284,6.716,15,15,15c8.609,0,210.584,0,226,0v60h-15
			c-19.555,0-36.228,12.541-42.42,30H15c-8.284,0-15,6.716-15,15s6.716,15,15,15h168.58c6.192,17.459,22.865,30,42.42,30h60
			c19.555,0,36.228-12.541,42.42-30H497c8.284,0,15-6.716,15-15s-6.716-15-15-15H328.42c-6.192-17.459-22.865-30-42.42-30h-15v-60
			C274.671,331,462.665,331,497,331z M406,61c24.813,0,45,20.187,45,45s-20.187,45-45,45s-45-20.187-45-45S381.187,61,406,61z
			 M406,181c41.906,0,76,33.645,76,75v45h-91v-15c0-33.547-12.303-64.272-32.63-87.909C371.694,187.124,388.458,181,406,181z
			 M256,61c24.813,0,45,20.187,45,45s-20.187,45-45,45s-45-20.187-45-45S231.187,61,256,61z M106,61c24.813,0,45,20.187,45,45
			s-20.187,45-45,45s-45-20.187-45-45S81.187,61,106,61z M121,301H30v-45c0-41.355,34.093-75,76-75
			c17.543,0,34.307,6.124,47.63,17.091C133.303,221.728,121,252.453,121,286V301z M286,421c8.271,0,15,6.729,15,15s-6.729,15-15,15
			h-60c-8.271,0-15-6.729-15-15s6.729-15,15-15H286z M151,301v-15c0-57.897,47.103-105,105-105c57.897,0,105,47.103,105,105v15H151z
			"/>
	</g>
</g>
<g>
</g>
<g>
</g>
<g>
</g>
<g>
</g>
<g>
</g>
<g>
</g>
<g>
</g>
<g>
</g>
<g>
</g>
<g>
</g>
<g>
</g>
<g>
</g>
<g>
</g>
<g>
</g>
<g>
</g>
</svg>
