<?xml version="1.0" encoding="utf-8"?>
<!-- Generator: Adobe Illustrator 19.1.1, SVG Export Plug-In . SVG Version: 6.00 Build 0)  -->
<svg version="1.1" id="Calque_1" xmlns="http://www.w3.org/2000/svg" xmlns:xlink="http://www.w3.org/1999/xlink" x="0px" y="0px"
	 viewBox="0 0 584 624" style="enable-background:new 0 0 584 624;" xml:space="preserve">
<style type="text/css">
	.st0{stroke:#000000;stroke-width:8;stroke-miterlimit:10;}
</style>
<path d="M482.4,155.2c8,3.6,11.5,9,10.2,15.5c-1.3,6.4-6.5,10.6-13.6,10.7c-7.3,0.1-14.7,0-22,0c-113.5,0-226.9,0-340.4,0
	c-2.2,0-4.5,0-6.9,0c0,79.7,0,159,0,238.6c118.8,0,237.6,0,356.8,0c0-1.8,0-3.5,0-5.2c0-68.8,0-137.6,0-206.4c0-2.1,0.1-4.3,0.5-6.3
	c1.4-6.4,6.8-10.5,13.4-10.2c6.3,0.3,11.5,5.1,12.3,11.6c0.2,1.3,0.1,2.7,0.1,4c0,74.5,0,149,0,223.6c0,4.6-0.7,8.7-4.2,12
	c-3,2.9-6.7,3.5-10.7,3.5c-24.3,0-48.5,0-72.8,0c-101.6,0-203.2-0.1-304.8,0.1c-8.1,0-13.9-2.3-17.2-9.9c0-90.4,0-180.8,0-271.2
	c1.7-5.2,5.3-8.6,10.4-10.4C223.2,155.2,352.8,155.2,482.4,155.2z"/>
<path d="M301,500.5c0,13.8,0,26.4,0,39.1c0,3.5,0,6.9,0,10.4c-0.1,9-5.3,14.9-13.2,14.8c-7.7-0.1-12.8-5.9-12.9-14.7
	c-0.1-14,0-28,0-42c0-2.1,0-4.2,0-7.3c-1.6,1.2-2.8,1.9-3.8,2.8c-23.5,19-47.1,38-70.6,57.1c-4.1,3.3-8.3,5.2-13.6,3.5
	c-9.2-2.9-12.3-14.2-5.8-21.3c1.1-1.2,2.3-2.2,3.6-3.2c31.1-25.1,62.2-50.3,93.3-75.4c7.2-5.8,12.6-5.9,19.7-0.1
	c31.5,25.4,63,50.9,94.6,76.4c4.5,3.6,6.9,8.1,5.6,14c-1.2,5.3-4.6,8.7-9.9,9.9c-4.8,1.1-8.8-0.6-12.5-3.7
	c-19.6-15.9-39.2-31.7-58.7-47.5C311.8,509.2,306.8,505.2,301,500.5z"/>
<path d="M282.4,259.9c8.7-2.7,16.8-3.5,25.1-1.6c15.5,3.5,25.3,13.3,29.7,28.2c4.2,13.9,4,27.9-0.9,41.7
	c-7.7,21.7-32.1,32.4-53.6,23.7c-2.3-0.9-3.8-1.1-6,0.5c-8.1,5.7-19.2,0.7-20.1-9.2c-0.5-5.8-0.3-11.7-0.3-17.6
	c0-29.5,0-58.9,0.1-88.4c0-2.4,0.1-4.9,0.7-7.1c1.6-5.7,7.7-9.7,13.5-9.1c6.5,0.7,11.6,5.6,11.8,12
	C282.6,241.8,282.4,250.6,282.4,259.9z M314.4,307c-0.9-5.3-1.3-9.5-2.4-13.6c-1.8-6.5-6.2-9.8-12.7-10.1c-7-0.3-11.9,2.2-14.2,8.6
	c-3.5,9.8-3.7,19.8,0.7,29.5c2.4,5.2,7,7.1,12.4,7c5.4,0,10.3-1.7,12.3-7.1C312.4,316.6,313.3,311.3,314.4,307z"/>
<path d="M213,343.9c-15.3,12-31.3,14.2-48.4,5.7c-9.2-4.6-15-12.3-18.3-21.8c-4.9-14.2-5-28.6-0.4-42.8
	c7.3-22.6,31.7-33.8,53.8-25.1c2.4,0.9,4.1,1.3,6.4-0.5c4-3.1,8.7-3.1,13.2-0.8c4.8,2.5,7,6.8,7.1,12.1c0.1,11.1-0.1,22.1,0.1,33.2
	c0,3.7,0.3,7.5,1,11.1c1.3,6.5,4.4,11.9,10.5,15.2c6.5,3.5,8.8,10.8,5.6,17c-3.2,6.4-10.7,9.2-17.3,6.2c-2.5-1.1-4.9-2.7-7.1-4.4
	C216.9,347.6,215,345.7,213,343.9z M200.4,306.3c-0.7-4.2-1-8.6-2.2-12.8c-1.7-6.4-6.3-9.8-12.7-10.2c-7-0.4-11.8,2.2-14.2,8.6
	c-3.5,9.3-3.5,18.8,0,28.1c2.3,6.2,7.2,8.8,13.9,8.5c6.8-0.3,11.3-3.6,13.1-10.2C199.3,314.4,199.7,310.5,200.4,306.3z"/>
<path d="M352.9,308.5c0.4-16.4,3-29.3,12.9-39.6c19.7-20.5,55.8-13.5,66.5,12.8c2.7,6.6-0.1,13.8-6.5,16.9c-6.4,3-13.7,0.8-17-5.8
	c-2.9-5.7-6.7-9.5-13.4-9.6c-7.4-0.1-12.5,3.5-14.5,10.6c-2.1,7.5-2.2,15-0.4,22.5c1.4,5.8,4.1,10.5,10.5,11.6
	c6.9,1.3,12.5-0.4,16.6-6.6c4.1-6.3,11.7-7.8,17.9-3.9c6,3.8,7.8,11.5,4.1,17.9c-3.8,6.5-9,11.6-15.7,14.9
	c-24.2,12-52-0.7-58.6-26.8C353.8,317.7,353.3,311.7,352.9,308.5z"/>
<path d="M412.7,379.2c6.9,0,13.9,0,20.8,0c8.3,0.1,14.1,5.5,14.1,13.1c0,7.6-5.8,13.1-14.1,13.1c-14,0.1-28,0.1-42,0
	c-8.3,0-14-5.5-14-13.2c0-7.7,5.7-13,14-13.1C398.5,379.2,405.6,379.2,412.7,379.2z"/>
<line class="st0" x1="288.4" y1="420.1" x2="288.4" y2="509.4"/>
</svg>
