<?xml version="1.0" encoding="utf-8"?>
<!-- Generator: Adobe Illustrator 19.1.1, SVG Export Plug-In . SVG Version: 6.00 Build 0)  -->
<svg version="1.1" id="Calque_1" xmlns="http://www.w3.org/2000/svg" xmlns:xlink="http://www.w3.org/1999/xlink" x="0px" y="0px"
	 viewBox="0 0 55 56.3" style="enable-background:new 0 0 55 56.3;" xml:space="preserve">
<path d="M51.3,49.2L39.4,36.8c3.1-3.6,4.7-8.2,4.7-13c0-11.1-9.1-20.2-20.2-20.2S3.8,12.7,3.8,23.8C3.8,34.9,12.8,44,24,44
	c4.2,0,8.2-1.3,11.6-3.7l12,12.5c0.5,0.5,1.2,0.8,1.9,0.8c0.7,0,1.3-0.3,1.8-0.7C52.3,51.9,52.3,50.2,51.3,49.2z M24,8.9
	c8.2,0,14.9,6.7,14.9,14.9c0,8.2-6.7,14.9-14.9,14.9c-8.2,0-14.9-6.7-14.9-14.9C9.1,15.6,15.7,8.9,24,8.9z"/>
</svg>
