<?xml version="1.0" encoding="utf-8"?>
<!-- Generator: Adobe Illustrator 19.1.1, SVG Export Plug-In . SVG Version: 6.00 Build 0)  -->
<svg version="1.1" id="Calque_1" xmlns="http://www.w3.org/2000/svg" xmlns:xlink="http://www.w3.org/1999/xlink" x="0px" y="0px"
	 viewBox="0 0 35.8 27.6" style="enable-background:new 0 0 35.8 27.6;" xml:space="preserve">
<style type="text/css">
	.st0{fill:#77889F;}
</style>
<path class="st0" d="M33.3,23.7l-9.8-9.8L33.3,4V23.7z M3.9,25.2l9.9-9.9l3.5,3.4c0.4,0.4,1,0.4,1.4,0l3.4-3.4l9.8,9.8H3.9z
	 M2.4,23.7V4l9.9,9.8L2.4,23.7z M31.9,2.6L17.9,16.5L3.9,2.6H31.9z M32.3,0.5H3.5c-1.7,0-3.1,1.4-3.1,3.1v20.5
	c0,1.7,1.4,3.1,3.1,3.1h28.8c1.7,0,3.1-1.4,3.1-3.1V3.6C35.4,1.9,34,0.5,32.3,0.5z"/>
</svg>
