<?xml version="1.0" encoding="utf-8"?>
<!-- Generator: Adobe Illustrator 19.1.1, SVG Export Plug-In . SVG Version: 6.00 Build 0)  -->
<svg version="1.1" id="Calque_1" xmlns="http://www.w3.org/2000/svg" xmlns:xlink="http://www.w3.org/1999/xlink" x="0px" y="0px"
	 viewBox="0 0 3000 1791.6" style="enable-background:new 0 0 3000 1791.6;" xml:space="preserve">
<style type="text/css">
	.st0{fill:#FFFFFF;}
</style>
<path d="M1611.8,87.4c2.8,0.6,5.7,1.2,8.5,2c31.1,8,51.2,33.7,51.8,66.6c0.1,8,0.1,16,0,24c-0.1,9.4-4.9,14.3-14.3,14.4
	c-11.3,0.1-22.7,0-34,0c-1.4,0-2.9,0-4.7,0c0,2.2,0,3.9,0,5.6c0,60.5,0,121,0,181.5c0,25-16.7,44.6-41.4,48.8
	c-3,0.5-6.1,0.5-9.2,0.5c-32.5,0-65,0.1-97.6-0.1c-3.6,0-6.3,1-9,3.2c-24.7,19.6-49.6,39.1-74.3,58.7c-4.8,3.8-9.9,6-15.8,2.9
	c-5.4-2.8-7.1-7.6-7.1-13.3c0-16.7,0-33.3,0-50c0-2.1-0.4-3.3-2.6-4.1c-22-8.6-33-24.9-33-48.6c0-56.3,0-112.5,0-168.7
	c0-19.2-0.3-38.4,0.3-57.6c1-33.1,26.1-60.5,59-65.1c0.6-0.1,1.2-0.4,1.8-0.6C1464.1,87.4,1537.9,87.4,1611.8,87.4z M1593.3,194.3
	c-2.1,0-3.9,0-5.7,0c-44.1,0-88.2,0-132.4,0c-11.6,0-16.1-4.6-16.2-16.3c-0.1-10.2,0.7-20.7-1-30.7c-3-17.9-14.6-28.8-32-33.3
	c-15.1-3.9-32.2,2.6-41.8,15.4c-6.9,9.1-9.5,19.4-9.4,30.7c0.1,41.6,0,83.2,0,124.8c0,31.6,0.1,63.2,0,94.8c0,8.2,2.2,15.2,8.8,20.5
	c4,3.2,8.6,4.6,13.6,5c8.6,0.6,13.1,5.5,13.2,13.9c0.1,5.6,0,11.2,0,16.8c0,7,0,14,0,21.9c2-1.6,3.3-2.6,4.7-3.6
	c18.3-14.4,36.7-28.8,54.9-43.4c5.1-4.1,10.4-5.8,16.9-5.7c33.9,0.2,67.7,0.1,101.6,0.1c2.6,0,5.4-0.1,7.9-0.7
	c11.2-2.9,17.3-11.5,17.3-24.1c0-60.5,0-121,0-181.6C1593.5,197.3,1593.3,196,1593.3,194.3z M1464.4,168.5c61,0,121.4,0,182.1,0
	c0-4.2,0.1-8.2,0-12.1c-0.5-25.5-18.4-43.3-43.9-43.3c-49.6-0.1-99.2,0-148.7,0c-1.1,0-2.2,0.2-3.8,0.3
	C1463.1,129.8,1465.8,148.4,1464.4,168.5z"/>
<path class="st0" d="M1593.3,194.3c0.1,1.7,0.2,3,0.2,4.3c0,60.5,0,121,0,181.6c0,12.7-6.1,21.3-17.3,24.1c-2.5,0.7-5.3,0.7-7.9,0.7
	c-33.9,0-67.7,0.1-101.6-0.1c-6.5,0-11.8,1.7-16.9,5.7c-18.2,14.6-36.6,29-54.9,43.4c-1.3,1-2.6,2.1-4.7,3.6c0-7.9,0-14.9,0-21.9
	c0-5.6,0-11.2,0-16.8c-0.1-8.5-4.5-13.3-13.2-13.9c-5.1-0.4-9.6-1.8-13.6-5c-6.6-5.2-8.8-12.3-8.8-20.5c0.1-31.6,0-63.2,0-94.8
	c0-41.6,0.1-83.2,0-124.8c0-11.3,2.5-21.6,9.4-30.7c9.6-12.8,26.7-19.3,41.8-15.4c17.4,4.5,29,15.4,32,33.3c1.7,10,0.9,20.4,1,30.7
	c0.1,11.7,4.6,16.3,16.2,16.3c44.1,0,88.2,0,132.4,0C1589.4,194.3,1591.2,194.3,1593.3,194.3z M1477.6,305.8c24.6,0,49.3,0,73.9,0
	c7.8,0,12.5-5.4,10.7-12.2c-1.2-4.5-5.1-7-11.2-7c-41.2,0-82.3,0-123.5,0c-8,0-16-0.1-24,0.1c-7.1,0.2-11.4,5.4-10,11.8
	c1,4.6,5,7.3,11,7.3C1428.8,305.8,1453.2,305.8,1477.6,305.8z M1478.2,233c-17.2,0-34.4,0-51.5,0c-7.7,0-15.5-0.1-23.2,0
	c-7.2,0.2-11.7,5.8-9.9,12.2c1.2,4.5,5.1,7,11.2,7c47.3,0,94.6,0,141.9,0c3,0,6.1-0.1,9.1-0.7c3.4-0.7,5.5-3.1,6.4-6.4
	c0.9-3.6,0.4-7.3-2.7-9.4c-2.4-1.6-5.6-2.6-8.5-2.6C1526.7,232.9,1502.5,233,1478.2,233z M1477.8,359.4c21.5,0,42.9,0,64.4,0
	c3.6,0,7.2,0.2,10.8-0.1c6.8-0.4,10.8-5.8,9.2-12.1c-1.1-4.3-4.9-7-10.4-7c-49.3,0-98.7,0-148,0c-1.2,0-2.4,0.2-3.5,0.5
	c-4.6,1.2-7.3,5.1-7,9.8c0.4,5.5,4.5,8.8,11.3,8.8C1429,359.4,1453.4,359.4,1477.8,359.4z"/>
<path class="st0" d="M1464.4,168.5c1.4-20-1.3-38.7-14.4-55.2c1.6-0.1,2.7-0.3,3.8-0.3c49.6,0,99.2,0,148.7,0
	c25.5,0,43.5,17.8,43.9,43.3c0.1,4,0,7.9,0,12.1C1585.7,168.5,1525.4,168.5,1464.4,168.5z"/>
<path d="M1477.6,305.8c-24.4,0-48.7,0-73.1,0c-6,0-10-2.7-11-7.3c-1.4-6.4,2.9-11.7,10-11.8c8-0.2,16-0.1,24-0.1
	c41.2,0,82.3,0,123.5,0c6.2,0,10,2.5,11.2,7c1.8,6.8-2.8,12.2-10.7,12.2C1526.9,305.8,1502.2,305.8,1477.6,305.8z"/>
<path d="M1478.2,233c24.2,0,48.5-0.1,72.7,0.1c2.9,0,6.1,1,8.5,2.6c3.1,2.1,3.6,5.7,2.7,9.4c-0.8,3.3-3,5.8-6.4,6.4
	c-3,0.6-6.1,0.7-9.1,0.7c-47.3,0-94.6,0-141.9,0c-6.1,0-10-2.4-11.2-7c-1.7-6.4,2.7-12,9.9-12.2c7.7-0.2,15.4,0,23.2,0
	C1443.9,233,1461,233,1478.2,233z"/>
<path d="M1477.8,359.4c-24.4,0-48.8,0-73.2,0c-6.8,0-10.9-3.3-11.3-8.8c-0.3-4.7,2.4-8.6,7-9.8c1.1-0.3,2.4-0.5,3.5-0.5
	c49.3,0,98.7,0,148,0c5.5,0,9.3,2.7,10.4,7c1.6,6.3-2.4,11.6-9.2,12.1c-3.6,0.2-7.2,0.1-10.8,0.1
	C1520.7,359.4,1499.2,359.4,1477.8,359.4z"/>
</svg>
