<?xml version="1.0" encoding="utf-8"?>
<!-- Generator: Adobe Illustrator 19.1.1, SVG Export Plug-In . SVG Version: 6.00 Build 0)  -->
<svg version="1.1" id="Capa_1" xmlns="http://www.w3.org/2000/svg" xmlns:xlink="http://www.w3.org/1999/xlink" x="0px" y="0px"
	 viewBox="-109.3 59 275.3 349.7" style="enable-background:new -109.3 59 275.3 349.7;" xml:space="preserve">
<style type="text/css">
	.st0{fill:#FFFFFF;stroke:#000000;stroke-width:3;stroke-miterlimit:10;}
	.st1{fill:none;stroke:#000000;stroke-width:2;stroke-miterlimit:10;}
	.st2{fill:#FFFFFF;stroke:#000000;stroke-width:2;stroke-miterlimit:10;}
</style>
<rect x="-95.8" y="68.7" class="st0" width="247.2" height="332.6"/>
<rect x="-79.8" y="83.1" class="st1" width="86.4" height="82.9"/>
<rect x="42.3" y="119.1" width="85.9" height="7.5"/>
<rect x="42.3" y="155.7" width="85.9" height="7.5"/>
<rect x="-79.8" y="196.4" width="208" height="7.5"/>
<rect x="-79.8" y="238.9" width="208" height="7.5"/>
<rect x="-79.8" y="277.5" width="119.8" height="7.5"/>
<rect x="-55" y="282" transform="matrix(0.9797 0.2004 -0.2004 0.9797 65.1283 0.77)" class="st2" width="167.5" height="80.3"/>
<path d="M-18.7,300.1c-0.1-0.1-0.2-0.2-0.3-0.2l-3-0.6c-0.2,0-0.5,0.1-0.6,0.3c-0.6,1.6-1.4,2.9-2.2,3.8c-1.5,1.7-3.2,2.3-5.3,1.9
	c-2.3-0.5-3.8-1.7-4.5-3.7c-0.4-1.1-0.6-2.3-0.7-3.7l8.9,1.8c0.2,0,0.4-0.1,0.5-0.3l1.3-2.4c0.1-0.1,0.1-0.3,0-0.4
	c-0.1-0.1-0.2-0.2-0.4-0.3l-10.1-2.1c0-0.1,0.1-0.3,0.1-0.4c0.1-0.5,0.2-1,0.3-1.5l9.3,1.9c0.2,0,0.4-0.1,0.5-0.3l1.3-2.4
	c0.1-0.1,0.1-0.3,0-0.4c-0.1-0.1-0.2-0.2-0.4-0.3l-9.5-2c0.6-1.2,1.3-2.2,2.1-2.9c1.6-1.5,3.4-2,5.5-1.6c1.7,0.3,2.9,1.1,3.6,2.2
	c0.7,1.1,1.1,2.6,1.1,4.2c0,0.2,0.2,0.4,0.4,0.5l3,0.6c0.1,0,0.3,0,0.4-0.1c0.1-0.1,0.2-0.2,0.2-0.3c0.3-2.4-0.2-4.7-1.4-6.9
	c-1.3-2.2-3.4-3.7-6.4-4.3c-3.5-0.7-6.6,0.2-9.1,2.6c-1.4,1.3-2.6,3.1-3.4,5.1l-3.5-0.7c-0.2,0-0.4,0.1-0.5,0.2l-1.3,2.4
	c-0.1,0.1-0.1,0.3,0,0.4c0.1,0.1,0.2,0.2,0.4,0.3l3.8,0.8c-0.1,0.3-0.1,0.6-0.2,0.9c-0.1,0.4-0.1,0.7-0.2,1.1l-3.1-0.6
	c-0.2,0-0.4,0.1-0.5,0.2l-1.3,2.4c-0.1,0.1-0.1,0.3,0,0.4c0.1,0.1,0.2,0.2,0.4,0.3l4.2,0.9c-0.1,3.2,0.5,5.8,1.8,7.9
	c1.5,2.3,3.6,3.8,6.3,4.4c3.2,0.6,6-0.1,8.3-2.1c2-1.7,3.4-3.9,4.2-6.8C-18.6,300.3-18.6,300.2-18.7,300.1z"/>
</svg>
