<?xml version="1.0" encoding="utf-8"?>
<!-- Generator: Adobe Illustrator 19.1.1, SVG Export Plug-In . SVG Version: 6.00 Build 0)  -->
<svg version="1.1" id="Calque_1" xmlns="http://www.w3.org/2000/svg" xmlns:xlink="http://www.w3.org/1999/xlink" x="0px" y="0px"
	 viewBox="0 0 595.3 841.9" style="enable-background:new 0 0 595.3 841.9;" xml:space="preserve">
<style type="text/css">
	.st0{fill:#010202;}
</style>
<path class="st0" d="M423.8,503.2c-3.4-10.1-14.5-20.6-24.8-23.4l-37.8-10.3c-10.3-2.8-24.9,1-32.4,8.5l-13.7,13.7
	c-49.8-13.5-88.8-52.5-102.2-102.3l13.7-13.7c7.5-7.5,11.3-22.1,8.5-32.4l-10.3-37.8c-2.8-10.3-13.3-21.4-23.4-24.8l-4.3-1.4
	c-10.1-3.4-24.5,0-32,7.6l-20.5,20.5c-3.7,3.6-6,14-6,14.1c-0.7,65.1,24.8,127.7,70.8,173.8c45.9,45.9,108.3,71.3,173.2,70.8
	c0.3,0,11.1-2.3,14.7-5.9l20.5-20.5c7.5-7.5,10.9-21.9,7.5-31.9L423.8,503.2z"/>
<path class="st0" d="M298,166C156.6,166,42,280.6,42,422s114.6,256,256,256s256-114.6,256-256S439.4,166,298,166z M298,646
	C174.5,646,74,545.5,74,422s100.5-224,224-224s224,100.5,224,224S421.5,646,298,646z"/>
<g>
	<path d="M339.8,388.2h-11.9V286.4h11.9V388.2z"/>
	<path d="M378.4,349.7v38.5h-11.9V286.4h28c10.9,0,19.3,2.6,25.3,7.9c6,5.3,9,12.8,9,22.4s-3.3,17.5-10,23.7
		c-6.6,6.1-15.6,9.2-26.9,9.2H378.4z M378.4,297.2v41.7h12.5c8.2,0,14.5-1.9,18.8-5.6c4.3-3.8,6.5-9.1,6.5-15.9
		c0-13.4-7.9-20.1-23.8-20.1H378.4z"/>
</g>
</svg>
