<?xml version="1.0" encoding="utf-8"?>
<!-- Generator: Adobe Illustrator 19.1.1, SVG Export Plug-In . SVG Version: 6.00 Build 0)  -->
<svg version="1.1" id="Calque_1" xmlns="http://www.w3.org/2000/svg" xmlns:xlink="http://www.w3.org/1999/xlink" x="0px" y="0px"
	 viewBox="0 0 385.5 646.5" style="enable-background:new 0 0 385.5 646.5;" xml:space="preserve">
<style type="text/css">
	.st0{fill:#FFFFFF;}
</style>
<g>
	<path class="st0" d="M-676.4,432.9c-4.5,0-8.6,0-12.8,0c-8.7,0-10.9,2.2-10.9,10.8c0,49.1,0,98.3,0,147.4c0,6.9,2.7,9.7,9.6,9.7
		c49,0,98,0,146.9-0.1c2.2,0,4.8-1.2,6.4-2.7c8.9-8.5,17.6-17.2,26.1-26.2c1.6-1.7,2.8-4.5,2.8-6.8c0.2-41,0.1-82,0.1-122.9
		c0-6.3-2.8-9.1-9.1-9.2c-4.9-0.1-9.8,0-14.7,0c-0.6-10.8-4.2-15.6-11.4-16c-8-0.4-11.7,4-13.3,15.7c-2.4,0-4.8,0-7.1,0
		c-1.2-11.2-4.4-15.7-11.8-15.6c-2.8,0.1-6.6,0.8-8.1,2.7c-2.7,3.5-4.1,8.2-6.2,12.7c-9.3,0-19.7,0-30.1,0
		c-0.7-10.5-4.2-15.3-11.5-15.6c-8.1-0.4-11.6,3.8-13.3,16c-1,0-2.2,0-3.3,0c-1.3,0-2.6-0.2-3.8-0.2c-1.2-11.5-4.9-16-12.8-15.8
		C-672,417.1-675.6,421.8-676.4,432.9z"/>
	<path d="M-676.4,432.9c0.8-11.1,4.4-15.8,11.9-16c7.9-0.2,11.6,4.2,12.8,15.8c1.2,0.1,2.5,0.2,3.8,0.2c1.1,0,2.3,0,3.3,0
		c1.7-12.2,5.2-16.4,13.3-16c7.2,0.3,10.8,5.1,11.5,15.6c10.4,0,20.7,0,30.1,0c2.1-4.6,3.4-9.2,6.2-12.7c1.5-1.9,5.3-2.7,8.1-2.7
		c7.4-0.2,10.6,4.4,11.8,15.6c2.4,0,4.8,0,7.1,0c1.5-11.8,5.3-16.1,13.3-15.7c7.2,0.4,10.8,5.2,11.4,16c4.9,0,9.8-0.1,14.7,0
		c6.3,0.1,9.1,2.9,9.1,9.2c0,41,0,82-0.1,122.9c0,2.3-1.2,5.2-2.8,6.8c-8.5,8.9-17.3,17.6-26.1,26.2c-1.6,1.5-4.2,2.7-6.4,2.7
		c-49,0.2-98,0.1-146.9,0.1c-6.9,0-9.6-2.8-9.6-9.7c0-49.1,0-98.3,0-147.4c0-8.7,2.2-10.8,10.9-10.8
		C-685,432.9-680.8,432.9-676.4,432.9z M-516.4,560.9c0-29.7,0-58.7,0-87.6c-58.7,0-117.1,0-175.4,0c0,40,0,79.6,0,119.3
		c48,0,95.7,0,143.7,0c0-7.6,0-14.9,0-22.2c0-6.7,2.7-9.4,9.3-9.4C-531.4,560.9-524.1,560.9-516.4,560.9z M-651.8,441.1
		c-0.7,12.8-1.9,15.6-7.8,15.6c-4.4,0-9.3,0.2-13.1-1.6c-5.7-2.7-2.4-9.3-3.7-13.9c-5.3,0-10.4,0-15.3,0c0,8,0,15.6,0,23.3
		c58.7,0,117.1,0,175.3,0c0-8.1,0-15.8,0-23.4c-5.3,0-10.3,0-15.4,0c-0.9,6.3,2.2,14.8-8.1,15.6c-4.2,0.3-8.9,0.3-12.6-1.4
		c-6-2.8-2.4-9.6-4.1-14.2c-2.6,0-4.8,0-7.1,0c-1.8,13.9-2.5,15.6-8.2,15.6c-4.4,0-10.3,0.7-12.8-1.8c-3.1-3-3.5-8.9-5.1-13.9
		c-9.5,0-19.7,0-30.2,0c-0.9,6.4,2.3,15.1-8.4,15.6c-4.2,0.2-9,0.2-12.6-1.6c-5.6-2.8-2.2-9.4-3.7-14.1
		C-647,441.1-649.3,441.1-651.8,441.1z M-539.6,569c0,6.7,0,13,0,17.8c5.7-5.7,11.9-12,17.7-17.8C-527.1,569-533.2,569-539.6,569z
		 M-660.1,448.7c0-6.6,0.2-12.9-0.2-19.2c-0.1-1.6-2.4-3-3.6-4.5c-1.4,1.5-3.9,3-4,4.7c-0.5,6.2-0.2,12.5-0.2,19
		C-665.3,448.7-663.1,448.7-660.1,448.7z M-628.1,448.7c0-6.6,0.2-12.9-0.2-19.2c-0.1-1.6-2.4-3-3.6-4.5c-1.4,1.4-3.8,2.7-3.9,4.2
		c-0.4,6.4-0.2,12.8-0.2,19.5C-633.3,448.7-631,448.7-628.1,448.7z M-580,448.7c2.9,0,5.2,0,7.9,0c0-6.6,0.3-13.1-0.2-19.4
		c-0.1-1.5-2.5-2.8-3.9-4.2c-1.3,1.5-3.6,2.9-3.7,4.5C-580.3,435.7-580,442-580,448.7z M-540.1,448.7c0-6.7,0.2-12.9-0.2-19
		c-0.1-1.6-2.2-3.2-3.4-4.7c-1.4,1.3-4.1,2.5-4.2,3.9c-0.4,6.6-0.2,13.2-0.2,19.8C-545.1,448.7-542.9,448.7-540.1,448.7z"/>
	<path class="st0" d="M-516.4,560.9c-7.7,0-15,0-22.3,0c-6.6,0-9.3,2.7-9.3,9.4c0,7.3,0,14.6,0,22.2c-48,0-95.7,0-143.7,0
		c0-39.7,0-79.3,0-119.3c58.3,0,116.6,0,175.4,0C-516.4,502.2-516.4,531.2-516.4,560.9z M-580.1,536.9c11.8,0,23.1-0.1,34.4,0
		c4,0,5.7-1.6,5.7-5.6c-0.1-9.7-0.2-19.3,0-29c0.1-4.2-1.8-5.5-5.8-5.5c-38.8,0.1-77.7,0.1-116.5,0c-4.3,0-5.9,1.7-5.9,5.9
		c0.1,20,0.1,40,0,60c0,4.5,1.5,6.2,6.1,6.2c25.3-0.1,50.7-0.1,76,0c4.7,0,6.1-1.9,6-6.3C-580.2,554.3-580.1,546-580.1,536.9z"/>
	<path class="st0" d="M-651.8,441.1c2.6,0,4.9,0,7.3,0c1.5,4.7-1.9,11.3,3.7,14.1c3.6,1.8,8.4,1.8,12.6,1.6
		c10.7-0.5,7.4-9.3,8.4-15.6c10.5,0,20.8,0,30.2,0c1.6,4.9,2,10.8,5.1,13.9c2.5,2.4,8.4,1.8,12.8,1.8c5.6,0,6.4-1.7,8.2-15.6
		c2.2,0,4.5,0,7.1,0c1.6,4.6-2,11.5,4.1,14.2c3.7,1.7,8.4,1.7,12.6,1.4c10.2-0.8,7.2-9.2,8.1-15.6c5.1,0,10,0,15.4,0
		c0,7.6,0,15.3,0,23.4c-58.3,0-116.6,0-175.3,0c0-7.7,0-15.3,0-23.3c5,0,10,0,15.3,0c1.4,4.6-1.9,11.2,3.7,13.9
		c3.8,1.8,8.7,1.6,13.1,1.6C-653.8,456.7-652.5,453.9-651.8,441.1z"/>
	<path class="st0" d="M-539.6,569c6.5,0,12.6,0,17.7,0c-5.8,5.8-12,12.1-17.7,17.8C-539.6,582-539.6,575.7-539.6,569z"/>
	<path class="st0" d="M-660.1,448.7c-3,0-5.2,0-8,0c0-6.5-0.3-12.8,0.2-19c0.1-1.6,2.6-3.1,4-4.7c1.3,1.5,3.5,2.9,3.6,4.5
		C-659.8,435.7-660.1,442-660.1,448.7z"/>
	<path class="st0" d="M-628.1,448.7c-2.9,0-5.2,0-7.9,0c0-6.6-0.2-13.1,0.2-19.5c0.1-1.5,2.6-2.8,3.9-4.2c1.3,1.5,3.5,2.9,3.6,4.5
		C-627.8,435.7-628.1,442-628.1,448.7z"/>
	<path class="st0" d="M-580,448.7c0-6.7-0.2-13,0.2-19.2c0.1-1.6,2.4-3,3.7-4.5c1.4,1.4,3.8,2.7,3.9,4.2c0.4,6.4,0.2,12.8,0.2,19.4
		C-574.9,448.7-577.1,448.7-580,448.7z"/>
	<path class="st0" d="M-540.1,448.7c-2.8,0-5.1,0-7.9,0c0-6.6-0.2-13.2,0.2-19.8c0.1-1.4,2.7-2.6,4.2-3.9c1.2,1.6,3.3,3.1,3.4,4.7
		C-539.8,435.8-540.1,442-540.1,448.7z"/>
	<path d="M-580.1,536.9c0,9.1-0.1,17.4,0.1,25.7c0.1,4.4-1.4,6.3-6,6.3c-25.3-0.1-50.7-0.1-76,0c-4.6,0-6.2-1.7-6.1-6.2
		c0.1-20,0.1-40,0-60c0-4.3,1.5-6,5.9-5.9c38.8,0.1,77.7,0.1,116.5,0c4,0,5.8,1.3,5.8,5.5c-0.1,9.7-0.1,19.3,0,29
		c0.1,4.1-1.6,5.7-5.7,5.6C-557,536.8-568.2,536.9-580.1,536.9z M-659.9,528.5c10.8,0,21.2,0,31.4,0c0-8.1,0-15.8,0-23.4
		c-10.7,0-20.9,0-31.4,0C-659.9,513-659.9,520.6-659.9,528.5z M-588.4,528.6c0-8,0-15.7,0-23.4c-10.7,0-21,0-31.3,0
		c0,8,0,15.8,0,23.4C-609.1,528.6-598.8,528.6-588.4,528.6z M-548.3,505.2c-10.7,0-21.1,0-31.4,0c0,8,0,15.8,0,23.4
		c10.6,0,20.9,0,31.4,0C-548.3,520.8-548.3,513.2-548.3,505.2z M-659.8,560.6c10.6,0,21,0,31.4,0c0-8,0-15.7,0-23.3
		c-10.7,0-21.1,0-31.4,0C-659.8,545.2-659.8,552.8-659.8,560.6z M-619.8,560.6c10.6,0,21,0,31.4,0c0-8,0-15.7,0-23.3
		c-10.7,0-21.1,0-31.4,0C-619.8,545.2-619.8,552.8-619.8,560.6z"/>
	<path class="st0" d="M-659.9,528.5c0-7.9,0-15.5,0-23.4c10.5,0,20.7,0,31.4,0c0,7.6,0,15.3,0,23.4
		C-638.7,528.5-649.1,528.5-659.9,528.5z"/>
	<path class="st0" d="M-588.4,528.6c-10.4,0-20.7,0-31.3,0c0-7.7,0-15.4,0-23.4c10.3,0,20.7,0,31.3,0
		C-588.4,513-588.4,520.7-588.4,528.6z"/>
	<path class="st0" d="M-548.3,505.2c0,8,0,15.6,0,23.4c-10.5,0-20.8,0-31.4,0c0-7.7,0-15.4,0-23.4
		C-569.4,505.2-559,505.2-548.3,505.2z"/>
	<path class="st0" d="M-659.8,560.6c0-7.8,0-15.4,0-23.3c10.4,0,20.7,0,31.4,0c0,7.6,0,15.3,0,23.3
		C-638.9,560.6-649.2,560.6-659.8,560.6z"/>
	<path class="st0" d="M-619.8,560.6c0-7.8,0-15.3,0-23.3c10.3,0,20.7,0,31.4,0c0,7.6,0,15.3,0,23.3
		C-598.8,560.6-609.2,560.6-619.8,560.6z"/>
</g>
<g>
	<path class="st0" d="M-1182.9,217.6c0,28.9,0,57.5,0,86.2c21.9,0,43.6,0,65.3,0c0-11.4,0-22.7,0-33.9c-1,0-1.9,0-3,0
		c0,10.4,0,20.7,0,31c-19.9,0-39.6,0-59.3,0c0-26.8,0-53.5,0-80.1c14.9,0,29.6,0,44.5,0c0,4.7,0,9.3,0,13.9c0,1.6,0.5,2.4,2.3,2.3
		c2.6-0.1,5.2,0,7.8,0c1.6,0,3.2,0,4.9,0c0,2.3,0,4.2,0,6.2c1,0,1.9,0,2.9,0c0-2.2-0.1-4.3,0-6.4c0.1-1.4-0.3-2.4-1.3-3.5
		c-4.5-4.8-8.8-9.7-13.3-14.5c-0.6-0.7-1.8-1.1-2.7-1.2c-8.4-0.1-16.7-0.1-25.1-0.1C-1167.5,217.6-1175.1,217.6-1182.9,217.6z
		 M-1152.5,291.5c1.1-0.6,2.1-1.4,3.2-1.7c2.5-0.6,5.1-1,7.6-1.6c1-0.3,2.1-0.8,2.8-1.5c10.1-10,20.1-20.1,30.1-30.1
		c2.3-2.3,2.4-5,0.3-7.4c-1.1-1.2-2.2-2.3-3.4-3.4c-2.4-2.1-5.2-2-7.4,0.2c-10.1,10.1-20.2,20.2-30.2,30.3c-0.7,0.7-1.1,1.7-1.4,2.7
		c-1.2,3.5-0.6,7.7-3.4,10.6C-1153.7,290.3-1153.1,291-1152.5,291.5z M-1177,247.2c18,0,35.7,0,53.4,0c0-1,0-1.8,0-2.7
		c-17.9,0-35.6,0-53.4,0C-1177,245.4-1177,246.3-1177,247.2z M-1177,256.2c15,0,29.8,0,44.5,0c0-1,0-1.8,0-2.7
		c-14.9,0-29.7,0-44.5,0C-1177,254.4-1177,255.2-1177,256.2z M-1138.4,226.6c-12.9,0-25.7,0-38.6,0c0,1,0,1.8,0,2.8
		c12.9,0,25.7,0,38.6,0C-1138.4,228.5-1138.4,227.6-1138.4,226.6z M-1138.4,235.6c-13,0-25.8,0-38.6,0c0,1,0,1.9,0,2.7
		c12.9,0,25.7,0,38.6,0C-1138.4,237.3-1138.4,236.5-1138.4,235.6z M-1177,265.1c12,0,23.8,0,35.6,0c0-1,0-1.9,0-2.7
		c-11.9,0-23.7,0-35.6,0C-1177,263.3-1177,264.1-1177,265.1z M-1177,274c9,0,17.9,0,26.7,0c0-1,0-1.8,0-2.7c-8.9,0-17.8,0-26.7,0
		C-1177,272.2-1177,273.1-1177,274z M-1177,283c7.5,0,14.8,0,22.2,0c0-1,0-1.9,0-2.7c-7.5,0-14.8,0-22.2,0
		C-1177,281.2-1177,282-1177,283z M-1154.7,289.1c-7.5,0-14.8,0-22.2,0c0,1,0,1.9,0,2.8c7.4,0,14.8,0,22.2,0
		C-1154.7,291-1154.7,290.1-1154.7,289.1z"/>
	<path d="M-1182.9,217.6c7.8,0,15.4,0,23,0c8.4,0,16.7,0,25.1,0.1c0.9,0,2,0.5,2.7,1.2c4.5,4.8,8.9,9.7,13.3,14.5
		c1,1,1.4,2.1,1.3,3.5c-0.1,2.1,0,4.2,0,6.4c-1,0-1.9,0-2.9,0c0-2,0-3.9,0-6.2c-1.8,0-3.3,0-4.9,0c-2.6,0-5.2-0.1-7.8,0
		c-1.7,0.1-2.3-0.7-2.3-2.3c0.1-4.6,0-9.2,0-13.9c-14.8,0-29.6,0-44.5,0c0,26.7,0,53.3,0,80.1c19.8,0,39.4,0,59.3,0
		c0-10.3,0-20.6,0-31c1.1,0,1.9,0,3,0c0,11.3,0,22.5,0,33.9c-21.7,0-43.4,0-65.3,0C-1182.9,275.1-1182.9,246.5-1182.9,217.6z
		 M-1132.2,223.3c0,3.8,0,7.2,0,10.6c3.2,0,6.2,0,9.6,0C-1125.9,230.3-1128.9,226.9-1132.2,223.3z"/>
	<path d="M-1152.5,291.5c-0.5-0.6-1.1-1.2-1.8-1.9c2.8-2.9,2.2-7.1,3.4-10.6c0.3-1,0.7-2,1.4-2.7c10-10.1,20.1-20.2,30.2-30.3
		c2.2-2.2,5-2.3,7.4-0.2c1.2,1.1,2.4,2.2,3.4,3.4c2.1,2.4,2,5.1-0.3,7.4c-10,10-20,20.1-30.1,30.1c-0.7,0.7-1.8,1.2-2.8,1.5
		c-2.5,0.6-5.1,0.9-7.6,1.6C-1150.5,290.1-1151.4,290.9-1152.5,291.5z M-1138.2,281.2c7.8-7.7,15.5-15.5,23.4-23.3
		c-0.5-0.5-1.1-1.1-1.8-1.9c-7.4,7.5-14.7,14.8-21.9,21.9c-0.9-0.6-1.6-1.2-2.5-1.9c7.5-7.5,14.8-14.8,22.2-22.1
		c-0.8-0.8-1.4-1.4-1.8-1.7c-7.9,7.8-15.6,15.5-23.4,23.2c0.4,0.1,0.9,0.2,1.6,0.4c0,1.3,0,2.6,0,4c1.4,0,2.6,0,3.9,0
		C-1138.3,280.3-1138.3,280.8-1138.2,281.2z M-1118.5,249.7c2.1,2.1,4.1,4.1,6.1,6.1c3.2-2.8,3.2-2.8,0.2-5.8
		c-0.2-0.2-0.4-0.4-0.7-0.7C-1115.6,246.5-1115.9,246.5-1118.5,249.7z M-1149.3,286.6c2.3-0.5,4.2-1,6.2-1.2
		c1.7-0.2,2.3-0.9,1.6-2.7c-1.2,0-2.5,0-3.9,0c-0.1-1.5-0.1-2.7-0.2-4.5c-1,0.5-2.1,0.7-2.3,1.2
		C-1148.5,281.7-1148.8,284-1149.3,286.6z"/>
	<path d="M-1177,247.2c0-0.9,0-1.8,0-2.7c17.8,0,35.6,0,53.4,0c0,0.9,0,1.8,0,2.7C-1141.3,247.2-1159,247.2-1177,247.2z"/>
	<path d="M-1177,256.2c0-0.9,0-1.8,0-2.7c14.9,0,29.6,0,44.5,0c0,0.9,0,1.8,0,2.7C-1147.2,256.2-1162,256.2-1177,256.2z"/>
	<path d="M-1138.4,226.6c0,1,0,1.8,0,2.8c-12.9,0-25.7,0-38.6,0c0-1,0-1.8,0-2.8C-1164.1,226.6-1151.3,226.6-1138.4,226.6z"/>
	<path d="M-1138.4,235.6c0,1,0,1.8,0,2.7c-12.8,0-25.6,0-38.6,0c0-0.8,0-1.7,0-2.7C-1164.1,235.6-1151.3,235.6-1138.4,235.6z"/>
	<path d="M-1177,265.1c0-1,0-1.8,0-2.7c11.8,0,23.6,0,35.6,0c0,0.8,0,1.7,0,2.7C-1153.2,265.1-1165,265.1-1177,265.1z"/>
	<path d="M-1177,274c0-0.9,0-1.8,0-2.7c8.9,0,17.7,0,26.7,0c0,0.9,0,1.8,0,2.7C-1159.1,274-1168,274-1177,274z"/>
	<path d="M-1177,283c0-1,0-1.8,0-2.7c7.4,0,14.7,0,22.2,0c0,0.8,0,1.7,0,2.7C-1162.2,283-1169.5,283-1177,283z"/>
	<path d="M-1154.7,289.1c0,1,0,1.8,0,2.8c-7.4,0-14.7,0-22.2,0c0-0.9,0-1.8,0-2.8C-1169.6,289.1-1162.2,289.1-1154.7,289.1z"/>
	<path class="st0" d="M-1132.2,223.3c3.3,3.6,6.4,7,9.6,10.6c-3.4,0-6.4,0-9.6,0C-1132.2,230.5-1132.2,227.1-1132.2,223.3z"/>
	<path class="st0" d="M-1138.2,281.2c-0.1-0.4-0.1-0.9-0.2-1.4c-1.3,0-2.5,0-3.9,0c0-1.4,0-2.6,0-4c-0.6-0.2-1.1-0.3-1.6-0.4
		c7.7-7.7,15.5-15.3,23.4-23.2c0.3,0.3,1,0.9,1.8,1.7c-7.4,7.4-14.7,14.6-22.2,22.1c0.9,0.7,1.6,1.2,2.5,1.9
		c7.1-7.2,14.4-14.5,21.9-21.9c0.8,0.8,1.4,1.4,1.8,1.9C-1122.7,265.7-1130.4,273.4-1138.2,281.2z"/>
	<path class="st0" d="M-1118.5,249.7c2.6-3.2,2.9-3.2,5.7-0.3c0.2,0.2,0.4,0.4,0.7,0.7c2.9,3,2.9,3-0.2,5.8
		C-1114.4,253.7-1116.4,251.7-1118.5,249.7z"/>
	<path class="st0" d="M-1149.3,286.6c0.5-2.7,0.9-5,1.5-7.2c0.1-0.5,1.3-0.7,2.3-1.2c0.1,1.8,0.1,3.1,0.2,4.5c1.3,0,2.6,0,3.9,0
		c0.7,1.8,0.1,2.5-1.6,2.7C-1145.1,285.7-1147,286.2-1149.3,286.6z"/>
</g>
<g>
	<path class="st0" d="M184.9,391.9c1.3-2,3-4,4-6.2c8.7-19.8,17.4-39.6,26-59.4c1.5-3.4,3.6-5.4,7-7c34.2-16.2,53.8-43.4,56.5-81
		c4.6-62.9-51.8-112-113.7-100.4c-34.7,6.5-72.5,36-77.2,85.8c-3.7,39.5,18.1,78.4,56.4,95.5c3.5,1.5,5.6,3.7,7,7.1
		c8.5,19.9,17.2,39.7,26,59.5c1,2.2,2.6,4.1,4,6.2"/>
	<path d="M180.9,391.9c-1.3-2-3-4-4-6.2c-8.7-19.8-17.4-39.6-26-59.5c-1.5-3.4-3.6-5.5-7-7.1c-38.3-17.1-60.1-56-56.4-95.5
		c4.6-49.8,42.5-79.3,77.2-85.8c61.9-11.6,118.4,37.5,113.7,100.4c-2.8,37.6-22.4,64.7-56.5,81c-3.4,1.6-5.6,3.6-7,7
		c-8.6,19.9-17.2,39.7-26,59.4c-1,2.2-2.6,4.1-4,6.2C183.6,391.9,182.3,391.9,180.9,391.9z M182.9,372.3c8-18.3,15.6-35.1,22.7-52.1
		c2.2-5.1,5.3-8.1,10.4-10.4c30.9-13.9,48.8-38.1,51.4-71.7c4.3-56.1-44.5-99.6-99.9-90.2c-45,7.6-76.8,52.3-68.9,97.1
		c5.5,31.5,23.5,53.4,52.9,65.8c3.6,1.5,6.1,3.5,7.5,7.3c2.1,5.4,4.6,10.7,7,16C171.5,346.4,176.9,358.7,182.9,372.3z"/>
	<path class="st0" d="M182.9,372.3c-6-13.6-11.5-25.9-16.9-38.2c-2.4-5.3-4.9-10.6-7-16c-1.4-3.8-3.9-5.8-7.5-7.3
		c-29.4-12.4-47.4-34.3-52.9-65.8c-7.9-44.8,23.9-89.5,68.9-97.1c55.4-9.4,104.2,34.1,99.9,90.2c-2.6,33.6-20.5,57.8-51.4,71.7
		c-5.1,2.3-8.3,5.3-10.4,10.4C198.5,337.2,190.9,354.1,182.9,372.3z M183.3,178.5c-29.8-0.1-53.4,23.3-53.6,53
		c-0.2,30,23.5,53.9,53.8,54.2c28.5,0.2,53.5-24.7,53.4-53.3C236.8,202.6,213,178.6,183.3,178.5z"/>
	<path d="M183.3,178.5c29.7,0.1,53.5,24.1,53.6,53.9c0,28.6-25,53.5-53.4,53.3c-30.2-0.2-54-24.2-53.8-54.2
		C129.9,201.8,153.5,178.4,183.3,178.5z M139.9,231.8c-0.1,23.4,19.4,43,42.9,43.1c23.4,0.1,43.1-19.6,43.1-43
		c0-23.3-19.3-42.9-42.5-43C159.5,188.7,140.1,207.9,139.9,231.8z"/>
</g>
</svg>
