<?xml version="1.0" encoding="utf-8"?>
<!-- Generator: Adobe Illustrator 19.1.1, SVG Export Plug-In . SVG Version: 6.00 Build 0)  -->
<svg version="1.1" id="Calque_1" xmlns="http://www.w3.org/2000/svg" xmlns:xlink="http://www.w3.org/1999/xlink" x="0px" y="0px"
	 viewBox="-210 12.3 537.7 537.7" style="enable-background:new -210 12.3 537.7 537.7;" xml:space="preserve">
<style type="text/css">
	.st0{fill:#333366;}
</style>
<g>
	<path class="st0" d="M62.3,60.2c5,2.8,10.2,5.3,14.9,8.5c25.6,17.3,52.2,32.4,81.4,42.8c19.8,7,40.1,11.3,60.9,13.5
		c4.1,0.4,8.3,1,12.4,1.7c12.3,2.3,18.2,9.1,18.4,21.7c0.2,10.9,0.1,21.9,0.1,32.8c-0.2,39.7-0.7,79.4-0.7,119.1
		c0,37.1-12.9,69.3-35,98.5c-26.8,35.2-61.3,60.8-100.4,80.6c-14.2,7.2-29,13.3-43.5,19.9c-7.7,3.5-15.3,3.6-23.4,0.4
		c-34.3-13.5-66.8-30.1-96-52.9c-25.6-20-48.3-42.6-64-71.5c-13.7-25.2-19.8-52.3-19.9-80.8c-0.2-47.3-0.3-94.7-0.4-142
		c0-18.8,5.7-25.2,24.5-26.6c41.2-3,79.2-16.3,114.9-36.5c11.7-6.6,23-14.3,34.5-21.3c4.6-2.8,9.5-5.3,14.2-8
		C57.6,60.2,59.9,60.2,62.3,60.2z M-107.8,150.7c0,1.5,0,2.3,0,3.2c0.1,47.2,0,94.4,0.4,141.6c0.1,9.2,1.1,18.4,2.7,27.4
		c5.5,32.1,22.1,58.2,44.7,80.9c33.3,33.5,73.3,56.1,116.9,72.9c1.3,0.5,3.2,0.4,4.4-0.2c19.3-9.2,39.1-17.5,57.8-27.9
		c32.9-18.3,61.2-42.4,82.4-74c14.7-21.9,23.2-45.7,23.2-72.3c0.1-49.2,0.5-98.4,0.7-147.6c0-1.2-0.1-2.5-0.3-4.4
		c-62.3-3.8-116.3-29.1-166.4-64.2C8.4,120.9-45.3,146.5-107.8,150.7z"/>
	<path class="st0" d="M34.6,317.5c2-2.5,2.9-3.9,4.1-5.2c23.1-23.1,46.1-46.2,69.2-69.2c8-8,19.4-5.5,22,4.7
		c1.2,4.6-0.4,8.5-3.6,11.8c-3.5,3.6-7.1,7.1-10.7,10.7c-23.5,23.5-47,47-70.5,70.5c-7.5,7.5-13.6,7.4-21.2-0.1
		c-10.7-10.7-21.3-21.4-32.1-32c-3.6-3.6-5.8-7.6-4.6-12.7c2.2-9.7,13.6-13,21-5.9c7.8,7.5,15.3,15.2,22.9,22.9
		C32.3,314,33,315.3,34.6,317.5z"/>
</g>
</svg>
