<?xml version="1.0" encoding="utf-8"?>
<!-- Generator: Adobe Illustrator 19.1.1, SVG Export Plug-In . SVG Version: 6.00 Build 0)  -->
<svg version="1.1" id="Capa_1" xmlns="http://www.w3.org/2000/svg" xmlns:xlink="http://www.w3.org/1999/xlink" x="0px" y="0px"
	 viewBox="-41 164.9 512 512" style="enable-background:new -41 164.9 512 512;" xml:space="preserve">
<g>
	<g>
		<path d="M471,329.9c0-6-1.2-11.8-3.5-17.3c0,0,0,0,0,0l-50-120c-7-16.8-23.3-27.7-41.5-27.7H54c-18.2,0-34.5,10.9-41.5,27.7
			l-50,120c-2.3,5.5-3.5,11.3-3.5,17.3v62c0,11.5,4.4,22,11.5,30c-7.1,8-11.5,18.5-11.5,30v60c0,11.5,4.4,22,11.5,30
			c-7.1,8-11.5,18.5-11.5,30v60c0,24.8,20.2,45,45,45h422c24.8,0,45-20.2,45-45v-60c0-11.5-4.4-22-11.5-30c7.1-8,11.5-18.5,11.5-30
			v-60c0-11.5-4.4-22-11.5-30c7.1-8,11.5-18.5,11.5-30V329.9z M40.2,204.1c2.3-5.6,7.8-9.2,13.8-9.2h322c6.1,0,11.5,3.6,13.8,9.2
			l33.7,80.8H6.5L40.2,204.1z M441,631.9c0,8.3-6.7,15-15,15H4c-8.3,0-15-6.7-15-15v-60c0-8.3,6.7-15,15-15h422c8.3,0,15,6.7,15,15
			V631.9z M441,511.9c0,8.3-6.7,15-15,15H4c-8.3,0-15-6.7-15-15v-60c0-8.3,6.7-15,15-15h422c8.3,0,15,6.7,15,15V511.9z M441,391.9
			c0,8.3-6.7,15-15,15H4c-8.3,0-15-6.7-15-15v-62c0-8.3,6.7-15,15-15h422c8.3,0,15,6.7,15,15V391.9z"/>
	</g>
</g>
<g>
	<g>
		<path d="M396,351H124c-8.3,0-15,4-15,8.9c0,4.9,6.7,8.9,15,8.9h272c8.3,0,15-4,15-8.9C411,355,404.3,351,396,351z"/>
	</g>
</g>
<g>
	<g>
		<path d="M396,473H124c-8.3,0-15,4-15,8.9c0,4.9,6.7,8.9,15,8.9h272c8.3,0,15-4,15-8.9C411,477,404.3,473,396,473z"/>
	</g>
</g>
<g>
	<g>
		<path d="M396,593H124c-8.3,0-15,4-15,8.9s6.7,8.9,15,8.9h272c8.3,0,15-4,15-8.9S404.3,593,396,593z"/>
	</g>
</g>
<g>
	<g>
		<path d="M34,344.9c-8.3,0-15,6.7-15,15s6.7,17,15,17s15-8.7,15-17S42.3,344.9,34,344.9z"/>
	</g>
</g>
<g>
	<g>
		<circle cx="34" cy="481.9" r="15"/>
	</g>
</g>
<g>
	<g>
		<circle cx="34" cy="601.9" r="15"/>
	</g>
</g>
</svg>
