<?xml version="1.0" encoding="iso-8859-1"?>
<!-- Generator: Adobe Illustrator 19.0.0, SVG Export Plug-In . SVG Version: 6.00 Build 0)  -->
<svg version="1.1" id="Capa_1" xmlns="http://www.w3.org/2000/svg" xmlns:xlink="http://www.w3.org/1999/xlink" x="0px" y="0px"
	 viewBox="0 0 512 512" style="enable-background:new 0 0 512 512;" xml:space="preserve">
<g>
	<g>
		<path d="M122,0v49.599L82.347,80L122,110.401V160h390V0H122z M482,130H152V95.599L131.653,80L152,64.401V30h330V130z"/>
	</g>
</g>
<g>
	<g>
		<rect x="182" y="45" width="280" height="30"/>
	</g>
</g>
<g>
	<g>
		<rect x="182" y="85" width="230" height="30"/>
	</g>
</g>
<g>
	<g>
		<path d="M122,176v49.599L82.347,256L122,286.401V336h390V176H122z M482,306H152v-34.401L131.653,256L152,240.401V206h330V306z"/>
	</g>
</g>
<g>
	<g>
		<rect x="182" y="221" width="280" height="30"/>
	</g>
</g>
<g>
	<g>
		<rect x="182" y="261" width="230" height="30"/>
	</g>
</g>
<g>
	<g>
		<path d="M122,352v49.599L82.347,432L122,462.401V512h390V352H122z M482,482H152v-34.401L131.653,432L152,416.401V382h330V482z"/>
	</g>
</g>
<g>
	<g>
		<rect x="182" y="397" width="280" height="30"/>
	</g>
</g>
<g>
	<g>
		<rect x="182" y="437" width="230" height="30"/>
	</g>
</g>
<g>
	<g>
		<path d="M80,256c0-16.753-10.357-31.124-25-37.071V117.071C69.643,111.124,80,96.753,80,80S69.643,48.876,55,42.929V0H25v42.929
			C10.357,48.876,0,63.247,0,80s10.357,31.124,25,37.071v101.858C10.357,224.876,0,239.247,0,256s10.357,31.124,25,37.071v101.858
			C10.357,400.876,0,415.247,0,432s10.357,31.124,25,37.071V512h30v-42.929c14.643-5.947,25-20.318,25-37.071
			s-10.357-31.124-25-37.071V293.071C69.643,287.124,80,272.753,80,256z M40,442c-5.514,0-10-4.486-10-10c0-5.514,4.486-10,10-10
			s10,4.486,10,10C50,437.514,45.514,442,40,442z M40,266c-5.514,0-10-4.486-10-10c0-5.514,4.486-10,10-10s10,4.486,10,10
			C50,261.514,45.514,266,40,266z M40,90c-5.514,0-10-4.486-10-10s4.486-10,10-10s10,4.486,10,10S45.514,90,40,90z"/>
	</g>
</g>
<g>
</g>
<g>
</g>
<g>
</g>
<g>
</g>
<g>
</g>
<g>
</g>
<g>
</g>
<g>
</g>
<g>
</g>
<g>
</g>
<g>
</g>
<g>
</g>
<g>
</g>
<g>
</g>
<g>
</g>
</svg>
