<?xml version="1.0" encoding="utf-8"?>
<!-- Generator: Adobe Illustrator 19.1.1, SVG Export Plug-In . SVG Version: 6.00 Build 0)  -->
<svg version="1.1" id="Calque_1" xmlns="http://www.w3.org/2000/svg" xmlns:xlink="http://www.w3.org/1999/xlink" x="0px" y="0px"
	 viewBox="0 0 153.6 89.6" style="enable-background:new 0 0 153.6 89.6;" xml:space="preserve">
<style type="text/css">
	.st0{fill:#FFFFFF;}
	.st1{fill:#1473E6;}
</style>
<g>
	<path class="st0" d="M88.9,87.5h-24c-20.4,0-37-16.6-37-37v-10c0-20.4,16.6-37,37-37h24c20.4,0,37,16.6,37,37v10
		C125.9,70.9,109.4,87.5,88.9,87.5z"/>
	<path class="st1" d="M49.6,63.3c5.1,3.2,11.1,5.1,17.5,5.1c18.1,0,32.8-14.7,32.8-32.8c0-0.4,0-0.9,0-1.3c0.6-0.5,4.7-3.7,5.7-5.8
		c0,0-3.3,1.4-6.5,1.7l0,0l0,0c0.3-0.2,4.4-3,5-6.4c0,0-2.3,1.3-5.6,2.3c-0.5,0.2-1.1,0.4-1.7,0.5c-2.1-2.2-5.1-3.6-8.4-3.6
		c-6.3,0-11.5,5.1-11.5,11.5c0,0.9,0.1,1.8,0.3,2.6c-0.9-0.1-14.4-0.8-23.6-11.9c0,0-5.5,7.5,3.3,15.2c0,0-2.7-0.1-5-1.5
		c0,0-0.8,9.1,9.1,11.4c0,0-2,0.8-5.1,0.2c0,0,1.7,7.4,10.6,8.1C66.5,58.5,59.5,64.8,49.6,63.3L49.6,63.3z"/>
</g>
</svg>
