<?xml version="1.0" encoding="utf-8"?>
<!-- Generator: Adobe Illustrator 19.1.1, SVG Export Plug-In . SVG Version: 6.00 Build 0)  -->
<svg version="1.1" id="Capa_1" xmlns="http://www.w3.org/2000/svg" xmlns:xlink="http://www.w3.org/1999/xlink" x="0px" y="0px"
	 viewBox="-41 164.9 512 512" style="enable-background:new -41 164.9 512 512;" xml:space="preserve">
<g>
	<path d="M272,405.9h-2v-23c0-30.3-24.7-55-55-55s-55,24.7-55,55v23h-2c-8.3,0-15,6.7-15,15v78c0,8.3,6.7,15,15,15h114
		c8.3,0,15-6.7,15-15v-78C287,412.6,280.3,405.9,272,405.9z M190,382.9c0-13.8,11.2-25,25-25s25,11.2,25,25v23h-50V382.9z
		 M257,483.9h-84v-48c10.3,0,76.5,0,84,0V483.9z"/>
</g>
<g>
	<path d="M421,576.9c-8.3,0-16.2,2.1-23.1,5.7L363,547.7c29.3-34.1,47-78.4,47-126.8s-17.7-92.7-47-126.8l34.9-34.9
		c6.9,3.6,14.8,5.7,23.1,5.7c27.6,0,50-22.4,50-50s-22.4-50-50-50s-50,22.4-50,50c0,8.3,2.1,16.2,5.7,23.1l-34.9,34.9
		c-34.1-29.3-78.4-47-126.8-47s-92.7,17.7-126.8,47L53.3,238c3.6-6.9,5.7-14.8,5.7-23.1c0-27.6-22.4-50-50-50s-50,22.4-50,50
		s22.4,50,50,50c8.3,0,16.2-2.1,23.1-5.7L67,294.1c-29.3,34.1-47,78.4-47,126.8s17.7,92.7,47,126.8l-34.9,34.9
		c-6.9-3.6-14.8-5.7-23.1-5.7c-27.6,0-50,22.4-50,50s22.4,50,50,50s50-22.4,50-50c0-8.3-2.1-16.2-5.7-23.1l34.9-34.9
		c34.1,29.3,78.4,47,126.8,47s92.7-17.7,126.8-47l34.9,34.9c-3.6,6.9-5.7,14.8-5.7,23.1c0,27.6,22.4,50,50,50s50-22.4,50-50
		S448.6,576.9,421,576.9z M421,194.9c11,0,20,9,20,20s-9,20-20,20s-20-9-20-20S410,194.9,421,194.9z M9,234.9c-11,0-20-9-20-20
		s9-20,20-20s20,9,20,20S20,234.9,9,234.9z M9,646.9c-11,0-20-9-20-20s9-20,20-20s20,9,20,20S20,646.9,9,646.9z M215,585.9
		c-91,0-165-74-165-165s74-165,165-165s165,74,165,165S306,585.9,215,585.9z M421,646.9c-11,0-20-9-20-20s9-20,20-20s20,9,20,20
		S432,646.9,421,646.9z"/>
</g>
</svg>
