<?xml version="1.0" encoding="utf-8"?>
<!-- Generator: Adobe Illustrator 19.1.1, SVG Export Plug-In . SVG Version: 6.00 Build 0)  -->
<svg version="1.1" id="Calque_1" xmlns="http://www.w3.org/2000/svg" xmlns:xlink="http://www.w3.org/1999/xlink" x="0px" y="0px"
	 viewBox="0 0 87.9 92.1" style="enable-background:new 0 0 87.9 92.1;" xml:space="preserve">
<style type="text/css">
	.st0{fill:#333366;}
</style>
<path class="st0" d="M67.9,44.4c-0.1-3.7-0.6-7.3-1.3-10.7H76c1.4,3.3,2.3,6.9,2.6,10.7H67.9z M76,60.4h-9.4c0.7-3.4,1.2-7,1.3-10.7
	h10.6C78.2,53.5,77.4,57.1,76,60.4z M58.9,78.3c2.6-3.4,4.7-7.7,6.3-12.6h8C69.7,71.1,64.8,75.5,58.9,78.3z M46.6,81.4V65.7h13.1
	C56.8,74,52.1,79.9,46.6,81.4z M46.6,49.7h15.9c-0.2,3.8-0.6,7.3-1.4,10.7H46.6V49.7z M46.6,33.7h14.6c0.8,3.3,1.2,6.9,1.4,10.7
	H46.6V33.7z M46.6,12.7c5.5,1.5,10.2,7.3,13.1,15.7H46.6V12.7z M73.2,28.4h-8c-1.6-4.9-3.7-9.2-6.3-12.6
	C64.8,18.6,69.7,23,73.2,28.4z M41.3,28.4H28.2c2.9-8.3,7.6-14.2,13.1-15.7V28.4z M41.3,44.4H25.4c0.2-3.8,0.6-7.3,1.4-10.7h14.6
	V44.4z M41.3,60.4H26.7c-0.8-3.3-1.2-6.9-1.4-10.7h15.9V60.4z M41.3,81.4c-5.5-1.5-10.2-7.4-13.1-15.7h13.1V81.4z M14.7,65.7h8
	c1.6,4.9,3.7,9.2,6.3,12.6C23.2,75.5,18.2,71.1,14.7,65.7z M9.4,49.7H20c0.1,3.7,0.6,7.3,1.3,10.7H12C10.6,57.1,9.7,53.5,9.4,49.7z
	 M12,33.7h9.4c-0.7,3.4-1.2,6.9-1.3,10.7H9.4C9.7,40.6,10.6,37,12,33.7z M29,15.8c-2.6,3.4-4.7,7.7-6.3,12.6h-8
	C18.2,23,23.2,18.6,29,15.8z M83.9,44.4c-1.3-20-17.3-35.9-37.2-37.2V7H44h-2.7v0.1C21.3,8.5,5.4,24.4,4.1,44.4H4V47v2.7h0.1
	c1.3,20,17.3,35.9,37.2,37.2V87H44h2.7V87c20-1.3,35.9-17.3,37.2-37.2H84V47L83.9,44.4L83.9,44.4z"/>
</svg>
