<?xml version="1.0" encoding="utf-8"?>
<!-- Generator: Adobe Illustrator 19.1.1, SVG Export Plug-In . SVG Version: 6.00 Build 0)  -->
<svg version="1.1" id="logo_aetia" xmlns="http://www.w3.org/2000/svg" xmlns:xlink="http://www.w3.org/1999/xlink" x="0px" y="0px"
	 viewBox="-379 239.3 200 82.7" style="enable-background:new -379 239.3 200 82.7;" xml:space="preserve">
<style type="text/css">
	.st0{enable-background:new    ;}
</style>
<g>
	<path d="M-341.8,255.4l15.6,42.5h-8.7c-1.8,0-3.4-1.2-3.9-2.9l-1.3-4.2h-16.3l-1.3,4.2c-0.5,1.7-2.1,2.9-3.9,2.9h-8.7l15.8-42.5
		c0.4-1,1.3-1.7,2.4-1.7h7.9C-343,253.8-342,254.4-341.8,255.4z M-348.3,264.3c-0.6,2.3-1.2,4.6-1.8,6.8c-0.9,3.3-2.6,8.5-3.6,11.8
		h11.2L-348.3,264.3z"/>
	<path d="M-197.4,255.4l15.6,42.5h-8.7c-1.8,0-3.4-1.2-3.9-2.9l-1.3-4.2h-16.3l-1.3,4.2c-0.5,1.7-2.1,2.9-3.9,2.9h-8.7l15.8-42.5
		c0.4-1,1.3-1.7,2.4-1.7h7.9C-198.6,253.8-197.8,254.4-197.4,255.4z M-203.9,264.3c-0.6,2.3-1.2,4.6-1.8,6.8
		c-0.9,3.3-2.6,8.5-3.6,11.8h11.2L-203.9,264.3z"/>
	<g>
		<path d="M-288.5,253.8v5.9c0,1.6-1.3,2.8-2.8,2.8h-19.1v9.1h19.7v8.4H-309c-0.8,0-1.4,0.6-1.4,1.4v7.7h22.6v5.9
			c0,1.6-1.3,2.8-2.8,2.8h-29.6v-42.6c0-0.8,0.6-1.4,1.4-1.4H-288.5L-288.5,253.8z"/>
		<path d="M-260.5,263.8V295c0,1.6-1.3,2.8-2.8,2.8h-7v-35.5h-12.5v-8.5h34.8v8.5h-11.1C-259.8,262.4-260.5,263-260.5,263.8z"/>
		<path d="M-240.8,253.8h9.8V295c0,1.6-1.3,2.8-2.8,2.8h-7V253.8z"/>
	</g>
	<path d="M-326.1,297.6l-4.6-12.5c0-0.1-0.1-0.2-0.1-0.3l-4.6-12.4c-0.1,0.9-0.1,1.8-0.1,2.7C-335.5,284-332,292-326.1,297.6z"/>
	<path d="M-277.3,265.5c1.1,3,1.7,6.3,1.7,9.6c0,15.7-12.8,28.5-28.5,28.5c-4.2,0-8.3-0.9-11.9-2.6h-4.4v1.1
		c4.7,2.9,10.3,4.5,16.2,4.5c17.4,0,31.5-14.1,31.5-31.5c0-3.4-0.5-6.6-1.5-9.6H-277.3z"/>
	<g>
		<path d="M-284.5,250.6c-5.4-4.3-12.2-6.9-19.6-6.9c-14.3,0-26.4,9.6-30.2,22.6l2,5.3c1.8-14,13.8-24.9,28.2-24.9
			c5.2,0,10.1,1.4,14.3,3.9H-284.5z"/>
	</g>
	<g class="st0">
		<path d="M-272.9,314.8L-272.9,314.8l1.2-5.8h1.8l-2,8.5h-1.6l-1.6-5.6l0,0l-1.6,5.6h-1.6l-2-8.5h1.8l1.1,5.8l0,0l1.5-5.8h1.4
			L-272.9,314.8z"/>
		<path d="M-264.1,313.8h-3.2v2.4h3.8v1.3h-5.5V309h5.5v1.3h-3.8v2.1h3.2V313.8z"/>
		<path d="M-262.4,317.5V309h2.8c1,0,1.8,0.2,2.3,0.6c0.5,0.4,0.8,1,0.8,1.7c0,0.4-0.1,0.7-0.3,1c-0.2,0.3-0.5,0.5-0.9,0.7
			c0.5,0.1,0.9,0.3,1.2,0.7c0.3,0.4,0.4,0.8,0.4,1.3c0,0.8-0.3,1.4-0.8,1.9s-1.3,0.6-2.3,0.6C-259.1,317.4-262.4,317.4-262.4,317.5z
			 M-260.5,312.5h1.1c0.5,0,0.8-0.1,1.1-0.3c0.3-0.2,0.4-0.5,0.4-0.8c0-0.4-0.1-0.7-0.4-0.9c-0.3-0.2-0.6-0.3-1.1-0.3h-1.1V312.5z
			 M-260.5,313.6v2.5h1.6c0.5,0,0.8-0.1,1-0.3c0.2-0.2,0.4-0.5,0.4-0.9c0-0.4-0.1-0.7-0.4-1c-0.3-0.3-0.6-0.3-1.1-0.3
			C-259,313.6-260.5,313.6-260.5,313.6z"/>
		<path d="M-250.3,315.3L-250.3,315.3l2.2-6.3h2.2v8.5h-1.7v-5.8l0,0l-2.1,5.8h-1.2l-2.1-5.8l0,0v5.8h-1.7V309h2.2L-250.3,315.3z"/>
		<path d="M-239.6,315.6h-2.8l-0.6,1.8h-1.8l2.9-8.5h1.8l2.9,8.5h-1.8L-239.6,315.6z M-242,314.3h1.9l-0.9-3l0,0L-242,314.3z"/>
		<path d="M-234.8,314v3.4h-1.7V309h3c1,0,1.7,0.2,2.3,0.7s0.8,1.1,0.8,1.9c0,0.4-0.1,0.8-0.3,1.1c-0.2,0.3-0.6,0.6-1,0.8
			c0.5,0.1,0.9,0.4,1.1,0.7s0.3,0.8,0.3,1.3v0.6c0,0.2,0,0.5,0.1,0.7c0.1,0.2,0.2,0.5,0.3,0.6v0.1h-1.8c-0.2-0.1-0.3-0.3-0.3-0.6
			s-0.1-0.6-0.1-0.8v-0.6c0-0.4-0.1-0.8-0.3-1c-0.2-0.2-0.6-0.4-1-0.4H-234.8z M-234.8,312.8h1.2c0.5,0,0.8-0.1,1.1-0.3
			c0.3-0.2,0.4-0.5,0.4-0.9c0-0.4-0.1-0.7-0.4-0.9s-0.6-0.3-1-0.3h-1.2v2.4H-234.8z"/>
		<path d="M-226.5,313.9h-0.7v3.6h-1.7V309h1.7v3.5h0.5l2.3-3.5h2.1l-3,4l3.2,4.6h-2.1L-226.5,313.9z"/>
		<path d="M-216.4,313.8h-3.2v2.4h3.8v1.3h-5.4V309h5.5v1.3h-3.8v2.1h3.2v1.4H-216.4z"/>
		<path d="M-208.5,310.3h-2.4v7.2h-1.7v-7.2h-2.5V309h6.6V310.3z"/>
		<path d="M-205.8,317.5h-1.7V309h1.7V317.5z"/>
		<path d="M-197.3,317.5h-1.7l-3.4-5.8l0,0v5.8h-1.8V309h1.7l3.4,5.7l0,0V309h1.7v8.5H-197.3z"/>
		<path d="M-189,316.3c-0.3,0.3-0.7,0.6-1.2,0.9c-0.5,0.3-1.2,0.4-2,0.4c-1,0-1.9-0.3-2.5-1c-0.6-0.7-1-1.5-1-2.5v-1.8
			c0-1,0.3-1.9,1-2.5c0.7-0.6,1.5-1,2.5-1s1.8,0.2,2.4,0.7c0.6,0.5,0.8,1.2,0.8,2l0,0h-1.6c0-0.5-0.1-0.8-0.4-1.1s-0.6-0.4-1.1-0.4
			s-0.9,0.2-1.3,0.6c-0.4,0.4-0.5,0.9-0.5,1.6v1.8c0,0.6,0.2,1.2,0.5,1.6c0.3,0.4,0.8,0.6,1.3,0.6c0.4,0,0.7,0,1-0.1
			c0.3-0.1,0.4-0.2,0.5-0.3V314h-1.6v-1.2h3.4v3.4H-189z"/>
	</g>
</g>
</svg>
