<?xml version="1.0" encoding="utf-8"?>
<!-- Generator: Adobe Illustrator 19.1.1, SVG Export Plug-In . SVG Version: 6.00 Build 0)  -->
<svg version="1.1" id="logo_aetia" xmlns="http://www.w3.org/2000/svg" xmlns:xlink="http://www.w3.org/1999/xlink" x="0px" y="0px"
	 viewBox="50 5.3 200 82.7" style="enable-background:new 50 5.3 200 82.7;" xml:space="preserve">
<style type="text/css">
	.st0{fill:#FFFFFF;}
	.st1{enable-background:new    ;}
</style>
<g>
	<path class="st0" d="M87.4,22L103,64.5h-8.7c-1.8,0-3.4-1.2-3.9-2.9l-1.3-4.2H72.8l-1.3,4.2c-0.5,1.7-2.1,2.9-3.9,2.9h-8.7L74.7,22
		c0.4-1,1.3-1.7,2.4-1.7H85C86.1,20.3,87.1,21,87.4,22z M80.9,30.8c-0.6,2.3-1.2,4.6-1.8,6.8c-0.9,3.3-2.6,8.5-3.6,11.8h11.2
		L80.9,30.8z"/>
	<path class="st0" d="M231.8,22l15.6,42.5h-8.7c-1.8,0-3.4-1.2-3.9-2.9l-1.3-4.2h-16.3l-1.3,4.2c-0.5,1.7-2.1,2.9-3.9,2.9h-8.7
		L219.1,22c0.4-1,1.3-1.7,2.4-1.7h7.9C230.5,20.3,231.4,21,231.8,22z M225.3,30.8c-0.6,2.3-1.2,4.6-1.8,6.8
		c-0.9,3.3-2.6,8.5-3.6,11.8h11.2L225.3,30.8z"/>
	<g>
		<path class="st0" d="M140.6,20.4v5.9c0,1.6-1.3,2.8-2.8,2.8h-19.1v9.1h19.7v8.4h-18.3c-0.8,0-1.4,0.6-1.4,1.4v7.7h22.6v5.9
			c0,1.6-1.3,2.8-2.8,2.8h-29.6V21.8c0-0.8,0.6-1.4,1.4-1.4H140.6L140.6,20.4z"/>
		<path class="st0" d="M168.7,30.3v31.3c0,1.6-1.3,2.8-2.8,2.8h-7V28.9h-12.5v-8.5h34.8v8.5h-11.1C169.4,28.9,168.7,29.5,168.7,30.3
			z"/>
		<path class="st0" d="M188.4,20.4h9.8v41.2c0,1.6-1.3,2.8-2.8,2.8h-7V20.4z"/>
	</g>
	<path class="st0" d="M103,64.2l-4.6-12.5c0-0.1-0.1-0.2-0.1-0.3L93.7,39c-0.1,0.9-0.1,1.8-0.1,2.7C93.6,50.6,97.2,58.5,103,64.2z"
		/>
	<path class="st0" d="M151.9,32.1c1.1,3,1.7,6.3,1.7,9.6c0,15.7-12.8,28.5-28.5,28.5c-4.2,0-8.3-0.9-11.9-2.6h-4.4v1.1
		c4.7,2.9,10.3,4.5,16.2,4.5c17.4,0,31.5-14.1,31.5-31.5c0-3.4-0.5-6.6-1.5-9.6H151.9z"/>
	<g>
		<path class="st0" d="M144.7,17.2c-5.4-4.3-12.2-6.9-19.6-6.9c-14.3,0-26.4,9.6-30.2,22.6l2,5.3c1.8-14,13.8-24.9,28.2-24.9
			c5.2,0,10.1,1.4,14.3,3.9H144.7z"/>
	</g>
	<g class="st1">
		<path class="st0" d="M156.3,81.3L156.3,81.3l1.2-5.8h1.8l-2,8.5h-1.6l-1.6-5.6h0l-1.6,5.6h-1.6l-2-8.5h1.8l1.1,5.8h0l1.5-5.8h1.4
			L156.3,81.3z"/>
		<path class="st0" d="M165,80.3h-3.2v2.4h3.8V84h-5.5v-8.5h5.5v1.3h-3.8v2.1h3.2V80.3z"/>
		<path class="st0" d="M166.8,84v-8.5h2.8c1,0,1.8,0.2,2.3,0.6s0.8,1,0.8,1.7c0,0.4-0.1,0.7-0.3,1s-0.5,0.5-0.9,0.7
			c0.5,0.1,0.9,0.3,1.2,0.7s0.4,0.8,0.4,1.3c0,0.8-0.3,1.4-0.8,1.9s-1.3,0.6-2.3,0.6H166.8z M168.6,79h1.1c0.5,0,0.8-0.1,1.1-0.3
			s0.4-0.5,0.4-0.8c0-0.4-0.1-0.7-0.4-0.9s-0.6-0.3-1.1-0.3h-1.1V79z M168.6,80.2v2.5h1.6c0.5,0,0.8-0.1,1-0.3s0.4-0.5,0.4-0.9
			c0-0.4-0.1-0.7-0.4-1s-0.6-0.3-1.1-0.3H168.6z"/>
		<path class="st0" d="M178.9,81.8L178.9,81.8l2.2-6.3h2.2V84h-1.7v-5.8l0,0l-2.1,5.8h-1.2l-2.1-5.8l0,0V84h-1.7v-8.5h2.2
			L178.9,81.8z"/>
		<path class="st0" d="M189.5,82.2h-2.8l-0.6,1.8h-1.8l2.9-8.5h1.8l2.9,8.5h-1.8L189.5,82.2z M187.1,80.8h1.9l-0.9-3h0L187.1,80.8z"
			/>
		<path class="st0" d="M194.4,80.6V84h-1.7v-8.5h3c1,0,1.7,0.2,2.3,0.7s0.8,1.1,0.8,1.9c0,0.4-0.1,0.8-0.3,1.1s-0.6,0.6-1,0.8
			c0.5,0.1,0.9,0.4,1.1,0.7s0.3,0.8,0.3,1.3v0.6c0,0.2,0,0.5,0.1,0.7s0.2,0.5,0.3,0.6V84h-1.8c-0.2-0.1-0.3-0.3-0.3-0.6
			s-0.1-0.6-0.1-0.8v-0.6c0-0.4-0.1-0.8-0.3-1s-0.6-0.4-1-0.4H194.4z M194.4,79.3h1.2c0.5,0,0.8-0.1,1.1-0.3s0.4-0.5,0.4-0.9
			c0-0.4-0.1-0.7-0.4-0.9s-0.6-0.3-1-0.3h-1.2V79.3z"/>
		<path class="st0" d="M202.7,80.4H202V84h-1.7v-8.5h1.7V79h0.5l2.3-3.5h2.1l-3,4l3.2,4.6H205L202.7,80.4z"/>
		<path class="st0" d="M212.8,80.3h-3.2v2.4h3.8V84H208v-8.5h5.5v1.3h-3.8v2.1h3.2V80.3z"/>
		<path class="st0" d="M220.6,76.8h-2.4V84h-1.7v-7.2H214v-1.3h6.6V76.8z"/>
		<path class="st0" d="M223.4,84h-1.7v-8.5h1.7V84z"/>
		<path class="st0" d="M231.9,84h-1.7l-3.4-5.8l0,0V84H225v-8.5h1.7l3.4,5.7l0,0v-5.7h1.7V84z"/>
		<path class="st0" d="M240.1,82.8c-0.3,0.3-0.7,0.6-1.2,0.9s-1.2,0.4-2,0.4c-1,0-1.9-0.3-2.5-1s-1-1.5-1-2.5v-1.8
			c0-1,0.3-1.9,1-2.5s1.5-1,2.5-1c1,0,1.8,0.2,2.4,0.7s0.8,1.2,0.8,2l0,0h-1.6c0-0.5-0.1-0.8-0.4-1.1s-0.6-0.4-1.1-0.4
			c-0.5,0-0.9,0.2-1.3,0.6s-0.5,0.9-0.5,1.6v1.8c0,0.6,0.2,1.2,0.5,1.6s0.8,0.6,1.3,0.6c0.4,0,0.7,0,1-0.1s0.4-0.2,0.5-0.3v-1.7
			h-1.6v-1.2h3.4V82.8z"/>
	</g>
</g>
</svg>
