<?xml version="1.0" encoding="utf-8"?>
<!-- Generator: Adobe Illustrator 19.1.1, SVG Export Plug-In . SVG Version: 6.00 Build 0)  -->
<svg version="1.1" id="Calque_2" xmlns="http://www.w3.org/2000/svg" xmlns:xlink="http://www.w3.org/1999/xlink" x="0px" y="0px"
	 viewBox="0 0 95.8 22.4" style="enable-background:new 0 0 95.8 22.4;" xml:space="preserve">
<style type="text/css">
	.st0{fill:#008AB4;}
	.st1{fill:#566372;}
</style>
<g>
	<path class="st0" d="M16.9,3.1c-0.7,0-1.4,0.1-2,0.3C13.4,1.3,11,0,8.3,0C3.7,0,0,3.8,0,8.4c0,4.4,3.4,8.1,7.7,8.4v0h9.1v0
		c0,0,0.1,0,0.1,0c0.1,0,0.2,0,0.3,0l3.2,2.7v-3.6c2-1.2,3.4-3.4,3.4-5.9C23.8,6.2,20.7,3.1,16.9,3.1z M10.1,11.8c0,0.5-0.4,1-1,1
		H7.9c-0.5,0-1-0.4-1-1V5c0-0.5,0.4-1,1-1h1.2c0.5,0,1,0.4,1,1V11.8z M14.2,11.8c0,0.5-0.4,1-1,1H12c-0.5,0-1-0.4-1-1V7.4
		c0-0.5,0.4-1,1-1h1.2c0.5,0,1,0.4,1,1V11.8z M18.2,11.8c0,0.5-0.4,1-1,1h-1.2c-0.5,0-1-0.4-1-1V9.8c0-0.5,0.4-1,1-1h1.2
		c0.5,0,1,0.4,1,1V11.8z"/>
</g>
<g>
	<path class="st1" d="M61.5,3c-2.6,0-4.8,2.2-4.8,4.8c0,2.6,2.1,4.8,4.8,4.8c2,0,3.8-1.3,4.5-3.2h-1.2c-0.5,1.4-1.9,2.2-3.3,2.2
		c-1.8,0-3.5-1.5-3.6-3.3h8.4c0-0.1,0-0.2,0-0.3C66.3,5.3,64.2,3,61.5,3z M57.9,7.2c0.3-1.8,1.7-3.1,3.6-3.1c1.8,0,3.3,1.3,3.6,3.1
		H57.9z"/>
	<path class="st1" d="M56.8,4c0-1.5-0.8-2.9-2.2-3.5C53.7,0.1,52.5,0,51.5,0h-3.2v12.4h1.2V1.1h2.2c0.9,0,1.6,0.1,2.4,0.5
		C55.1,2,55.6,3,55.6,4c0,1.3-0.8,2.3-2.1,2.6c-0.8,0.2-1.9,0.2-2.7,0.2l4.2,5.6h1.6l-3.5-4.6C55.2,7.7,56.8,6.1,56.8,4z"/>
	<polygon class="st1" points="33.2,10.6 28.6,0 26.7,0 26.7,12.4 28,12.4 28,1.4 28,1.4 32.6,12.4 33.7,12.4 38.3,1.4 38.4,1.4 
		38.4,12.4 39.6,12.4 39.6,0 37.7,0 	"/>
	<polygon class="st1" points="44,10.6 41,3.2 39.8,3.2 43.4,12.1 41.8,15.7 43,15.7 48.3,3.2 47.1,3.2 	"/>
	<path class="st1" d="M81.2,3c-2.7,0-4.8,2.2-4.8,4.9c0,2.6,2.2,4.8,4.8,4.8c2.6,0,4.8-2.2,4.8-4.8C86.1,5.2,83.9,3,81.2,3z
		 M81.3,11.6c-2,0-3.6-1.7-3.6-3.7c0-2,1.5-3.8,3.6-3.8c2,0,3.6,1.7,3.6,3.7C84.9,9.8,83.4,11.6,81.3,11.6z"/>
	<path class="st1" d="M71.5,3c-1.4,0-2.7,0.7-3.6,1.8h0V3.2h-1.2v12.4h1.2v-4.8h0c0.8,1.2,2.2,1.8,3.6,1.8c2.8,0,4.9-2.1,4.9-4.8
		C76.4,5.1,74.2,3,71.5,3z M71.5,11.6c-2.1,0-3.7-1.7-3.7-3.7c0-2,1.6-3.8,3.7-3.8c2.2,0,3.8,1.6,3.8,3.8
		C75.3,10,73.7,11.6,71.5,11.6z"/>
	<path class="st1" d="M87.7,4.5V3.2h-1.2v9.2h1.2V7c0-1.6,1-2.8,2.6-2.8V3.1C89.5,3.1,88.2,3.3,87.7,4.5z"/>
	<polygon class="st1" points="93.6,3.1 93.6,0 92.4,0 92.4,3.1 90.5,3.1 90.5,4.2 92.4,4.2 92.4,12.4 93.6,12.4 93.6,4.2 95.8,4.2 
		95.8,3.1 	"/>
</g>
<g>
	<path class="st0" d="M26.6,22.3v-4.4h2.4v0.4h-2v1.6h1.9v0.4H27v1.6h2v0.4H26.6z"/>
	<path class="st0" d="M31.1,22.4c-0.8,0-1.3-0.5-1.3-1.3h0.4c0,0.5,0.4,0.9,0.9,0.9c0.5,0,0.9-0.4,0.9-0.9c0-0.6-0.5-0.8-1-0.9
		c-0.6-0.2-1.1-0.4-1.1-1.2c0-0.7,0.6-1.2,1.2-1.2c0.7,0,1.2,0.5,1.2,1.2h-0.4c0-0.4-0.3-0.8-0.8-0.8c-0.4,0-0.8,0.3-0.8,0.8
		c0,0.6,0.6,0.7,1,0.8c0.6,0.2,1.1,0.6,1.1,1.3C32.4,21.8,31.9,22.4,31.1,22.4z"/>
	<path class="st0" d="M34.4,22.4c-0.8,0-1.3-0.5-1.3-1.3h0.4c0,0.5,0.4,0.9,0.9,0.9c0.5,0,0.9-0.4,0.9-0.9c0-0.6-0.5-0.8-1-0.9
		c-0.6-0.2-1.1-0.4-1.1-1.2c0-0.7,0.6-1.2,1.2-1.2c0.7,0,1.2,0.5,1.2,1.2h-0.4c0-0.4-0.3-0.8-0.8-0.8c-0.4,0-0.8,0.3-0.8,0.8
		c0,0.6,0.6,0.7,1,0.8c0.6,0.2,1.1,0.6,1.1,1.3C35.7,21.8,35.1,22.4,34.4,22.4z"/>
	<path class="st0" d="M36.7,22.3v-4.4H39v0.4h-2v1.6H39v0.4h-1.9v1.6h2v0.4H36.7z"/>
	<path class="st0" d="M43.2,22.3l-2.6-3.8h0v3.8h-0.4v-4.4h0.6l2.4,3.6h0v-3.6h0.4v4.4H43.2z"/>
	<path class="st0" d="M45.9,18.3v4h-0.4v-4h-1v-0.4h2.4v0.4H45.9z"/>
	<path class="st0" d="M47.8,22.3v-4.4h0.4v4.4H47.8z"/>
	<path class="st0" d="M52.9,22.3l-0.6-1.5h-2l-0.6,1.5h-0.5l1.9-4.4h0.5l1.9,4.4H52.9z M51.2,18.4l-0.9,2h1.7L51.2,18.4z"/>
	<path class="st0" d="M54.2,22.3v-4.4h0.4v4h1.8v0.4H54.2z"/>
</g>
</svg>
