<?xml version="1.0" encoding="utf-8"?>
<!-- Generator: Adobe Illustrator 19.1.1, SVG Export Plug-In . SVG Version: 6.00 Build 0)  -->
<svg version="1.1" id="Calque_1" xmlns="http://www.w3.org/2000/svg" xmlns:xlink="http://www.w3.org/1999/xlink" x="0px" y="0px"
	 viewBox="-28 220 202 81.8" style="enable-background:new -28 220 202 81.8;" xml:space="preserve">
<style type="text/css">
	.st0{fill:#2C317D;}
</style>
<g>
	<path class="st0" d="M4.7,236.4l15.6,42.5h-8.7c-1.8,0-3.4-1.2-3.9-2.9l-1.3-4.2H-9.9l-1.3,4.2c-0.5,1.7-2.1,2.9-3.9,2.9h-8.7
		L-8,236.4c0.4-1,1.3-1.7,2.4-1.7h7.9C3.4,234.7,4.4,235.4,4.7,236.4z M-1.8,245.2c-0.6,2.3-1.2,4.6-1.8,6.8
		c-0.9,3.3-2.6,8.5-3.6,11.8H4L-1.8,245.2z"/>
	<path class="st0" d="M149.1,236.4l15.6,42.5H156c-1.8,0-3.4-1.2-3.9-2.9l-1.3-4.2h-16.3l-1.3,4.2c-0.5,1.7-2.1,2.9-3.9,2.9h-8.7
		l15.8-42.5c0.4-1,1.3-1.7,2.4-1.7h7.9C147.8,234.7,148.7,235.4,149.1,236.4z M142.6,245.2c-0.6,2.3-1.2,4.6-1.8,6.8
		c-0.9,3.3-2.6,8.5-3.6,11.8h11.2L142.6,245.2z"/>
	<g>
		<path class="st0" d="M57.9,234.8v5.9c0,1.6-1.3,2.8-2.8,2.8H36v9.1h19.7v8.4H37.4c-0.8,0-1.4,0.6-1.4,1.4v7.7h22.6v5.9
			c0,1.6-1.3,2.8-2.8,2.8H26.2v-42.6c0-0.8,0.6-1.4,1.4-1.4L57.9,234.8L57.9,234.8z"/>
		<path class="st0" d="M86,244.7V276c0,1.6-1.3,2.8-2.8,2.8h-7v-35.5H63.7v-8.5h34.8v8.5H87.4C86.7,243.3,86,243.9,86,244.7z"/>
		<path class="st0" d="M105.7,234.8h9.8V276c0,1.6-1.3,2.8-2.8,2.8h-7V234.8z"/>
	</g>
	<path class="st0" d="M20.3,278.6l-4.6-12.5c0-0.1-0.1-0.2-0.1-0.3L11,253.4c-0.1,0.9-0.1,1.8-0.1,2.7
		C10.9,265,14.5,272.9,20.3,278.6z"/>
	<path class="st0" d="M69.2,246.5c1.1,3,1.7,6.3,1.7,9.6c0,15.7-12.8,28.5-28.5,28.5c-4.2,0-8.3-0.9-11.9-2.6h-4.4v1.1
		c4.7,2.9,10.3,4.5,16.2,4.5c17.4,0,31.5-14.1,31.5-31.5c0-3.4-0.5-6.6-1.5-9.6C72.3,246.5,69.2,246.5,69.2,246.5z"/>
	<g>
		<path class="st0" d="M62,231.6c-5.4-4.3-12.2-6.9-19.6-6.9c-14.3,0-26.4,9.6-30.2,22.6l2,5.3c1.8-14,13.8-24.9,28.2-24.9
			c5.2,0,10.1,1.4,14.3,3.9H62z"/>
	</g>
	<g>
		<path class="st0" d="M78,298.4h-1.6v-11.7H78V298.4z"/>
		<path class="st0" d="M82.1,289.6l0.1,1.3c0.3-0.5,0.7-0.8,1.1-1.1c0.4-0.3,0.9-0.4,1.5-0.4c0.9,0,1.7,0.3,2.2,0.8s0.8,1.4,0.8,2.5
			v5.5h-1.6v-5.5c0-0.8-0.2-1.3-0.5-1.6s-0.8-0.5-1.4-0.5c-0.5,0-0.9,0.1-1.2,0.3c-0.3,0.2-0.6,0.5-0.8,0.8v6.5h-1.6v-8.7h1.4V289.6
			z"/>
		<path class="st0" d="M90.7,298.4v-7.5h-1.4v-1.2h1.4v-1.1c0-0.9,0.2-1.6,0.7-2.2c0.5-0.5,1.2-0.8,2-0.8c0.2,0,0.4,0,0.6,0
			s0.4,0.1,0.6,0.1l-0.2,1.2c-0.1,0-0.2,0-0.4-0.1c-0.1,0-0.3,0-0.4,0c-0.5,0-0.8,0.1-1,0.4s-0.3,0.7-0.3,1.2v1.1h1.6v1.2h-1.6v7.5
			h-1.6V298.4z"/>
		<path class="st0" d="M95.1,293.9c0-1.3,0.3-2.4,1-3.2c0.7-0.8,1.6-1.3,2.8-1.3c1.2,0,2.2,0.4,2.9,1.2c0.7,0.8,1.1,1.9,1.1,3.2v0.2
			c0,1.3-0.3,2.4-1,3.2s-1.6,1.2-2.9,1.2s-2.2-0.4-2.9-1.2S95,295.3,95,294v-0.1H95.1z M96.7,294.1c0,0.9,0.2,1.7,0.6,2.3
			c0.4,0.6,1,0.9,1.7,0.9c0.8,0,1.3-0.3,1.7-0.9c0.4-0.6,0.6-1.4,0.6-2.3v-0.2c0-0.9-0.2-1.7-0.6-2.3s-1-0.9-1.7-0.9
			c-0.8,0-1.3,0.3-1.7,0.9c-0.4,0.6-0.6,1.4-0.6,2.3V294.1z"/>
		<path class="st0" d="M109,291h-0.8c-0.4,0-0.8,0.1-1.1,0.3c-0.3,0.2-0.5,0.5-0.7,0.8v6.2h-1.6v-8.7h1.4l0.2,1.3
			c0.2-0.5,0.6-0.8,0.9-1.1c0.4-0.3,0.8-0.4,1.3-0.4c0.1,0,0.2,0,0.3,0s0.2,0,0.3,0.1L109,291z"/>
		<path class="st0" d="M112,289.6l0.1,1.1c0.3-0.4,0.6-0.7,1.1-1c0.4-0.2,0.9-0.3,1.5-0.3s1.1,0.1,1.5,0.4c0.4,0.3,0.7,0.7,0.9,1.2
			c0.3-0.5,0.6-0.9,1.1-1.2c0.4-0.3,1-0.4,1.6-0.4c0.9,0,1.6,0.3,2.1,0.9c0.5,0.6,0.8,1.5,0.8,2.8v5.2h-1.6v-5.2
			c0-0.9-0.1-1.5-0.4-1.8c-0.3-0.4-0.7-0.5-1.3-0.5c-0.5,0-1,0.2-1.3,0.6c-0.3,0.4-0.5,0.9-0.6,1.4v0.1v5.5h-1.6v-5.2
			c0-0.8-0.2-1.4-0.5-1.8c-0.3-0.4-0.7-0.6-1.3-0.6c-0.5,0-0.9,0.1-1.2,0.3c-0.3,0.2-0.6,0.5-0.7,0.8v6.5h-1.6v-8.7h1.4V289.6z"/>
		<path class="st0" d="M130.4,298.4c-0.1-0.3-0.1-0.5-0.1-0.7c0-0.2,0-0.4-0.1-0.6c-0.3,0.4-0.7,0.8-1.2,1.1c-0.5,0.3-1,0.4-1.5,0.4
			c-0.9,0-1.6-0.2-2.1-0.7s-0.7-1.1-0.7-1.9s0.3-1.5,1-2s1.6-0.7,2.7-0.7h1.7v-0.9c0-0.5-0.2-0.9-0.5-1.2s-0.8-0.4-1.3-0.4
			s-0.9,0.1-1.2,0.4c-0.3,0.3-0.5,0.6-0.5,0.9h-1.5l0,0c0-0.6,0.3-1.2,0.9-1.7s1.4-0.8,2.4-0.8s1.8,0.3,2.4,0.8s0.9,1.2,0.9,2.2v4.2
			c0,0.3,0,0.6,0,0.9s0.1,0.6,0.2,0.9h-1.5V298.4z M127.8,297.2c0.6,0,1.1-0.1,1.6-0.4s0.8-0.6,0.9-1v-1.4h-1.8
			c-0.6,0-1.2,0.2-1.5,0.5c-0.3,0.3-0.6,0.7-0.6,1.1c0,0.4,0.1,0.7,0.4,0.9C126.9,297.1,127.3,297.2,127.8,297.2z"/>
		<path class="st0" d="M136.3,287.5v2.1h1.7v1.2h-1.7v5.3c0,0.4,0.1,0.7,0.3,0.9c0.2,0.2,0.4,0.3,0.7,0.3c0.1,0,0.2,0,0.3,0
			c0.1,0,0.2,0,0.3-0.1l0.2,1.1c-0.1,0.1-0.3,0.2-0.5,0.2c-0.2,0.1-0.5,0.1-0.7,0.1c-0.6,0-1.2-0.2-1.5-0.6c-0.4-0.4-0.6-1-0.6-1.8
			v-5.3h-1.4v-1.2h1.4v-2.1L136.3,287.5L136.3,287.5z"/>
		<path class="st0" d="M141.4,287.4h-1.6v-1.6h1.6V287.4z M141.4,298.4h-1.6v-8.7h1.6V298.4z"/>
		<path class="st0" d="M143.5,294.2c0-1.4,0.3-2.5,0.9-3.4c0.6-0.9,1.4-1.3,2.5-1.3c0.5,0,1,0.1,1.4,0.3c0.4,0.2,0.7,0.5,1,0.9
			l0.2-1h1.2v12.1h-1.6v-4.2c-0.3,0.3-0.6,0.6-1,0.7c-0.4,0.2-0.8,0.3-1.3,0.3c-1.1,0-1.9-0.4-2.5-1.2c-0.6-0.8-0.9-1.8-0.9-3
			L143.5,294.2L143.5,294.2z M145.1,294.3c0,0.9,0.2,1.6,0.5,2.1c0.4,0.5,0.9,0.8,1.7,0.8c0.4,0,0.8-0.1,1.1-0.3
			c0.3-0.2,0.6-0.5,0.8-0.8v-4.4c-0.2-0.3-0.5-0.6-0.8-0.8c-0.3-0.2-0.7-0.3-1.1-0.3c-0.8,0-1.3,0.3-1.7,1c-0.4,0.6-0.5,1.5-0.5,2.5
			V294.3z"/>
		<path class="st0" d="M158.7,297.1c-0.3,0.5-0.6,0.8-1.1,1.1c-0.4,0.3-0.9,0.4-1.5,0.4c-1,0-1.7-0.3-2.2-0.9
			c-0.5-0.6-0.8-1.6-0.8-2.8v-5.1h1.6v5.2c0,0.9,0.1,1.6,0.4,1.9c0.3,0.3,0.7,0.5,1.3,0.5c0.6,0,1-0.1,1.4-0.3
			c0.4-0.2,0.6-0.6,0.8-1v-6.3h1.6v8.7h-1.4L158.7,297.1z"/>
		<path class="st0" d="M166.2,298.5c-1.3,0-2.2-0.4-2.9-1.2c-0.7-0.8-1.1-1.9-1.1-3.2v-0.4c0-1.3,0.4-2.3,1.1-3.1s1.6-1.2,2.6-1.2
			c1.2,0,2,0.4,2.6,1.1s0.9,1.7,0.9,2.9v0.8h-5.6l0,0c0,0.9,0.2,1.6,0.6,2.1s1,0.8,1.8,0.8c0.5,0,1-0.1,1.4-0.2
			c0.4-0.2,0.8-0.4,1-0.6l0.6,1c-0.3,0.3-0.7,0.6-1.2,0.8C167.5,298.3,166.9,298.5,166.2,298.5z M165.9,290.7c-0.6,0-1,0.2-1.4,0.6
			c-0.4,0.4-0.6,1-0.7,1.6l0,0h3.9v-0.1c0-0.6-0.2-1.2-0.5-1.6C167.1,290.9,166.6,290.7,165.9,290.7z"/>
	</g>
</g>
</svg>
