<?xml version="1.0" encoding="utf-8"?>
<!-- Generator: Adobe Illustrator 19.1.1, SVG Export Plug-In . SVG Version: 6.00 Build 0)  -->
<svg version="1.1" id="Calque_1" xmlns="http://www.w3.org/2000/svg" xmlns:xlink="http://www.w3.org/1999/xlink" x="0px" y="0px"
	 viewBox="-372.3 239.3 197.7 81.7" style="enable-background:new -372.3 239.3 197.7 81.7;" xml:space="preserve">
<style type="text/css">
	.st0{fill:#FFFFFF;}
</style>
<g>
	<path class="st0" d="M-341.5,253.6l15.6,42.5h-8.7c-1.8,0-3.4-1.2-3.9-2.9l-1.3-4.2h-16.3l-1.3,4.2c-0.5,1.7-2.1,2.9-3.9,2.9h-8.7
		l15.8-42.5c0.4-1,1.3-1.7,2.4-1.7h7.9C-342.8,251.9-341.8,252.6-341.5,253.6z M-348,262.4c-0.6,2.3-1.2,4.6-1.8,6.8
		c-0.9,3.3-2.6,8.5-3.6,11.8h11.2L-348,262.4z"/>
	<path class="st0" d="M-197.1,253.6l15.6,42.5h-8.7c-1.8,0-3.4-1.2-3.9-2.9l-1.3-4.2h-16.3l-1.3,4.2c-0.5,1.7-2.1,2.9-3.9,2.9h-8.7
		l15.8-42.5c0.4-1,1.3-1.7,2.4-1.7h7.9C-198.4,251.9-197.5,252.6-197.1,253.6z M-203.6,262.4c-0.6,2.3-1.2,4.6-1.8,6.8
		c-0.9,3.3-2.6,8.5-3.6,11.8h11.2L-203.6,262.4z"/>
	<g>
		<path class="st0" d="M-288.3,252v5.9c0,1.6-1.3,2.8-2.8,2.8h-19.1v9.1h19.7v8.4h-18.3c-0.8,0-1.4,0.6-1.4,1.4v7.7h22.6v5.9
			c0,1.6-1.3,2.8-2.8,2.8H-320v-42.6c0-0.8,0.6-1.4,1.4-1.4L-288.3,252L-288.3,252z"/>
		<path class="st0" d="M-260.2,261.9v31.3c0,1.6-1.3,2.8-2.8,2.8h-7v-35.5h-12.5V252h34.8v8.5h-11.1
			C-259.5,260.5-260.2,261.1-260.2,261.9z"/>
		<path class="st0" d="M-240.5,252h9.8v41.2c0,1.6-1.3,2.8-2.8,2.8h-7V252z"/>
	</g>
	<path class="st0" d="M-325.9,295.8l-4.6-12.5c0-0.1-0.1-0.2-0.1-0.3l-4.6-12.4c-0.1,0.9-0.1,1.8-0.1,2.7
		C-335.3,282.2-331.7,290.1-325.9,295.8z"/>
	<path class="st0" d="M-277,263.7c1.1,3,1.7,6.3,1.7,9.6c0,15.7-12.8,28.5-28.5,28.5c-4.2,0-8.3-0.9-11.9-2.6h-4.4v1.1
		c4.7,2.9,10.3,4.5,16.2,4.5c17.4,0,31.5-14.1,31.5-31.5c0-3.4-0.5-6.6-1.5-9.6C-273.9,263.7-277,263.7-277,263.7z"/>
	<g>
		<path class="st0" d="M-284.2,248.8c-5.4-4.3-12.2-6.9-19.6-6.9c-14.3,0-26.4,9.6-30.2,22.6l2,5.3c1.8-14,13.8-24.9,28.2-24.9
			c5.2,0,10.1,1.4,14.3,3.9H-284.2z"/>
	</g>
	<g>
		<path class="st0" d="M-268.2,315.6h-1.6v-11.7h1.6V315.6z"/>
		<path class="st0" d="M-264.1,306.8l0.1,1.3c0.3-0.5,0.7-0.8,1.1-1.1c0.4-0.3,0.9-0.4,1.5-0.4c0.9,0,1.7,0.3,2.2,0.8
			s0.8,1.4,0.8,2.5v5.5h-1.6v-5.5c0-0.8-0.2-1.3-0.5-1.6s-0.8-0.5-1.4-0.5c-0.5,0-0.9,0.1-1.2,0.3c-0.3,0.2-0.6,0.5-0.8,0.8v6.5
			h-1.6v-8.7h1.4V306.8z"/>
		<path class="st0" d="M-255.5,315.6v-7.5h-1.4v-1.2h1.4v-1.1c0-0.9,0.2-1.6,0.7-2.2c0.5-0.5,1.2-0.8,2-0.8c0.2,0,0.4,0,0.6,0
			s0.4,0.1,0.6,0.1l-0.2,1.2c-0.1,0-0.2,0-0.4-0.1c-0.1,0-0.3,0-0.4,0c-0.5,0-0.8,0.1-1,0.4s-0.3,0.7-0.3,1.2v1.1h1.6v1.2h-1.6v7.5
			h-1.6C-255.5,315.4-255.5,315.6-255.5,315.6z"/>
		<path class="st0" d="M-251.1,311.1c0-1.3,0.3-2.4,1-3.2c0.7-0.8,1.6-1.3,2.8-1.3s2.2,0.4,2.9,1.2c0.7,0.8,1.1,1.9,1.1,3.2v0.2
			c0,1.3-0.3,2.4-1,3.2s-1.6,1.2-2.9,1.2c-1.2,0-2.2-0.4-2.9-1.2s-1.1-1.9-1.1-3.2L-251.1,311.1L-251.1,311.1z M-249.5,311.3
			c0,0.9,0.2,1.7,0.6,2.3c0.4,0.6,1,0.9,1.7,0.9c0.8,0,1.3-0.3,1.7-0.9c0.4-0.6,0.6-1.4,0.6-2.3v-0.2c0-0.9-0.2-1.7-0.6-2.3
			s-1-0.9-1.7-0.9c-0.8,0-1.3,0.3-1.7,0.9c-0.4,0.6-0.6,1.4-0.6,2.3V311.3L-249.5,311.3z"/>
		<path class="st0" d="M-237.2,308.2h-0.8c-0.4,0-0.8,0.1-1.1,0.3c-0.3,0.2-0.5,0.5-0.7,0.8v6.2h-1.6v-8.7h1.4l0.2,1.3
			c0.2-0.5,0.6-0.8,0.9-1.1c0.3-0.3,0.8-0.4,1.3-0.4c0.1,0,0.2,0,0.3,0s0.2,0,0.3,0.1L-237.2,308.2z"/>
		<path class="st0" d="M-234.2,306.8l0.1,1.1c0.3-0.4,0.6-0.7,1.1-1s0.9-0.3,1.5-0.3c0.6,0,1.1,0.1,1.5,0.4c0.4,0.3,0.7,0.7,0.9,1.2
			c0.3-0.5,0.6-0.9,1.1-1.2c0.4-0.3,1-0.4,1.6-0.4c0.9,0,1.6,0.3,2.1,0.9s0.8,1.5,0.8,2.8v5.2h-1.6v-5.2c0-0.9-0.1-1.5-0.4-1.8
			c-0.3-0.4-0.7-0.5-1.3-0.5c-0.5,0-1,0.2-1.3,0.6s-0.5,0.9-0.6,1.4v0.1v5.5h-1.6v-5.2c0-0.8-0.2-1.4-0.5-1.8s-0.7-0.6-1.3-0.6
			c-0.5,0-0.9,0.1-1.2,0.3c-0.3,0.2-0.6,0.5-0.7,0.8v6.5h-1.6v-8.7L-234.2,306.8L-234.2,306.8z"/>
		<path class="st0" d="M-215.8,315.6c-0.1-0.3-0.1-0.5-0.1-0.7s0-0.4-0.1-0.6c-0.3,0.4-0.7,0.8-1.2,1.1c-0.5,0.3-1,0.4-1.5,0.4
			c-0.9,0-1.6-0.2-2.1-0.7s-0.7-1.1-0.7-1.9s0.3-1.5,1-2s1.6-0.7,2.7-0.7h1.7v-0.9c0-0.5-0.2-0.9-0.5-1.2s-0.8-0.4-1.3-0.4
			s-0.9,0.1-1.2,0.4c-0.3,0.3-0.5,0.6-0.5,0.9h-1.5l0,0c0-0.6,0.3-1.2,0.9-1.7c0.6-0.5,1.4-0.8,2.4-0.8s1.8,0.3,2.4,0.8
			c0.6,0.5,0.9,1.2,0.9,2.2v4.2c0,0.3,0,0.6,0,0.9s0.1,0.6,0.2,0.9h-1.5C-215.8,315.8-215.8,315.6-215.8,315.6z M-218.4,314.4
			c0.6,0,1.1-0.1,1.6-0.4s0.8-0.6,0.9-1v-1.4h-1.8c-0.6,0-1.2,0.2-1.5,0.5s-0.6,0.7-0.6,1.1s0.1,0.7,0.4,0.9
			C-219.3,314.3-218.9,314.4-218.4,314.4z"/>
		<path class="st0" d="M-209.9,304.7v2.1h1.7v1.2h-1.7v5.3c0,0.4,0.1,0.7,0.3,0.9c0.2,0.2,0.4,0.3,0.7,0.3c0.1,0,0.2,0,0.3,0
			c0.1,0,0.2,0,0.3-0.1l0.2,1.1c-0.1,0.1-0.3,0.2-0.5,0.2c-0.2,0.1-0.5,0.1-0.7,0.1c-0.6,0-1.2-0.2-1.5-0.6c-0.4-0.4-0.6-1-0.6-1.8
			v-5.3h-1.4v-1.2h1.4v-2.1L-209.9,304.7L-209.9,304.7z"/>
		<path class="st0" d="M-204.8,304.6h-1.6V303h1.6V304.6z M-204.8,315.6h-1.6v-8.7h1.6V315.6z"/>
		<path class="st0" d="M-202.7,311.4c0-1.4,0.3-2.5,0.9-3.4c0.6-0.9,1.4-1.3,2.5-1.3c0.5,0,1,0.1,1.4,0.3c0.4,0.2,0.7,0.5,1,0.9
			l0.2-1h1.2V319h-1.6v-4.2c-0.3,0.3-0.6,0.6-1,0.7c-0.4,0.2-0.8,0.3-1.3,0.3c-1.1,0-1.9-0.4-2.5-1.2c-0.6-0.8-0.9-1.8-0.9-3
			L-202.7,311.4L-202.7,311.4z M-201.1,311.5c0,0.9,0.2,1.6,0.5,2.1c0.4,0.5,0.9,0.8,1.7,0.8c0.4,0,0.8-0.1,1.1-0.3
			c0.3-0.2,0.6-0.5,0.8-0.8v-4.4c-0.2-0.3-0.5-0.6-0.8-0.8c-0.3-0.2-0.7-0.3-1.1-0.3c-0.8,0-1.3,0.3-1.7,1c-0.4,0.6-0.5,1.5-0.5,2.5
			V311.5z"/>
		<path class="st0" d="M-187.5,314.3c-0.3,0.5-0.6,0.8-1.1,1.1c-0.4,0.3-0.9,0.4-1.5,0.4c-1,0-1.7-0.3-2.2-0.9s-0.8-1.6-0.8-2.8V307
			h1.6v5.2c0,0.9,0.1,1.6,0.4,1.9s0.7,0.5,1.3,0.5s1-0.1,1.4-0.3c0.4-0.2,0.6-0.6,0.8-1v-6.3h1.6v8.7h-1.4L-187.5,314.3z"/>
		<path class="st0" d="M-180,315.7c-1.3,0-2.2-0.4-2.9-1.2c-0.7-0.8-1.1-1.9-1.1-3.2v-0.4c0-1.3,0.4-2.3,1.1-3.1s1.6-1.2,2.6-1.2
			c1.2,0,2,0.4,2.6,1.1s0.9,1.7,0.9,2.9v0.8h-5.6l0,0c0,0.9,0.2,1.6,0.6,2.1c0.4,0.5,1,0.8,1.8,0.8c0.5,0,1-0.1,1.4-0.2
			c0.4-0.2,0.8-0.4,1-0.6l0.6,1c-0.3,0.3-0.7,0.6-1.2,0.8C-178.7,315.5-179.3,315.7-180,315.7z M-180.3,307.9c-0.6,0-1,0.2-1.4,0.6
			c-0.4,0.4-0.6,1-0.7,1.6l0,0h3.9V310c0-0.6-0.2-1.2-0.5-1.6C-179.1,308.1-179.6,307.9-180.3,307.9z"/>
	</g>
</g>
</svg>
